<svg width="293" height="64" viewBox="0 0 293 64" fill="none" xmlns="http://www.w3.org/2000/svg">
<rect width="293" height="60" rx="9" fill="#5D2ECF"/>
<path d="M49.1979 15.793C51.0989 15.793 52.9349 16.2096 54.7057 17.043C55.539 17.4336 56.1185 17.6289 56.444 17.6289C56.6784 17.6289 57.056 17.5703 57.5768 17.4531C57.7461 17.4141 57.9349 17.3945 58.1432 17.3945C58.8203 17.3945 59.4127 17.707 59.9205 18.332C61.1705 19.8424 61.7955 21.7174 61.7955 23.957C61.7955 25.5326 61.2552 26.6849 60.1745 27.4141C59.5885 27.8047 58.931 28 58.2018 28C57.5377 28 56.9974 27.8568 56.5807 27.5703C56.164 27.2839 55.7604 26.776 55.3698 26.0469C54.8099 25.0182 54.3541 24.2826 54.0026 23.8398C53.651 23.3841 53.2213 22.974 52.7135 22.6094C51.4505 21.724 50.1289 21.2812 48.7487 21.2812C47.4075 21.2812 46.3398 21.7695 45.5455 22.7461C44.7643 23.7096 44.3737 25.0052 44.3737 26.6328C44.3737 28.8724 44.9401 30.9232 46.0729 32.7852C47.6093 35.2721 49.8099 36.5156 52.6745 36.5156C53.7291 36.5156 54.7708 36.3398 55.7995 35.9883C56.8411 35.6367 57.6484 35.181 58.2213 34.6211C58.7161 34.1523 59.1198 33.918 59.4323 33.918C59.888 33.918 60.2786 34.1328 60.6041 34.5625C60.9297 34.9792 61.0924 35.487 61.0924 36.0859C61.0924 36.8411 60.8646 37.6875 60.4088 38.625C59.9531 39.5625 59.4062 40.2982 58.7682 40.832C58.4948 41.0534 57.9284 41.2487 57.069 41.418C56.5742 41.5091 55.9166 41.75 55.0963 42.1406C53.1692 43.0651 51.164 43.5273 49.0807 43.5273C46.9062 43.5273 44.7383 43.0391 42.5768 42.0625C40.0638 40.9297 38.0781 39.1914 36.6198 36.8477C35.1875 34.569 34.4713 32.1862 34.4713 29.6992C34.4713 26.8086 35.3698 24.1719 37.1666 21.7891C38.7291 19.7188 40.7669 18.1367 43.2799 17.043C45.194 16.2096 47.1666 15.793 49.1979 15.793ZM74.9549 23.5273C77.3377 23.5273 79.4276 24.1458 81.2245 25.3828C82.5135 26.2682 83.5487 27.4206 84.3299 28.8398C85.1372 30.3242 85.5409 31.8737 85.5409 33.4883C85.5409 36.3138 84.2453 38.7161 81.6541 40.6953C79.1802 42.5833 76.3482 43.5273 73.158 43.5273C70.0461 43.5273 67.5265 42.6419 65.5995 40.8711C63.7245 39.1523 62.787 36.9128 62.787 34.1523C62.787 31.0794 63.9328 28.5664 66.2245 26.6133C68.6203 24.556 71.5304 23.5273 74.9549 23.5273ZM73.3924 28.0391C72.8195 28.0391 72.3573 28.2539 72.0057 28.6836C71.6672 29.1003 71.4979 29.6602 71.4979 30.3633C71.4979 31.1445 71.6411 32.2122 71.9276 33.5664C72.2271 34.9076 72.5786 36.099 72.9823 37.1406C73.3859 38.2083 74.0435 38.7422 74.9549 38.7422C76.1138 38.7422 76.6932 38.0065 76.6932 36.5352C76.6932 35.4414 76.5435 34.1979 76.244 32.8047C75.9575 31.4115 75.606 30.2786 75.1893 29.4062C74.7596 28.5208 74.1607 28.0651 73.3924 28.0391ZM110.458 30.7539L110.731 37.6289C110.758 38.1497 110.836 38.5339 110.966 38.7812C111.109 39.0286 111.513 39.5039 112.177 40.207C112.372 40.4154 112.47 40.7083 112.47 41.0859C112.47 41.9453 111.955 42.5443 110.927 42.8828C109.898 43.2214 108.062 43.3906 105.419 43.3906C103.622 43.3906 102.353 43.2344 101.61 42.9219C100.842 42.5964 100.458 42.069 100.458 41.3398C100.458 41.0794 100.497 40.8906 100.575 40.7734C100.653 40.6432 100.914 40.3372 101.356 39.8555C101.877 39.3086 102.138 37.4857 102.138 34.3867C102.138 32.5898 101.929 31.2617 101.513 30.4023C101.174 29.7122 100.549 29.3672 99.6377 29.3672C98.7653 29.3672 98.1664 29.6471 97.8409 30.207C97.5153 30.7669 97.3526 31.7826 97.3526 33.2539V37.1211C97.3526 37.8893 97.3982 38.4167 97.4893 38.7031C97.5935 38.9896 97.919 39.543 98.4659 40.3633C98.6091 40.5977 98.6807 40.8646 98.6807 41.1641C98.6807 41.9323 98.1468 42.4987 97.0791 42.8633C96.0114 43.2279 94.3448 43.4102 92.0791 43.4102C88.4593 43.4102 86.6495 42.6615 86.6495 41.1641C86.6495 40.8516 86.7015 40.6172 86.8057 40.4609C86.9229 40.2917 87.1898 40.0573 87.6065 39.7578C87.945 39.5104 88.1599 39.2305 88.251 38.918C88.3422 38.5924 88.4268 37.8047 88.5049 36.5547C88.5961 35.0703 88.6416 33.5143 88.6416 31.8867C88.6416 30.9883 88.57 30.4023 88.4268 30.1289C88.2966 29.8424 87.906 29.4974 87.2549 29.0938C86.695 28.7422 86.4151 28.3125 86.4151 27.8047C86.4151 27.2839 86.6429 26.8607 87.0987 26.5352C87.5544 26.1966 88.4919 25.7734 89.9112 25.2656C91.1612 24.8229 92.3656 24.4518 93.5245 24.1523C94.6833 23.8398 95.4776 23.6836 95.9073 23.6836C96.2979 23.6836 96.6234 23.8268 96.8838 24.1133C97.1573 24.3997 97.294 24.7383 97.294 25.1289C97.294 25.168 97.2875 25.3307 97.2745 25.6172C97.2614 25.7214 97.2549 25.8125 97.2549 25.8906C97.2549 26.5156 97.5153 26.8281 98.0362 26.8281C98.3487 26.8281 98.6807 26.5807 99.0323 26.0859C100.152 24.4714 101.78 23.6641 103.915 23.6641C105.556 23.6641 106.962 24.0938 108.134 24.9531C108.954 25.5651 109.527 26.2878 109.853 27.1211C110.178 27.9414 110.38 29.1523 110.458 30.7539ZM125.004 28.6641V35.2656C125.004 36.0469 125.193 36.6849 125.571 37.1797C125.961 37.6745 126.456 37.9219 127.055 37.9219C127.563 37.9219 128.233 37.6875 129.067 37.2188C129.262 37.1016 129.457 37.043 129.653 37.043C129.965 37.043 130.252 37.2318 130.512 37.6094C130.772 37.987 130.903 38.3971 130.903 38.8398C130.903 39.6471 130.46 40.4219 129.574 41.1641C127.725 42.7396 125.486 43.5273 122.856 43.5273C120.772 43.5273 119.099 42.9414 117.836 41.7695C116.573 40.5846 115.942 39.0286 115.942 37.1016V28.0781C115.942 27.7786 115.903 27.5964 115.824 27.5312C115.759 27.4531 115.577 27.4141 115.278 27.4141H113.266C112.888 27.4141 112.647 27.3555 112.543 27.2383C112.439 27.1081 112.387 26.8151 112.387 26.3594V25.5C112.4 25.1094 112.55 24.8229 112.836 24.6406L121.781 19.0156C122.003 18.8984 122.276 18.8398 122.602 18.8398H124.184C124.509 18.8398 124.724 18.918 124.828 19.0742C124.946 19.2174 125.004 19.5104 125.004 19.9531V22.5898C125.004 22.9805 125.063 23.2344 125.18 23.3516C125.31 23.4688 125.577 23.5273 125.981 23.5273H129.594C130.076 23.5273 130.388 23.6185 130.531 23.8008C130.675 23.9701 130.746 24.3411 130.746 24.9141V26.0664C130.746 26.6914 130.655 27.1276 130.473 27.375C130.291 27.6094 129.959 27.7266 129.477 27.7266H125.942C125.577 27.7266 125.33 27.7917 125.199 27.9219C125.069 28.0521 125.004 28.2995 125.004 28.6641ZM143.105 23.5273C145.371 23.5273 147.291 24.1003 148.867 25.2461C149.7 25.8581 150.279 26.5612 150.605 27.3555C150.943 28.1367 151.113 29.2174 151.113 30.5977L151.074 33.5078C151.074 35.526 151.217 36.8346 151.503 37.4336C151.647 37.7201 151.783 37.9023 151.914 37.9805C152.044 38.0586 152.317 38.1302 152.734 38.1953C153.15 38.2604 153.359 38.5339 153.359 39.0156C153.359 39.6406 153.105 40.2917 152.597 40.9688C152.102 41.6458 151.458 42.2122 150.664 42.668C149.687 43.2409 148.665 43.5273 147.597 43.5273C146.23 43.5273 145.149 43.0586 144.355 42.1211C144.081 41.7826 143.828 41.6133 143.593 41.6133C143.333 41.6133 142.988 41.776 142.558 42.1016C141.256 43.0521 139.778 43.5273 138.124 43.5273C136.419 43.5273 135.039 43.1628 133.984 42.4336C133.294 41.9518 132.747 41.3268 132.343 40.5586C131.94 39.7773 131.738 38.9635 131.738 38.1172C131.738 36.763 132.285 35.5651 133.378 34.5234C135.084 32.8828 137.636 32.056 141.035 32.043C141.79 32.043 142.265 31.9714 142.46 31.8281C142.656 31.6719 142.753 31.3203 142.753 30.7734C142.753 29.3932 142.61 28.3971 142.324 27.7852C142.037 27.1602 141.568 26.8477 140.917 26.8477C140.527 26.8477 140.175 26.9648 139.863 27.1992C139.563 27.4336 139.186 27.8633 138.73 28.4883C137.571 30.1419 136.36 30.9688 135.097 30.9688C134.459 30.9688 133.938 30.7799 133.535 30.4023C133.131 30.0247 132.929 29.5299 132.929 28.918C132.929 28.293 133.177 27.668 133.671 27.043C134.179 26.418 134.863 25.8711 135.722 25.4023C138.079 24.1523 140.54 23.5273 143.105 23.5273ZM141.796 34.8359C141.223 34.8359 140.722 35.0703 140.292 35.5391C139.876 36.0078 139.667 36.5677 139.667 37.2188C139.667 37.8438 139.817 38.3516 140.117 38.7422C140.416 39.1198 140.813 39.3086 141.308 39.3086C142.35 39.3086 142.871 38.4297 142.871 36.6719C142.871 35.9557 142.792 35.474 142.636 35.2266C142.493 34.9792 142.213 34.849 141.796 34.8359ZM165.581 23.5469C167.898 23.5469 169.943 24.1263 171.714 25.2852C173.393 26.3919 174.233 27.7656 174.233 29.4062C174.233 30.5391 173.842 31.457 173.061 32.1602C172.332 32.8242 171.453 33.1562 170.424 33.1562C169.344 33.1562 168.53 32.7656 167.983 31.9844C167.814 31.737 167.566 31.1055 167.241 30.0898C166.889 28.9961 166.219 28.4492 165.229 28.4492C164.513 28.4492 163.908 28.7617 163.413 29.3867C162.931 30.0117 162.69 30.7799 162.69 31.6914C162.69 33.2539 163.25 34.6406 164.37 35.8516C165.281 36.8281 166.427 37.3164 167.807 37.3164C168.458 37.3164 169.005 37.2643 169.448 37.1602C169.891 37.043 170.47 36.8151 171.186 36.4766C171.368 36.3854 171.57 36.3398 171.792 36.3398C172.234 36.3398 172.625 36.5482 172.964 36.9648C173.302 37.3815 173.471 37.8698 173.471 38.4297C173.471 39.0156 173.23 39.6341 172.749 40.2852C172.267 40.9232 171.635 41.4831 170.854 41.9648C169.161 43.0065 167.163 43.5273 164.858 43.5273C162.176 43.5273 159.891 42.7461 158.003 41.1836C155.581 39.2044 154.37 36.6849 154.37 33.625C154.37 30.6823 155.496 28.2474 157.749 26.3203C159.897 24.4714 162.508 23.5469 165.581 23.5469ZM186.904 28.6641V35.2656C186.904 36.0469 187.093 36.6849 187.471 37.1797C187.861 37.6745 188.356 37.9219 188.955 37.9219C189.463 37.9219 190.133 37.6875 190.967 37.2188C191.162 37.1016 191.357 37.043 191.553 37.043C191.865 37.043 192.152 37.2318 192.412 37.6094C192.672 37.987 192.803 38.3971 192.803 38.8398C192.803 39.6471 192.36 40.4219 191.474 41.1641C189.625 42.7396 187.386 43.5273 184.756 43.5273C182.672 43.5273 180.999 42.9414 179.736 41.7695C178.473 40.5846 177.842 39.0286 177.842 37.1016V28.0781C177.842 27.7786 177.803 27.5964 177.724 27.5312C177.659 27.4531 177.477 27.4141 177.178 27.4141H175.166C174.788 27.4141 174.547 27.3555 174.443 27.2383C174.339 27.1081 174.287 26.8151 174.287 26.3594V25.5C174.3 25.1094 174.45 24.8229 174.736 24.6406L183.681 19.0156C183.903 18.8984 184.176 18.8398 184.502 18.8398H186.084C186.409 18.8398 186.624 18.918 186.728 19.0742C186.846 19.2174 186.904 19.5104 186.904 19.9531V22.5898C186.904 22.9805 186.963 23.2344 187.08 23.3516C187.21 23.4688 187.477 23.5273 187.881 23.5273H191.494C191.976 23.5273 192.288 23.6185 192.431 23.8008C192.575 23.9701 192.646 24.3411 192.646 24.9141V26.0664C192.646 26.6914 192.555 27.1276 192.373 27.375C192.191 27.6094 191.859 27.7266 191.377 27.7266H187.842C187.477 27.7266 187.23 27.7917 187.099 27.9219C186.969 28.0521 186.904 28.2995 186.904 28.6641ZM214.121 24.6602V35.2461C214.121 37.5117 214.87 38.6445 216.367 38.6445C216.745 38.6445 217.116 38.5404 217.481 38.332C217.845 38.1107 218.099 37.8438 218.242 37.5312C218.529 36.9062 218.672 35.513 218.672 33.3516C218.672 31.2161 218.6 29.7578 218.457 28.9766C218.405 28.651 218.314 28.4167 218.184 28.2734C218.054 28.1172 217.806 27.9414 217.442 27.7461C216.699 27.3555 216.328 26.8607 216.328 26.2617C216.328 25.4544 216.966 24.8945 218.242 24.582C220.664 23.9831 223.054 23.6836 225.41 23.6836C226.725 23.6836 227.383 24.3802 227.383 25.7734C227.383 25.9167 227.377 26.2096 227.364 26.6523C227.337 27.2773 227.318 28.0391 227.305 28.9375V37.5508C227.305 37.9935 227.683 38.3971 228.438 38.7617C229.076 39.0742 229.395 39.5299 229.395 40.1289C229.395 41.3008 228.008 42.2057 225.235 42.8438C223.607 43.2214 222.031 43.4102 220.508 43.4102C219.883 43.4102 219.453 43.3385 219.219 43.1953C218.998 43.0521 218.867 42.7721 218.828 42.3555C218.763 41.5482 218.516 41.1445 218.086 41.1445C217.93 41.1445 217.787 41.1836 217.656 41.2617C217.526 41.3268 217.129 41.5872 216.465 42.043C215.15 42.9414 213.737 43.3906 212.227 43.3906C209.727 43.3906 207.962 42.668 206.934 41.2227C206.061 40.0117 205.625 37.974 205.625 35.1094C205.625 34.0417 205.632 33.1302 205.645 32.375C205.645 31.9323 205.645 31.6328 205.645 31.4766C205.645 30.3568 205.541 29.5365 205.332 29.0156C205.137 28.4818 204.772 28.0651 204.239 27.7656C203.731 27.5052 203.405 27.2969 203.262 27.1406C203.132 26.9844 203.067 26.7695 203.067 26.4961C203.067 25.5065 203.815 24.849 205.313 24.5234C207.865 23.9635 210.417 23.6836 212.969 23.6836C213.737 23.6836 214.121 24.0091 214.121 24.6602ZM238.14 23.5469C238.791 23.5469 239.852 23.6901 241.324 23.9766C241.623 24.0286 241.871 24.0547 242.066 24.0547C242.287 24.0547 242.717 23.9375 243.355 23.7031C243.654 23.5859 243.908 23.5273 244.117 23.5273C244.716 23.5273 245.321 23.9115 245.933 24.6797C246.428 25.2917 246.831 25.9622 247.144 26.6914C247.456 27.4206 247.613 28.0521 247.613 28.5859C247.613 29.1068 247.43 29.543 247.066 29.8945C246.701 30.2331 246.246 30.4023 245.699 30.4023C245.243 30.4023 244.833 30.2917 244.468 30.0703C244.117 29.849 243.544 29.3607 242.749 28.6055C241.916 27.7982 241.226 27.3945 240.679 27.3945C240.315 27.3945 239.996 27.5312 239.722 27.8047C239.462 28.0651 239.331 28.3776 239.331 28.7422C239.331 29.3802 239.943 29.9792 241.167 30.5391C243.368 31.5286 245.054 32.6094 246.226 33.7812C247.216 34.7708 247.71 35.9818 247.71 37.4141C247.71 39.224 246.916 40.7344 245.328 41.9453C243.96 43 242.287 43.5273 240.308 43.5273C239.8 43.5273 238.876 43.4427 237.535 43.2734C236.272 43.1302 235.562 43.0586 235.406 43.0586C235.236 43.0586 235.041 43.0781 234.82 43.1172C234.442 43.1693 234.169 43.1953 233.999 43.1953C233.387 43.1953 232.906 43.0391 232.554 42.7266C232.02 42.2448 231.525 41.4896 231.07 40.4609C230.614 39.4193 230.386 38.5273 230.386 37.7852C230.386 36.5872 230.855 35.9883 231.792 35.9883C232.157 35.9883 232.489 36.112 232.789 36.3594C233.101 36.5938 233.746 37.2318 234.722 38.2734C235.256 38.8464 235.699 39.2435 236.05 39.4648C236.402 39.6732 236.779 39.7773 237.183 39.7773C237.613 39.7773 237.958 39.6667 238.218 39.4453C238.479 39.2109 238.609 38.9049 238.609 38.5273C238.609 37.9414 238.108 37.4076 237.105 36.9258C235.009 35.8971 233.492 34.8359 232.554 33.7422C231.63 32.6484 231.167 31.3854 231.167 29.9531C231.167 28.4036 231.643 27.069 232.593 25.9492C233.947 24.3477 235.796 23.5469 238.14 23.5469ZM254.717 35.0703C255.85 35.0703 256.82 35.4935 257.628 36.3398C258.435 37.1732 258.839 38.1497 258.839 39.2695C258.839 40.4284 258.422 41.431 257.589 42.2773C256.755 43.1107 255.759 43.5273 254.6 43.5273C253.467 43.5273 252.497 43.1432 251.69 42.375C250.818 41.5417 250.381 40.513 250.381 39.2891C250.381 38.1562 250.766 37.1992 251.534 36.418C252.393 35.5195 253.454 35.0703 254.717 35.0703ZM254.62 16.6133C255.779 16.6133 256.762 17.0299 257.569 17.8633C258.65 18.957 259.19 20.5065 259.19 22.5117C259.19 23.8398 258.956 25.2721 258.487 26.8086C258.031 28.332 257.419 29.6927 256.651 30.8906C255.779 32.2448 255.075 32.9219 254.542 32.9219C254.021 32.9219 253.285 32.056 252.335 30.3242C251.631 29.0482 251.072 27.681 250.655 26.2227C250.251 24.7643 250.049 23.4297 250.049 22.2188C250.049 20.7344 250.381 19.4909 251.046 18.4883C251.866 17.2383 253.057 16.6133 254.62 16.6133Z" fill="white"/>
</svg>
