<svg width="474" height="64" viewBox="0 0 474 64" fill="none" xmlns="http://www.w3.org/2000/svg">
<rect x="4" width="465" height="60" rx="9" fill="#5D2ECF"/>
<path d="M42.1008 15.793C43.4419 15.793 45.1997 16.125 47.3742 16.7891C47.6346 16.8672 47.843 16.9062 47.9992 16.9062C48.1294 16.9062 48.5201 16.7891 49.1711 16.5547C49.3794 16.4766 49.6008 16.4375 49.8352 16.4375C50.7076 16.4375 51.6255 17.1276 52.5891 18.5078C53.5656 19.888 54.0539 21.2031 54.0539 22.4531C54.0539 23.1823 53.8326 23.8008 53.3898 24.3086C52.9602 24.8034 52.4328 25.0508 51.8078 25.0508C51.287 25.0508 50.8638 24.9466 50.5383 24.7383C50.2128 24.5299 49.4966 23.9115 48.3898 22.8828C46.8273 21.4245 45.2909 20.6953 43.7805 20.6953C43.0513 20.6953 42.4654 20.8711 42.0227 21.2227C41.593 21.5742 41.3781 22.0365 41.3781 22.6094C41.3781 23.7422 42.3742 24.5951 44.3664 25.168C47.0617 25.9622 48.787 26.5417 49.5422 26.9062C52.8625 28.5208 54.5227 30.8971 54.5227 34.0352C54.5227 36.8086 53.3898 39.0742 51.1242 40.832C48.8065 42.6289 45.7792 43.5273 42.0422 43.5273C40.3755 43.5273 38.6177 43.332 36.7688 42.9414C34.9198 42.5378 33.5852 42.069 32.7648 41.5352C32.1398 41.1185 31.5734 40.2135 31.0656 38.8203C30.5708 37.4141 30.3234 36.0469 30.3234 34.7188C30.3234 34.0807 30.4536 33.599 30.7141 33.2734C31.0396 32.8568 31.4497 32.6484 31.9445 32.6484C32.4393 32.6484 32.9146 32.9023 33.3703 33.4102C33.6438 33.6966 34.2883 34.6146 35.3039 36.1641C35.7857 36.8932 36.5474 37.4987 37.5891 37.9805C38.6438 38.4622 39.731 38.7031 40.8508 38.7031C41.8143 38.7031 42.5956 38.5273 43.1945 38.1758C43.7935 37.8112 44.093 37.349 44.093 36.7891C44.093 36.2682 43.8586 35.819 43.3898 35.4414C42.9211 35.0638 42.1594 34.7122 41.1047 34.3867C39.2427 33.8008 37.8234 33.2669 36.8469 32.7852C35.8703 32.2904 34.9589 31.6719 34.1125 30.9297C32.0552 29.1068 31.0266 27.0365 31.0266 24.7188C31.0266 23.5729 31.2935 22.4596 31.8273 21.3789C32.3612 20.2852 33.1164 19.3411 34.093 18.5469C36.2805 16.7109 38.9497 15.793 42.1008 15.793ZM66.7445 17.2969L66.4906 25.4805C66.4646 26.457 66.7641 26.9453 67.3891 26.9453C67.7016 26.9453 68.0076 26.7305 68.307 26.3008C69.5701 24.4648 71.2563 23.5469 73.3656 23.5469C75.4359 23.5469 77.0831 24.1784 78.307 25.4414C78.8539 26.0013 79.238 26.6654 79.4594 27.4336C79.6938 28.2018 79.824 29.3021 79.85 30.7344L80.0258 37.7852C80.0388 38.3971 80.1169 38.8464 80.2602 39.1328C80.4164 39.4193 80.768 39.7773 81.3148 40.207C81.6925 40.5065 81.8813 40.8646 81.8813 41.2812C81.8813 42.6875 79.7589 43.3906 75.5141 43.3906C71.738 43.3906 69.85 42.7331 69.85 41.418C69.85 41.1966 69.8826 41.0273 69.9477 40.9102C70.0128 40.793 70.2406 40.4805 70.6313 39.9727C71.1781 39.2565 71.4516 37.4661 71.4516 34.6016C71.4516 32.8698 71.2888 31.6068 70.9633 30.8125C70.5336 29.7318 69.7654 29.1914 68.6586 29.1914C67.8643 29.1914 67.2784 29.4779 66.9008 30.0508C66.6273 30.4674 66.4906 31.2487 66.4906 32.3945V36.1641C66.5818 37.8307 66.6599 38.7747 66.725 38.9961C66.7901 39.2174 67.0896 39.6276 67.6234 40.2266C67.8708 40.5 67.9945 40.819 67.9945 41.1836C67.9945 42.6549 66.0805 43.3906 62.2523 43.3906C57.7732 43.3906 55.5336 42.6289 55.5336 41.1055C55.5336 40.7539 55.6052 40.487 55.7484 40.3047C55.8917 40.1094 56.2432 39.8164 56.8031 39.4258C57.2979 39.0742 57.6365 38.1302 57.8188 36.5938C58.0141 35.0443 58.1117 32.4857 58.1117 28.918C58.1117 26.1185 58.0336 24.1784 57.8773 23.0977C57.8253 22.694 57.7276 22.401 57.5844 22.2188C57.4542 22.0234 57.2003 21.8281 56.8227 21.6328C56.0154 21.2161 55.6117 20.7344 55.6117 20.1875C55.6117 19.5365 55.9177 19.0091 56.5297 18.6055C57.1417 18.2018 58.3135 17.7656 60.0453 17.2969C62.3891 16.6458 64.2576 16.3203 65.6508 16.3203C66.406 16.3203 66.7706 16.6458 66.7445 17.2969ZM93.9859 23.5273C96.2516 23.5273 98.1721 24.1003 99.7477 25.2461C100.581 25.8581 101.16 26.5612 101.486 27.3555C101.824 28.1367 101.994 29.2174 101.994 30.5977L101.955 33.5078C101.955 35.526 102.098 36.8346 102.384 37.4336C102.528 37.7201 102.664 37.9023 102.795 37.9805C102.925 38.0586 103.198 38.1302 103.615 38.1953C104.032 38.2604 104.24 38.5339 104.24 39.0156C104.24 39.6406 103.986 40.2917 103.478 40.9688C102.983 41.6458 102.339 42.2122 101.545 42.668C100.568 43.2409 99.5458 43.5273 98.4781 43.5273C97.1109 43.5273 96.0302 43.0586 95.2359 42.1211C94.9625 41.7826 94.7086 41.6133 94.4742 41.6133C94.2138 41.6133 93.8688 41.776 93.4391 42.1016C92.137 43.0521 90.6591 43.5273 89.0055 43.5273C87.2997 43.5273 85.9195 43.1628 84.8648 42.4336C84.1747 41.9518 83.6279 41.3268 83.2242 40.5586C82.8206 39.7773 82.6188 38.9635 82.6188 38.1172C82.6188 36.763 83.1656 35.5651 84.2594 34.5234C85.9651 32.8828 88.5172 32.056 91.9156 32.043C92.6708 32.043 93.1461 31.9714 93.3414 31.8281C93.5367 31.6719 93.6344 31.3203 93.6344 30.7734C93.6344 29.3932 93.4911 28.3971 93.2047 27.7852C92.9182 27.1602 92.4495 26.8477 91.7984 26.8477C91.4078 26.8477 91.0563 26.9648 90.7438 27.1992C90.4443 27.4336 90.0667 27.8633 89.6109 28.4883C88.4521 30.1419 87.2411 30.9688 85.9781 30.9688C85.3401 30.9688 84.8193 30.7799 84.4156 30.4023C84.012 30.0247 83.8102 29.5299 83.8102 28.918C83.8102 28.293 84.0576 27.668 84.5523 27.043C85.0602 26.418 85.7438 25.8711 86.6031 25.4023C88.9599 24.1523 91.4208 23.5273 93.9859 23.5273ZM92.6773 34.8359C92.1044 34.8359 91.6031 35.0703 91.1734 35.5391C90.7568 36.0078 90.5484 36.5677 90.5484 37.2188C90.5484 37.8438 90.6982 38.3516 90.9977 38.7422C91.2971 39.1198 91.6943 39.3086 92.1891 39.3086C93.2307 39.3086 93.7516 38.4297 93.7516 36.6719C93.7516 35.9557 93.6734 35.474 93.5172 35.2266C93.374 34.9792 93.094 34.849 92.6773 34.8359ZM114.45 23.6641C115.14 23.6641 115.557 23.7617 115.7 23.957C115.856 24.1523 115.993 24.7773 116.11 25.832C116.175 26.4049 116.377 26.6914 116.716 26.6914C116.976 26.6914 117.223 26.5026 117.458 26.125C118.499 24.4974 119.86 23.6836 121.54 23.6836C122.725 23.6836 123.695 24.0677 124.45 24.8359C124.815 25.2135 125.114 25.7018 125.348 26.3008C125.583 26.8867 125.7 27.4531 125.7 28C125.7 28.612 125.557 29.2435 125.27 29.8945C124.984 30.5326 124.613 31.0599 124.157 31.4766C123.324 32.2708 122.302 32.668 121.091 32.668C120.427 32.668 119.867 32.5508 119.411 32.3164C118.968 32.082 118.382 31.6068 117.653 30.8906C117.38 30.6172 117.126 30.4805 116.891 30.4805C116.527 30.4805 116.286 30.6888 116.169 31.1055C116.065 31.5091 116.013 32.3685 116.013 33.6836C116.013 35.6497 116.084 36.9909 116.227 37.707C116.318 38.0977 116.442 38.3711 116.598 38.5273C116.768 38.6706 117.119 38.8203 117.653 38.9766C118.825 39.3281 119.411 39.9401 119.411 40.8125C119.411 41.3464 119.222 41.8151 118.845 42.2188C118.467 42.6094 117.966 42.8698 117.341 43C116.091 43.2604 114.255 43.3906 111.833 43.3906C109.528 43.3906 107.777 43.1888 106.579 42.7852C105.511 42.4206 104.977 41.7891 104.977 40.8906C104.977 40.2135 105.368 39.6081 106.149 39.0742C106.527 38.8268 106.787 38.6055 106.93 38.4102C107.074 38.2018 107.171 37.9219 107.223 37.5703C107.432 36.3854 107.536 34.1914 107.536 30.9883C107.536 30.4023 107.471 29.9857 107.341 29.7383C107.21 29.4779 106.95 29.2695 106.559 29.1133C105.635 28.7487 105.173 28.2214 105.173 27.5312C105.173 26.9062 105.492 26.3724 106.13 25.9297C106.768 25.474 107.835 25.0247 109.333 24.582C111.338 23.9831 113.044 23.6771 114.45 23.6641ZM144.152 34.25H134.973C134.569 34.25 134.367 34.4258 134.367 34.7773C134.367 35.6237 134.823 36.4245 135.734 37.1797C136.659 37.9219 137.648 38.293 138.703 38.293C139.328 38.293 140.018 38.1758 140.773 37.9414C141.542 37.694 142.173 37.3945 142.668 37.043C143.111 36.7305 143.462 36.5742 143.723 36.5742C144.061 36.5742 144.393 36.7826 144.719 37.1992C145.044 37.6159 145.207 38.0456 145.207 38.4883C145.207 39.4258 144.621 40.3307 143.449 41.2031C141.379 42.7526 138.99 43.5273 136.281 43.5273C133.547 43.5273 131.255 42.7331 129.406 41.1445C128.508 40.3633 127.766 39.4193 127.18 38.3125C126.411 36.8411 126.027 35.2917 126.027 33.6641C126.027 31.4766 126.691 29.5104 128.02 27.7656C129.165 26.2552 130.624 25.1289 132.395 24.3867C133.723 23.8268 135.161 23.5469 136.711 23.5469C139.185 23.5469 141.288 24.25 143.02 25.6562C143.892 26.3594 144.595 27.1927 145.129 28.1562C145.741 29.25 146.047 30.3177 146.047 31.3594C146.047 32.2057 145.871 32.9023 145.52 33.4492C145.168 33.9831 144.712 34.25 144.152 34.25ZM135.48 30.5977H137.453C138.286 30.5977 138.703 30.2135 138.703 29.4453C138.703 28.7422 138.501 28.1693 138.098 27.7266C137.694 27.2839 137.167 27.0625 136.516 27.0625C135.786 27.0625 135.214 27.349 134.797 27.9219C134.406 28.4557 134.211 28.9961 134.211 29.543C134.211 29.9336 134.302 30.207 134.484 30.3633C134.68 30.5195 135.012 30.5977 135.48 30.5977ZM175.53 33.1562L172.952 40.2461C172.314 42.0039 171.669 43.4362 171.018 44.543C170.38 45.6628 169.651 46.6133 168.83 47.3945C167.138 49.0091 165.1 49.8164 162.717 49.8164C160.79 49.8164 159.228 49.3086 158.03 48.293C157.105 47.5117 156.643 46.5156 156.643 45.3047C156.643 44.3021 156.962 43.4622 157.6 42.7852C158.251 42.0951 159.045 41.75 159.983 41.75C160.92 41.75 161.676 42.0625 162.248 42.6875C162.522 42.974 162.704 43.2279 162.795 43.4492C162.886 43.6706 163.023 44.1589 163.205 44.9141C163.349 45.487 163.674 45.7734 164.182 45.7734C164.586 45.7734 164.924 45.5977 165.198 45.2461C165.471 44.8945 165.608 44.4583 165.608 43.9375C165.608 43.3255 165.269 42.3034 164.592 40.8711L159.885 30.8516C159.39 29.8099 159.019 29.1589 158.772 28.8984C158.524 28.638 157.978 28.319 157.131 27.9414C156.871 27.8372 156.643 27.6354 156.448 27.3359C156.265 27.0234 156.174 26.724 156.174 26.4375C156.174 25.2786 157.327 24.4909 159.631 24.0742C161.168 23.8008 162.919 23.6641 164.885 23.6641C166.265 23.6641 167.353 23.8073 168.147 24.0938C169.215 24.4714 169.748 25.1159 169.748 26.0273C169.748 26.3529 169.599 26.737 169.299 27.1797C169.013 27.5964 168.87 27.9674 168.87 28.293C168.87 28.6055 168.935 28.931 169.065 29.2695C169.208 29.6081 169.501 30.181 169.944 30.9883C170.439 31.8997 170.875 32.3555 171.252 32.3555C171.656 32.3555 172.073 31.9583 172.502 31.1641C172.932 30.3568 173.147 29.582 173.147 28.8398C173.147 28.2409 172.984 27.7526 172.659 27.375C172.164 26.7891 171.916 26.2878 171.916 25.8711C171.916 25.207 172.359 24.6797 173.245 24.2891C174.13 23.8854 175.315 23.6836 176.799 23.6836C179.56 23.6836 180.94 24.3477 180.94 25.6758C180.94 26.1576 180.797 26.5482 180.51 26.8477C180.237 27.1341 179.729 27.4076 178.987 27.668C178.362 27.9023 177.867 28.293 177.502 28.8398C176.929 29.7122 176.272 31.151 175.53 33.1562ZM192.009 23.5273C194.392 23.5273 196.482 24.1458 198.279 25.3828C199.568 26.2682 200.603 27.4206 201.384 28.8398C202.192 30.3242 202.595 31.8737 202.595 33.4883C202.595 36.3138 201.3 38.7161 198.709 40.6953C196.235 42.5833 193.403 43.5273 190.213 43.5273C187.101 43.5273 184.581 42.6419 182.654 40.8711C180.779 39.1523 179.841 36.9128 179.841 34.1523C179.841 31.0794 180.987 28.5664 183.279 26.6133C185.675 24.556 188.585 23.5273 192.009 23.5273ZM190.447 28.0391C189.874 28.0391 189.412 28.2539 189.06 28.6836C188.722 29.1003 188.552 29.6602 188.552 30.3633C188.552 31.1445 188.696 32.2122 188.982 33.5664C189.282 34.9076 189.633 36.099 190.037 37.1406C190.44 38.2083 191.098 38.7422 192.009 38.7422C193.168 38.7422 193.748 38.0065 193.748 36.5352C193.748 35.4414 193.598 34.1979 193.298 32.8047C193.012 31.4115 192.66 30.2786 192.244 29.4062C191.814 28.5208 191.215 28.0651 190.447 28.0391ZM214.524 24.6602V35.2461C214.524 37.5117 215.273 38.6445 216.77 38.6445C217.148 38.6445 217.519 38.5404 217.884 38.332C218.248 38.1107 218.502 37.8438 218.645 37.5312C218.932 36.9062 219.075 35.513 219.075 33.3516C219.075 31.2161 219.003 29.7578 218.86 28.9766C218.808 28.651 218.717 28.4167 218.587 28.2734C218.457 28.1172 218.209 27.9414 217.845 27.7461C217.102 27.3555 216.731 26.8607 216.731 26.2617C216.731 25.4544 217.369 24.8945 218.645 24.582C221.067 23.9831 223.457 23.6836 225.813 23.6836C227.128 23.6836 227.786 24.3802 227.786 25.7734C227.786 25.9167 227.779 26.2096 227.766 26.6523C227.74 27.2773 227.721 28.0391 227.708 28.9375V37.5508C227.708 37.9935 228.085 38.3971 228.841 38.7617C229.479 39.0742 229.798 39.5299 229.798 40.1289C229.798 41.3008 228.411 42.2057 225.637 42.8438C224.01 43.2214 222.434 43.4102 220.911 43.4102C220.286 43.4102 219.856 43.3385 219.622 43.1953C219.401 43.0521 219.27 42.7721 219.231 42.3555C219.166 41.5482 218.919 41.1445 218.489 41.1445C218.333 41.1445 218.19 41.1836 218.059 41.2617C217.929 41.3268 217.532 41.5872 216.868 42.043C215.553 42.9414 214.14 43.3906 212.63 43.3906C210.13 43.3906 208.365 42.668 207.337 41.2227C206.464 40.0117 206.028 37.974 206.028 35.1094C206.028 34.0417 206.035 33.1302 206.048 32.375C206.048 31.9323 206.048 31.6328 206.048 31.4766C206.048 30.3568 205.943 29.5365 205.735 29.0156C205.54 28.4818 205.175 28.0651 204.641 27.7656C204.134 27.5052 203.808 27.2969 203.665 27.1406C203.535 26.9844 203.47 26.7695 203.47 26.4961C203.47 25.5065 204.218 24.849 205.716 24.5234C208.268 23.9635 210.82 23.6836 213.372 23.6836C214.14 23.6836 214.524 24.0091 214.524 24.6602ZM239.852 23.6641C240.542 23.6641 240.958 23.7617 241.102 23.957C241.258 24.1523 241.395 24.7773 241.512 25.832C241.577 26.4049 241.779 26.6914 242.117 26.6914C242.378 26.6914 242.625 26.5026 242.859 26.125C243.901 24.4974 245.262 23.6836 246.941 23.6836C248.126 23.6836 249.096 24.0677 249.852 24.8359C250.216 25.2135 250.516 25.7018 250.75 26.3008C250.984 26.8867 251.102 27.4531 251.102 28C251.102 28.612 250.958 29.2435 250.672 29.8945C250.385 30.5326 250.014 31.0599 249.559 31.4766C248.725 32.2708 247.703 32.668 246.492 32.668C245.828 32.668 245.268 32.5508 244.812 32.3164C244.37 32.082 243.784 31.6068 243.055 30.8906C242.781 30.6172 242.527 30.4805 242.293 30.4805C241.928 30.4805 241.688 30.6888 241.57 31.1055C241.466 31.5091 241.414 32.3685 241.414 33.6836C241.414 35.6497 241.486 36.9909 241.629 37.707C241.72 38.0977 241.844 38.3711 242 38.5273C242.169 38.6706 242.521 38.8203 243.055 38.9766C244.227 39.3281 244.812 39.9401 244.812 40.8125C244.812 41.3464 244.624 41.8151 244.246 42.2188C243.868 42.6094 243.367 42.8698 242.742 43C241.492 43.2604 239.656 43.3906 237.234 43.3906C234.93 43.3906 233.178 43.1888 231.98 42.7852C230.913 42.4206 230.379 41.7891 230.379 40.8906C230.379 40.2135 230.77 39.6081 231.551 39.0742C231.928 38.8268 232.189 38.6055 232.332 38.4102C232.475 38.2018 232.573 37.9219 232.625 37.5703C232.833 36.3854 232.938 34.1914 232.938 30.9883C232.938 30.4023 232.872 29.9857 232.742 29.7383C232.612 29.4779 232.352 29.2695 231.961 29.1133C231.036 28.7487 230.574 28.2214 230.574 27.5312C230.574 26.9062 230.893 26.3724 231.531 25.9297C232.169 25.474 233.237 25.0247 234.734 24.582C236.74 23.9831 238.445 23.6771 239.852 23.6641ZM273.338 28.6641V35.2656C273.338 36.0469 273.527 36.6849 273.905 37.1797C274.295 37.6745 274.79 37.9219 275.389 37.9219C275.897 37.9219 276.567 37.6875 277.401 37.2188C277.596 37.1016 277.791 37.043 277.987 37.043C278.299 37.043 278.586 37.2318 278.846 37.6094C279.107 37.987 279.237 38.3971 279.237 38.8398C279.237 39.6471 278.794 40.4219 277.909 41.1641C276.06 42.7396 273.82 43.5273 271.19 43.5273C269.107 43.5273 267.433 42.9414 266.17 41.7695C264.907 40.5846 264.276 39.0286 264.276 37.1016V28.0781C264.276 27.7786 264.237 27.5964 264.159 27.5312C264.093 27.4531 263.911 27.4141 263.612 27.4141H261.6C261.222 27.4141 260.982 27.3555 260.877 27.2383C260.773 27.1081 260.721 26.8151 260.721 26.3594V25.5C260.734 25.1094 260.884 24.8229 261.17 24.6406L270.116 19.0156C270.337 18.8984 270.61 18.8398 270.936 18.8398H272.518C272.843 18.8398 273.058 18.918 273.163 19.0742C273.28 19.2174 273.338 19.5104 273.338 19.9531V22.5898C273.338 22.9805 273.397 23.2344 273.514 23.3516C273.644 23.4688 273.911 23.5273 274.315 23.5273H277.928C278.41 23.5273 278.722 23.6185 278.866 23.8008C279.009 23.9701 279.08 24.3411 279.08 24.9141V26.0664C279.08 26.6914 278.989 27.1276 278.807 27.375C278.625 27.6094 278.293 27.7266 277.811 27.7266H274.276C273.911 27.7266 273.664 27.7917 273.534 27.9219C273.403 28.0521 273.338 28.2995 273.338 28.6641ZM291.068 17.2969L290.814 25.4805C290.788 26.457 291.088 26.9453 291.713 26.9453C292.025 26.9453 292.331 26.7305 292.63 26.3008C293.894 24.4648 295.58 23.5469 297.689 23.5469C299.759 23.5469 301.407 24.1784 302.63 25.4414C303.177 26.0013 303.561 26.6654 303.783 27.4336C304.017 28.2018 304.147 29.3021 304.173 30.7344L304.349 37.7852C304.362 38.3971 304.44 38.8464 304.584 39.1328C304.74 39.4193 305.091 39.7773 305.638 40.207C306.016 40.5065 306.205 40.8646 306.205 41.2812C306.205 42.6875 304.082 43.3906 299.838 43.3906C296.061 43.3906 294.173 42.7331 294.173 41.418C294.173 41.1966 294.206 41.0273 294.271 40.9102C294.336 40.793 294.564 40.4805 294.955 39.9727C295.502 39.2565 295.775 37.4661 295.775 34.6016C295.775 32.8698 295.612 31.6068 295.287 30.8125C294.857 29.7318 294.089 29.1914 292.982 29.1914C292.188 29.1914 291.602 29.4779 291.224 30.0508C290.951 30.4674 290.814 31.2487 290.814 32.3945V36.1641C290.905 37.8307 290.983 38.7747 291.048 38.9961C291.114 39.2174 291.413 39.6276 291.947 40.2266C292.194 40.5 292.318 40.819 292.318 41.1836C292.318 42.6549 290.404 43.3906 286.576 43.3906C282.097 43.3906 279.857 42.6289 279.857 41.1055C279.857 40.7539 279.929 40.487 280.072 40.3047C280.215 40.1094 280.567 39.8164 281.127 39.4258C281.621 39.0742 281.96 38.1302 282.142 36.5938C282.338 35.0443 282.435 32.4857 282.435 28.918C282.435 26.1185 282.357 24.1784 282.201 23.0977C282.149 22.694 282.051 22.401 281.908 22.2188C281.778 22.0234 281.524 21.8281 281.146 21.6328C280.339 21.2161 279.935 20.7344 279.935 20.1875C279.935 19.5365 280.241 19.0091 280.853 18.6055C281.465 18.2018 282.637 17.7656 284.369 17.2969C286.713 16.6458 288.581 16.3203 289.974 16.3203C290.729 16.3203 291.094 16.6458 291.068 17.2969ZM319.247 23.5273C321.63 23.5273 323.72 24.1458 325.516 25.3828C326.805 26.2682 327.841 27.4206 328.622 28.8398C329.429 30.3242 329.833 31.8737 329.833 33.4883C329.833 36.3138 328.537 38.7161 325.946 40.6953C323.472 42.5833 320.64 43.5273 317.45 43.5273C314.338 43.5273 311.819 42.6419 309.891 40.8711C308.016 39.1523 307.079 36.9128 307.079 34.1523C307.079 31.0794 308.225 28.5664 310.516 26.6133C312.912 24.556 315.822 23.5273 319.247 23.5273ZM317.684 28.0391C317.111 28.0391 316.649 28.2539 316.298 28.6836C315.959 29.1003 315.79 29.6602 315.79 30.3633C315.79 31.1445 315.933 32.2122 316.22 33.5664C316.519 34.9076 316.871 36.099 317.274 37.1406C317.678 38.2083 318.335 38.7422 319.247 38.7422C320.406 38.7422 320.985 38.0065 320.985 36.5352C320.985 35.4414 320.835 34.1979 320.536 32.8047C320.249 31.4115 319.898 30.2786 319.481 29.4062C319.052 28.5208 318.453 28.0651 317.684 28.0391ZM341.762 24.6602V35.2461C341.762 37.5117 342.51 38.6445 344.008 38.6445C344.385 38.6445 344.757 38.5404 345.121 38.332C345.486 38.1107 345.74 37.8438 345.883 37.5312C346.169 36.9062 346.312 35.513 346.312 33.3516C346.312 31.2161 346.241 29.7578 346.098 28.9766C346.046 28.651 345.954 28.4167 345.824 28.2734C345.694 28.1172 345.447 27.9414 345.082 27.7461C344.34 27.3555 343.969 26.8607 343.969 26.2617C343.969 25.4544 344.607 24.8945 345.883 24.582C348.305 23.9831 350.694 23.6836 353.051 23.6836C354.366 23.6836 355.023 24.3802 355.023 25.7734C355.023 25.9167 355.017 26.2096 355.004 26.6523C354.978 27.2773 354.958 28.0391 354.945 28.9375V37.5508C354.945 37.9935 355.323 38.3971 356.078 38.7617C356.716 39.0742 357.035 39.5299 357.035 40.1289C357.035 41.3008 355.648 42.2057 352.875 42.8438C351.247 43.2214 349.672 43.4102 348.148 43.4102C347.523 43.4102 347.094 43.3385 346.859 43.1953C346.638 43.0521 346.508 42.7721 346.469 42.3555C346.404 41.5482 346.156 41.1445 345.727 41.1445C345.57 41.1445 345.427 41.1836 345.297 41.2617C345.167 41.3268 344.77 41.5872 344.105 42.043C342.79 42.9414 341.378 43.3906 339.867 43.3906C337.367 43.3906 335.603 42.668 334.574 41.2227C333.702 40.0117 333.266 37.974 333.266 35.1094C333.266 34.0417 333.272 33.1302 333.285 32.375C333.285 31.9323 333.285 31.6328 333.285 31.4766C333.285 30.3568 333.181 29.5365 332.973 29.0156C332.777 28.4818 332.413 28.0651 331.879 27.7656C331.371 27.5052 331.046 27.2969 330.902 27.1406C330.772 26.9844 330.707 26.7695 330.707 26.4961C330.707 25.5065 331.456 24.849 332.953 24.5234C335.505 23.9635 338.057 23.6836 340.609 23.6836C341.378 23.6836 341.762 24.0091 341.762 24.6602ZM378.73 22.4922C379.055 22.4922 379.342 22.681 379.589 23.0586C379.836 23.4232 379.96 23.8529 379.96 24.3477C379.96 24.8815 379.791 25.487 379.452 26.1641C379.127 26.8411 378.73 27.3815 378.261 27.7852C377.961 28.0456 377.812 28.2539 377.812 28.4102C377.812 28.4492 377.825 28.6055 377.851 28.8789C377.89 29.1523 377.909 29.3997 377.909 29.6211C377.909 31.1706 377.389 32.4727 376.347 33.5273C375.409 34.4648 374.198 35.194 372.714 35.7148C371.243 36.2357 369.622 36.4961 367.851 36.4961C367.421 36.4961 366.998 36.4701 366.581 36.418C366.243 36.3789 365.982 36.3594 365.8 36.3594C365.11 36.3594 364.765 36.7044 364.765 37.3945C364.765 37.8372 364.986 38.1888 365.429 38.4492C365.885 38.6966 366.497 38.8203 367.265 38.8203C367.786 38.8203 368.554 38.7487 369.57 38.6055C371.705 38.306 373.28 38.1562 374.296 38.1562C375.833 38.1562 377.024 38.4102 377.87 38.918C378.547 39.3086 379.081 39.8555 379.472 40.5586C379.876 41.2617 380.077 42.0169 380.077 42.8242C380.077 44.1393 379.596 45.4154 378.632 46.6523C377.486 48.1107 375.8 49.1914 373.573 49.8945C371.829 50.4414 369.81 50.7148 367.519 50.7148C364.628 50.7148 362.284 50.2721 360.487 49.3867C359.654 48.9701 358.99 48.4232 358.495 47.7461C358.001 47.069 357.753 46.3659 357.753 45.6367C357.753 45.1289 357.89 44.6602 358.163 44.2305C358.45 43.8008 358.808 43.4948 359.237 43.3125C359.628 43.1562 359.823 42.987 359.823 42.8047C359.823 42.6615 359.661 42.4531 359.335 42.1797C358.293 41.3073 357.773 40.4023 357.773 39.4648C357.773 38.8398 358.02 38.1953 358.515 37.5312C359.023 36.8672 359.648 36.3529 360.39 35.9883C360.702 35.832 360.859 35.6758 360.859 35.5195C360.859 35.3372 360.663 35.0638 360.273 34.6992C358.931 33.4622 358.261 32.0169 358.261 30.3633C358.261 29.4909 358.495 28.6576 358.964 27.8633C359.446 27.069 360.11 26.3919 360.956 25.832C363.053 24.4648 365.377 23.7812 367.929 23.7812C368.945 23.7812 370.077 23.9115 371.327 24.1719C372.512 24.4062 373.326 24.5234 373.769 24.5234C375.188 24.5234 376.601 23.9635 378.007 22.8438C378.32 22.6094 378.56 22.4922 378.73 22.4922ZM368.124 26.5352C367.473 26.5352 366.946 26.7826 366.542 27.2773C366.152 27.7721 365.956 28.4297 365.956 29.25C365.956 30.6562 366.171 31.7826 366.601 32.6289C367.03 33.4753 367.597 33.8984 368.3 33.8984C368.99 33.8984 369.537 33.638 369.941 33.1172C370.344 32.5833 370.546 31.8737 370.546 30.9883C370.546 29.5951 370.331 28.5143 369.902 27.7461C369.485 26.9648 368.892 26.5612 368.124 26.5352ZM363.866 44.3086C363.541 44.3086 363.378 44.4974 363.378 44.875C363.378 45.6432 363.795 46.2617 364.628 46.7305C365.461 47.2122 366.542 47.4531 367.87 47.4531C369.146 47.4531 370.142 47.2839 370.859 46.9453C371.588 46.6068 371.952 46.1315 371.952 45.5195C371.952 45.194 371.816 44.9141 371.542 44.6797C371.269 44.4583 370.93 44.3477 370.527 44.3477C370.318 44.3477 370.019 44.3737 369.628 44.4258C368.899 44.543 368.085 44.6016 367.187 44.6016C366.523 44.6016 365.885 44.569 365.273 44.5039C364.817 44.4648 364.446 44.4128 364.159 44.3477C364.029 44.3216 363.931 44.3086 363.866 44.3086ZM391.752 17.2969L391.498 25.4805C391.472 26.457 391.772 26.9453 392.397 26.9453C392.709 26.9453 393.015 26.7305 393.315 26.3008C394.578 24.4648 396.264 23.5469 398.373 23.5469C400.444 23.5469 402.091 24.1784 403.315 25.4414C403.862 26.0013 404.246 26.6654 404.467 27.4336C404.702 28.2018 404.832 29.3021 404.858 30.7344L405.034 37.7852C405.047 38.3971 405.125 38.8464 405.268 39.1328C405.424 39.4193 405.776 39.7773 406.323 40.207C406.7 40.5065 406.889 40.8646 406.889 41.2812C406.889 42.6875 404.767 43.3906 400.522 43.3906C396.746 43.3906 394.858 42.7331 394.858 41.418C394.858 41.1966 394.89 41.0273 394.955 40.9102C395.021 40.793 395.248 40.4805 395.639 39.9727C396.186 39.2565 396.459 37.4661 396.459 34.6016C396.459 32.8698 396.297 31.6068 395.971 30.8125C395.541 29.7318 394.773 29.1914 393.666 29.1914C392.872 29.1914 392.286 29.4779 391.909 30.0508C391.635 30.4674 391.498 31.2487 391.498 32.3945V36.1641C391.59 37.8307 391.668 38.7747 391.733 38.9961C391.798 39.2174 392.097 39.6276 392.631 40.2266C392.879 40.5 393.002 40.819 393.002 41.1836C393.002 42.6549 391.088 43.3906 387.26 43.3906C382.781 43.3906 380.541 42.6289 380.541 41.1055C380.541 40.7539 380.613 40.487 380.756 40.3047C380.899 40.1094 381.251 39.8164 381.811 39.4258C382.306 39.0742 382.644 38.1302 382.827 36.5938C383.022 35.0443 383.12 32.4857 383.12 28.918C383.12 26.1185 383.041 24.1784 382.885 23.0977C382.833 22.694 382.735 22.401 382.592 22.2188C382.462 22.0234 382.208 21.8281 381.83 21.6328C381.023 21.2161 380.62 20.7344 380.62 20.1875C380.62 19.5365 380.925 19.0091 381.537 18.6055C382.149 18.2018 383.321 17.7656 385.053 17.2969C387.397 16.6458 389.265 16.3203 390.659 16.3203C391.414 16.3203 391.778 16.6458 391.752 17.2969ZM419.443 28.6641V35.2656C419.443 36.0469 419.632 36.6849 420.009 37.1797C420.4 37.6745 420.895 37.9219 421.494 37.9219C422.002 37.9219 422.672 37.6875 423.505 37.2188C423.701 37.1016 423.896 37.043 424.091 37.043C424.404 37.043 424.69 37.2318 424.951 37.6094C425.211 37.987 425.341 38.3971 425.341 38.8398C425.341 39.6471 424.899 40.4219 424.013 41.1641C422.164 42.7396 419.925 43.5273 417.295 43.5273C415.211 43.5273 413.538 42.9414 412.275 41.7695C411.012 40.5846 410.38 39.0286 410.38 37.1016V28.0781C410.38 27.7786 410.341 27.5964 410.263 27.5312C410.198 27.4531 410.016 27.4141 409.716 27.4141H407.705C407.327 27.4141 407.086 27.3555 406.982 27.2383C406.878 27.1081 406.826 26.8151 406.826 26.3594V25.5C406.839 25.1094 406.989 24.8229 407.275 24.6406L416.22 19.0156C416.442 18.8984 416.715 18.8398 417.041 18.8398H418.623C418.948 18.8398 419.163 18.918 419.267 19.0742C419.384 19.2174 419.443 19.5104 419.443 19.9531V22.5898C419.443 22.9805 419.502 23.2344 419.619 23.3516C419.749 23.4688 420.016 23.5273 420.42 23.5273H424.033C424.515 23.5273 424.827 23.6185 424.97 23.8008C425.114 23.9701 425.185 24.3411 425.185 24.9141V26.0664C425.185 26.6914 425.094 27.1276 424.912 27.375C424.729 27.6094 424.397 27.7266 423.916 27.7266H420.38C420.016 27.7266 419.769 27.7917 419.638 27.9219C419.508 28.0521 419.443 28.2995 419.443 28.6641ZM433.97 23.5469C434.621 23.5469 435.682 23.6901 437.153 23.9766C437.453 24.0286 437.7 24.0547 437.895 24.0547C438.117 24.0547 438.546 23.9375 439.184 23.7031C439.484 23.5859 439.738 23.5273 439.946 23.5273C440.545 23.5273 441.151 23.9115 441.763 24.6797C442.257 25.2917 442.661 25.9622 442.973 26.6914C443.286 27.4206 443.442 28.0521 443.442 28.5859C443.442 29.1068 443.26 29.543 442.895 29.8945C442.531 30.2331 442.075 30.4023 441.528 30.4023C441.072 30.4023 440.662 30.2917 440.298 30.0703C439.946 29.849 439.373 29.3607 438.579 28.6055C437.746 27.7982 437.055 27.3945 436.509 27.3945C436.144 27.3945 435.825 27.5312 435.552 27.8047C435.291 28.0651 435.161 28.3776 435.161 28.7422C435.161 29.3802 435.773 29.9792 436.997 30.5391C439.197 31.5286 440.884 32.6094 442.055 33.7812C443.045 34.7708 443.54 35.9818 443.54 37.4141C443.54 39.224 442.746 40.7344 441.157 41.9453C439.79 43 438.117 43.5273 436.138 43.5273C435.63 43.5273 434.705 43.4427 433.364 43.2734C432.101 43.1302 431.391 43.0586 431.235 43.0586C431.066 43.0586 430.871 43.0781 430.649 43.1172C430.272 43.1693 429.998 43.1953 429.829 43.1953C429.217 43.1953 428.735 43.0391 428.384 42.7266C427.85 42.2448 427.355 41.4896 426.899 40.4609C426.444 39.4193 426.216 38.5273 426.216 37.7852C426.216 36.5872 426.684 35.9883 427.622 35.9883C427.986 35.9883 428.319 36.112 428.618 36.3594C428.93 36.5938 429.575 37.2318 430.552 38.2734C431.085 38.8464 431.528 39.2435 431.88 39.4648C432.231 39.6732 432.609 39.7773 433.013 39.7773C433.442 39.7773 433.787 39.6667 434.048 39.4453C434.308 39.2109 434.438 38.9049 434.438 38.5273C434.438 37.9414 433.937 37.4076 432.934 36.9258C430.838 35.8971 429.321 34.8359 428.384 33.7422C427.459 32.6484 426.997 31.3854 426.997 29.9531C426.997 28.4036 427.472 27.069 428.423 25.9492C429.777 24.3477 431.626 23.5469 433.97 23.5469Z" fill="white"/>
</svg>
