<svg width="579" height="86" viewBox="0 0 579 86" fill="none" xmlns="http://www.w3.org/2000/svg">
<rect width="579" height="86" rx="17" fill="#5D2ECF"/>
<path d="M36.4106 20.334C38.8598 20.334 41.1694 20.5488 43.3393 20.9785C46.2612 21.5586 47.7221 22.7939 47.7221 24.6846C47.7221 25.3076 47.5717 25.7803 47.271 26.1025C46.9917 26.4033 46.2612 26.8545 45.0796 27.4561C44.0913 27.9502 43.436 29.0352 43.1137 30.7109C42.813 32.3867 42.6626 35.6523 42.6626 40.5078C42.6626 48.7148 42.8667 53.7959 43.2749 55.751C43.4253 56.374 43.6508 56.8574 43.9516 57.2012C44.2739 57.5234 44.8217 57.8779 45.5952 58.2646C47.0132 58.9092 47.7221 59.8438 47.7221 61.0684C47.7221 62.7871 46.4116 63.9688 43.7905 64.6133C40.9546 65.3008 37.4848 65.6445 33.3813 65.6445C26.3774 65.6445 22.8755 64.3125 22.8755 61.6484C22.8755 60.6816 23.563 59.7793 24.938 58.9414C25.9907 58.2969 26.6137 57.416 26.8071 56.2988C27.2153 53.8496 27.4194 48.6504 27.4194 40.7012C27.4194 35.2012 27.1401 31.6777 26.5815 30.1309C26.2807 29.25 25.561 28.4551 24.4223 27.7461C23.5415 27.166 22.9507 26.6826 22.6499 26.2959C22.3491 25.9092 22.1987 25.415 22.1987 24.8135C22.1987 23.8896 22.6391 23.1592 23.52 22.6221C24.4223 22.0635 26.0014 21.5693 28.2573 21.1396C30.9428 20.6025 33.6606 20.334 36.4106 20.334ZM63.3765 21.0107H80.3599C82.1861 20.9463 83.8511 20.6992 85.355 20.2695C85.9996 20.0977 86.5689 20.0117 87.063 20.0117C88.8033 20.0117 90.4898 21.3008 92.1226 23.8789C93.7769 26.457 94.6041 29.1104 94.6041 31.8389C94.6041 33.708 94.0347 35.0723 92.896 35.9316C92.0367 36.5762 91.0054 36.8984 89.8023 36.8984C88.6636 36.8984 87.6753 36.5869 86.8375 35.9639C85.9996 35.3193 85.1724 34.2666 84.356 32.8057C83.647 31.4736 83.0884 30.6035 82.6802 30.1953C82.272 29.7871 81.7779 29.583 81.1978 29.583C80.4029 29.583 79.8335 29.916 79.4898 30.582C79.146 31.248 78.9742 32.3438 78.9742 33.8691V51.916C78.9742 53.7637 79.1675 55.1064 79.5542 55.9443C79.941 56.7822 80.6714 57.4268 81.7457 57.8779C82.9058 58.3721 83.69 58.8447 84.0982 59.2959C84.5279 59.7256 84.7427 60.3271 84.7427 61.1006C84.7427 62.6475 83.69 63.7969 81.5845 64.5488C79.5005 65.3008 76.2886 65.6768 71.9488 65.6768C66.6207 65.6768 62.6675 65.2363 60.0894 64.3555C57.9195 63.625 56.8345 62.4434 56.8345 60.8105C56.8345 59.9297 57.2212 59.2422 57.9947 58.748C58.188 58.6406 58.9507 58.3828 60.2828 57.9746C61.0992 57.7383 61.6578 57.2871 61.9585 56.6211C62.2808 55.9551 62.5386 54.6768 62.732 52.7861C62.9039 51.1104 63.065 48.4033 63.2154 44.665C63.3658 40.9053 63.441 37.6504 63.441 34.9004C63.441 32.9668 63.2906 31.5918 62.9898 30.7754C62.689 29.959 62.1949 29.5508 61.5074 29.5508C60.6695 29.5508 59.8531 30.1523 59.0582 31.3555C57.6187 33.5469 56.4371 34.9971 55.5132 35.7061C54.4175 36.5439 53.3541 36.9629 52.3228 36.9629C51.1626 36.9629 50.2066 36.5332 49.4546 35.6738C48.7027 34.793 48.3267 33.6758 48.3267 32.3223C48.3267 30.9902 48.6275 29.5293 49.2291 27.9395C49.8306 26.3281 50.6363 24.8457 51.646 23.4922C53.2789 21.3008 54.8902 20.2051 56.48 20.2051C56.9097 20.2051 57.4039 20.2695 57.9625 20.3984C59.1226 20.6348 60.0679 20.7959 60.7984 20.8818C61.5503 20.9678 62.4097 21.0107 63.3765 21.0107ZM103.749 20.1406C106.026 20.1406 107.895 21.0322 109.356 22.8154C110.645 24.3838 111.29 26.2529 111.29 28.4229C111.29 31.001 110.624 33.6328 109.292 36.3184C107.981 38.9824 106.144 41.4316 103.781 43.666C102.47 44.8906 101.246 45.5029 100.107 45.5029C99.3336 45.5029 98.6354 45.2988 98.0123 44.8906C97.4108 44.4609 97.11 43.9775 97.11 43.4404C97.11 43.1182 97.3248 42.7529 97.7545 42.3447C99.1295 40.9268 100.086 39.7559 100.623 38.832C101.181 37.8867 101.461 36.9307 101.461 35.9639C101.461 35.2764 101.095 34.6641 100.365 34.127C99.0114 33.0527 98.0446 32.0215 97.4645 31.0332C96.9059 30.0449 96.6266 28.874 96.6266 27.5205C96.6266 25.3936 97.2926 23.6426 98.6246 22.2676C99.9781 20.8711 101.686 20.1621 103.749 20.1406ZM134.55 20.1084C136.762 20.1084 139.663 20.6562 143.251 21.752C143.68 21.8809 144.024 21.9453 144.282 21.9453C144.497 21.9453 145.141 21.752 146.216 21.3652C146.559 21.2363 146.925 21.1719 147.311 21.1719C148.751 21.1719 150.265 22.3105 151.855 24.5879C153.467 26.8652 154.272 29.0352 154.272 31.0977C154.272 32.3008 153.907 33.3213 153.176 34.1592C152.467 34.9756 151.597 35.3838 150.566 35.3838C149.707 35.3838 149.009 35.2119 148.471 34.8682C147.934 34.5244 146.753 33.5039 144.926 31.8066C142.348 29.4004 139.813 28.1973 137.321 28.1973C136.118 28.1973 135.151 28.4873 134.421 29.0674C133.712 29.6475 133.357 30.4102 133.357 31.3555C133.357 33.2246 135.001 34.6318 138.288 35.5771C142.735 36.8877 145.582 37.8438 146.828 38.4453C152.306 41.1094 155.046 45.0303 155.046 50.208C155.046 54.7842 153.176 58.5225 149.438 61.4229C145.614 64.3877 140.619 65.8701 134.453 65.8701C131.703 65.8701 128.802 65.5479 125.752 64.9033C122.701 64.2373 120.499 63.4639 119.145 62.583C118.114 61.8955 117.179 60.4023 116.342 58.1035C115.525 55.7832 115.117 53.5273 115.117 51.3359C115.117 50.2832 115.332 49.4883 115.761 48.9512C116.299 48.2637 116.975 47.9199 117.792 47.9199C118.608 47.9199 119.392 48.3389 120.144 49.1768C120.595 49.6494 121.659 51.1641 123.335 53.7207C124.13 54.9238 125.386 55.9229 127.105 56.7178C128.845 57.5127 130.639 57.9102 132.487 57.9102C134.077 57.9102 135.366 57.6201 136.354 57.04C137.342 56.4385 137.837 55.6758 137.837 54.752C137.837 53.8926 137.45 53.1514 136.676 52.5283C135.903 51.9053 134.646 51.3252 132.906 50.7881C129.834 49.8213 127.492 48.9404 125.881 48.1455C124.269 47.3291 122.765 46.3086 121.369 45.084C117.974 42.0762 116.277 38.6602 116.277 34.8359C116.277 32.9453 116.717 31.1084 117.598 29.3252C118.479 27.5205 119.725 25.9629 121.337 24.6523C124.946 21.623 129.35 20.1084 134.55 20.1084ZM198.278 20.1084C203.8 20.1084 208.623 21.6875 212.748 24.8457C215.541 27.0156 217.807 29.8301 219.548 33.2891C221.245 36.7266 222.094 40.1641 222.094 43.6016C222.094 48.6719 220.418 53.2051 217.066 57.2012C214.23 60.5957 210.524 63.0342 205.948 64.5166C203.134 65.4189 200.308 65.8701 197.473 65.8701C193.756 65.8701 190.2 65.0967 186.806 63.5498C182.702 61.6807 179.49 58.8555 177.17 55.0742C174.914 51.4219 173.786 47.3936 173.786 42.9893C173.786 37.876 175.236 33.3643 178.137 29.4541C180.715 25.9736 184.184 23.417 188.546 21.7842C191.468 20.667 194.712 20.1084 198.278 20.1084ZM195.217 29.3574C193.412 29.3574 191.983 30.1631 190.931 31.7744C190.114 32.9775 189.706 34.4062 189.706 36.0605C189.706 38.4883 190.2 41.3027 191.188 44.5039C192.177 47.6836 193.423 50.5088 194.927 52.9795C195.593 54.0322 196.409 54.8701 197.376 55.4932C198.364 56.1162 199.363 56.4277 200.373 56.4277C202.006 56.4277 203.316 55.8154 204.305 54.5908C205.314 53.3662 205.819 51.7549 205.819 49.7568C205.819 47.1572 205.4 44.3535 204.562 41.3457C203.724 38.3379 202.64 35.7705 201.307 33.6436C200.491 32.333 199.546 31.3018 198.472 30.5498C197.397 29.7979 196.312 29.4004 195.217 29.3574ZM261.821 29.8086L258.373 33.1279C257.105 34.3311 256.472 35.4268 256.472 36.415C256.472 36.9521 256.611 37.4893 256.891 38.0264C257.191 38.5635 257.739 39.2939 258.534 40.2178L270.587 54.1719C271.661 55.418 272.402 56.2129 272.811 56.5566C273.219 56.8789 273.831 57.2227 274.647 57.5879C275.808 58.082 276.624 58.6299 277.097 59.2314C277.591 59.833 277.838 60.6172 277.838 61.584C277.838 63.8613 276.216 65 272.972 65H260.758C259.92 65 259.254 64.8174 258.76 64.4521C258.287 64.0869 257.524 63.1846 256.472 61.7451C254.796 59.4463 252.583 56.8037 249.833 53.8174C248.63 52.5283 247.781 51.6904 247.287 51.3037C246.814 50.8955 246.374 50.6914 245.966 50.6914C244.72 50.6914 244.097 51.8623 244.097 54.2041C244.097 56.1162 244.505 57.4375 245.321 58.168C245.472 58.2754 245.815 58.5117 246.352 58.877C247.513 59.6289 248.093 60.5635 248.093 61.6807C248.093 63.0986 247.147 64.1191 245.257 64.7422C243.366 65.3438 240.186 65.6445 235.718 65.6445C231.743 65.6445 228.843 65.4082 227.017 64.9355C226.243 64.7207 225.609 64.334 225.115 63.7754C224.643 63.1953 224.406 62.5508 224.406 61.8418C224.406 60.7031 225.051 59.7256 226.34 58.9092C226.92 58.5225 227.328 58.1035 227.564 57.6523C227.822 57.1797 228.059 56.3955 228.273 55.2998C228.703 52.8721 228.918 49.1338 228.918 44.085C228.918 38.0693 228.692 33.8047 228.241 31.291C228.069 30.2598 227.833 29.5186 227.532 29.0674C227.231 28.6162 226.705 28.1758 225.953 27.7461C224.75 27.0586 224.148 26.1025 224.148 24.8779C224.148 23.8467 224.524 23.0195 225.276 22.3965C226.028 21.7734 227.231 21.3008 228.886 20.9785C231.077 20.5488 233.827 20.334 237.136 20.334C240.509 20.334 243.012 20.6562 244.644 21.3008C246.105 21.9023 246.836 22.9766 246.836 24.5234C246.836 25.168 246.718 25.6729 246.481 26.0381C246.267 26.3818 245.686 26.9297 244.741 27.6816C244.397 27.9824 244.075 28.7021 243.774 29.8408C243.495 30.9795 243.355 32.0967 243.355 33.1924C243.355 34.9971 243.764 35.8994 244.58 35.8994C245.074 35.8994 245.547 35.6846 245.998 35.2549C246.471 34.8252 247.405 33.751 248.802 32.0322C250.413 30.0342 251.219 28.6699 251.219 27.9395C251.219 27.5527 251.015 26.9727 250.606 26.1992C250.327 25.6621 250.187 25.168 250.187 24.7168C250.187 23.127 251.047 22.0098 252.766 21.3652C254.484 20.6992 257.417 20.3662 261.563 20.3662C264.872 20.3662 267.321 20.5811 268.911 21.0107C270.866 21.5479 271.844 22.6865 271.844 24.4268C271.844 25.1143 271.64 25.7588 271.231 26.3604C270.823 26.9404 270.318 27.3164 269.717 27.4883C269.266 27.6387 268.224 27.7246 266.591 27.7461C265.452 27.7676 264.593 27.9072 264.013 28.165C263.454 28.4014 262.724 28.9492 261.821 29.8086ZM308.76 21.0107H325.743C327.569 20.9463 329.234 20.6992 330.738 20.2695C331.383 20.0977 331.952 20.0117 332.446 20.0117C334.187 20.0117 335.873 21.3008 337.506 23.8789C339.16 26.457 339.987 29.1104 339.987 31.8389C339.987 33.708 339.418 35.0723 338.279 35.9316C337.42 36.5762 336.389 36.8984 335.186 36.8984C334.047 36.8984 333.059 36.5869 332.221 35.9639C331.383 35.3193 330.556 34.2666 329.739 32.8057C329.03 31.4736 328.472 30.6035 328.064 30.1953C327.655 29.7871 327.161 29.583 326.581 29.583C325.786 29.583 325.217 29.916 324.873 30.582C324.529 31.248 324.358 32.3438 324.358 33.8691V51.916C324.358 53.7637 324.551 55.1064 324.938 55.9443C325.324 56.7822 326.055 57.4268 327.129 57.8779C328.289 58.3721 329.073 58.8447 329.482 59.2959C329.911 59.7256 330.126 60.3271 330.126 61.1006C330.126 62.6475 329.073 63.7969 326.968 64.5488C324.884 65.3008 321.672 65.6768 317.332 65.6768C312.004 65.6768 308.051 65.2363 305.473 64.3555C303.303 63.625 302.218 62.4434 302.218 60.8105C302.218 59.9297 302.605 59.2422 303.378 58.748C303.571 58.6406 304.334 58.3828 305.666 57.9746C306.483 57.7383 307.041 57.2871 307.342 56.6211C307.664 55.9551 307.922 54.6768 308.115 52.7861C308.287 51.1104 308.448 48.4033 308.599 44.665C308.749 40.9053 308.824 37.6504 308.824 34.9004C308.824 32.9668 308.674 31.5918 308.373 30.7754C308.072 29.959 307.578 29.5508 306.891 29.5508C306.053 29.5508 305.236 30.1523 304.441 31.3555C303.002 33.5469 301.82 34.9971 300.897 35.7061C299.801 36.5439 298.737 36.9629 297.706 36.9629C296.546 36.9629 295.59 36.5332 294.838 35.6738C294.086 34.793 293.71 33.6758 293.71 32.3223C293.71 30.9902 294.011 29.5293 294.612 27.9395C295.214 26.3281 296.02 24.8457 297.029 23.4922C298.662 21.3008 300.274 20.2051 301.863 20.2051C302.293 20.2051 302.787 20.2695 303.346 20.3984C304.506 20.6348 305.451 20.7959 306.182 20.8818C306.934 20.9678 307.793 21.0107 308.76 21.0107ZM365.374 20.1084C370.896 20.1084 375.719 21.6875 379.844 24.8457C382.637 27.0156 384.904 29.8301 386.644 33.2891C388.341 36.7266 389.19 40.1641 389.19 43.6016C389.19 48.6719 387.514 53.2051 384.162 57.2012C381.326 60.5957 377.62 63.0342 373.044 64.5166C370.23 65.4189 367.404 65.8701 364.569 65.8701C360.852 65.8701 357.296 65.0967 353.902 63.5498C349.798 61.6807 346.586 58.8555 344.266 55.0742C342.01 51.4219 340.882 47.3936 340.882 42.9893C340.882 37.876 342.332 33.3643 345.233 29.4541C347.811 25.9736 351.28 23.417 355.642 21.7842C358.564 20.667 361.808 20.1084 365.374 20.1084ZM362.313 29.3574C360.508 29.3574 359.079 30.1631 358.027 31.7744C357.21 32.9775 356.802 34.4062 356.802 36.0605C356.802 38.4883 357.296 41.3027 358.284 44.5039C359.273 47.6836 360.519 50.5088 362.023 52.9795C362.689 54.0322 363.505 54.8701 364.472 55.4932C365.46 56.1162 366.459 56.4277 367.469 56.4277C369.102 56.4277 370.412 55.8154 371.401 54.5908C372.41 53.3662 372.915 51.7549 372.915 49.7568C372.915 47.1572 372.496 44.3535 371.658 41.3457C370.82 38.3379 369.736 35.7705 368.404 33.6436C367.587 32.333 366.642 31.3018 365.568 30.5498C364.493 29.7979 363.408 29.4004 362.313 29.3574ZM449.47 42.7314L455.561 55.7832C456.141 56.9863 456.624 57.7812 457.011 58.168C457.398 58.5332 457.989 58.7803 458.784 58.9092C460.33 59.1455 461.104 59.9297 461.104 61.2617C461.104 62.8301 460.159 63.958 458.268 64.6455C456.377 65.333 453.284 65.6768 448.987 65.6768C444.131 65.6768 440.533 65.4727 438.191 65.0645C437.117 64.8711 436.257 64.4844 435.613 63.9043C434.99 63.3027 434.678 62.583 434.678 61.7451C434.678 61.1006 434.839 60.6064 435.161 60.2627C435.505 59.8975 436.128 59.5645 437.031 59.2637C438.04 58.9199 438.545 58.3398 438.545 57.5234C438.545 56.084 437.675 55.2354 435.935 54.9775C434.066 54.7197 431.434 54.5908 428.039 54.5908C425.182 54.5908 423.474 54.7627 422.915 55.1064C422.572 55.3213 422.271 55.708 422.013 56.2666C421.755 56.8252 421.626 57.3623 421.626 57.8779C421.626 58.3506 421.712 58.6621 421.884 58.8125C422.077 58.9414 422.679 59.167 423.689 59.4893C424.999 59.876 425.655 60.6494 425.655 61.8096C425.655 64.3662 422.593 65.6445 416.47 65.6445C412.99 65.6445 410.433 65.4082 408.8 64.9355C407.296 64.4844 406.544 63.4961 406.544 61.9707C406.544 61.3047 406.705 60.7891 407.028 60.4238C407.371 60.0586 407.973 59.7256 408.832 59.4248C410.229 58.9307 411.282 58.2432 411.991 57.3623C412.721 56.46 413.752 54.5479 415.084 51.626L419.628 41.668C421.304 38.0156 422.421 35.2871 422.98 33.4824C423.56 31.6562 423.861 29.873 423.882 28.1328C423.904 26.2852 424.011 25.0068 424.204 24.2979C424.419 23.5674 424.881 22.8584 425.59 22.1709C427.073 20.667 428.963 19.915 431.262 19.915C433.432 19.915 435.505 20.7637 437.482 22.4609C440.232 24.7812 444.228 31.5381 449.47 42.7314ZM427.04 46.792H433.357C434.517 46.792 435.097 46.5342 435.097 46.0186C435.097 45.3096 434.291 43.5693 432.68 40.7979C431.95 39.5303 431.391 38.6816 431.004 38.252C430.618 37.8223 430.209 37.6074 429.78 37.6074C429.006 37.6074 428.362 38.3271 427.846 39.7666C427.76 39.96 427.449 40.7227 426.911 42.0547C426.009 44.2461 425.558 45.5566 425.558 45.9863C425.558 46.5234 426.052 46.792 427.04 46.792ZM481.56 20.1084C483.773 20.1084 486.673 20.6562 490.261 21.752C490.691 21.8809 491.035 21.9453 491.292 21.9453C491.507 21.9453 492.152 21.752 493.226 21.3652C493.57 21.2363 493.935 21.1719 494.322 21.1719C495.761 21.1719 497.276 22.3105 498.866 24.5879C500.477 26.8652 501.283 29.0352 501.283 31.0977C501.283 32.3008 500.917 33.3213 500.187 34.1592C499.478 34.9756 498.608 35.3838 497.577 35.3838C496.717 35.3838 496.019 35.2119 495.482 34.8682C494.945 34.5244 493.763 33.5039 491.937 31.8066C489.359 29.4004 486.824 28.1973 484.331 28.1973C483.128 28.1973 482.162 28.4873 481.431 29.0674C480.722 29.6475 480.368 30.4102 480.368 31.3555C480.368 33.2246 482.011 34.6318 485.298 35.5771C489.746 36.8877 492.592 37.8438 493.838 38.4453C499.317 41.1094 502.056 45.0303 502.056 50.208C502.056 54.7842 500.187 58.5225 496.449 61.4229C492.624 64.3877 487.629 65.8701 481.463 65.8701C478.713 65.8701 475.813 65.5479 472.762 64.9033C469.711 64.2373 467.509 63.4639 466.156 62.583C465.124 61.8955 464.19 60.4023 463.352 58.1035C462.536 55.7832 462.127 53.5273 462.127 51.3359C462.127 50.2832 462.342 49.4883 462.772 48.9512C463.309 48.2637 463.986 47.9199 464.802 47.9199C465.619 47.9199 466.403 48.3389 467.155 49.1768C467.606 49.6494 468.669 51.1641 470.345 53.7207C471.14 54.9238 472.397 55.9229 474.116 56.7178C475.856 57.5127 477.65 57.9102 479.497 57.9102C481.087 57.9102 482.376 57.6201 483.365 57.04C484.353 56.4385 484.847 55.6758 484.847 54.752C484.847 53.8926 484.46 53.1514 483.687 52.5283C482.914 51.9053 481.657 51.3252 479.916 50.7881C476.844 49.8213 474.502 48.9404 472.891 48.1455C471.28 47.3291 469.776 46.3086 468.379 45.084C464.985 42.0762 463.288 38.6602 463.288 34.8359C463.288 32.9453 463.728 31.1084 464.609 29.3252C465.49 27.5205 466.736 25.9629 468.347 24.6523C471.956 21.623 476.361 20.1084 481.56 20.1084ZM541.623 29.8086L538.174 33.1279C536.907 34.3311 536.273 35.4268 536.273 36.415C536.273 36.9521 536.413 37.4893 536.692 38.0264C536.993 38.5635 537.541 39.2939 538.335 40.2178L550.388 54.1719C551.462 55.418 552.204 56.2129 552.612 56.5566C553.02 56.8789 553.632 57.2227 554.449 57.5879C555.609 58.082 556.425 58.6299 556.898 59.2314C557.392 59.833 557.639 60.6172 557.639 61.584C557.639 63.8613 556.017 65 552.773 65H540.559C539.721 65 539.055 64.8174 538.561 64.4521C538.088 64.0869 537.326 63.1846 536.273 61.7451C534.597 59.4463 532.384 56.8037 529.634 53.8174C528.431 52.5283 527.583 51.6904 527.088 51.3037C526.616 50.8955 526.175 50.6914 525.767 50.6914C524.521 50.6914 523.898 51.8623 523.898 54.2041C523.898 56.1162 524.306 57.4375 525.123 58.168C525.273 58.2754 525.617 58.5117 526.154 58.877C527.314 59.6289 527.894 60.5635 527.894 61.6807C527.894 63.0986 526.949 64.1191 525.058 64.7422C523.167 65.3438 519.988 65.6445 515.519 65.6445C511.544 65.6445 508.644 65.4082 506.818 64.9355C506.044 64.7207 505.411 64.334 504.917 63.7754C504.444 63.1953 504.208 62.5508 504.208 61.8418C504.208 60.7031 504.852 59.7256 506.141 58.9092C506.721 58.5225 507.129 58.1035 507.366 57.6523C507.624 57.1797 507.86 56.3955 508.075 55.2998C508.504 52.8721 508.719 49.1338 508.719 44.085C508.719 38.0693 508.494 33.8047 508.042 31.291C507.871 30.2598 507.634 29.5186 507.333 29.0674C507.033 28.6162 506.506 28.1758 505.754 27.7461C504.551 27.0586 503.95 26.1025 503.95 24.8779C503.95 23.8467 504.326 23.0195 505.078 22.3965C505.83 21.7734 507.033 21.3008 508.687 20.9785C510.878 20.5488 513.628 20.334 516.937 20.334C520.31 20.334 522.813 20.6562 524.446 21.3008C525.907 21.9023 526.637 22.9766 526.637 24.5234C526.637 25.168 526.519 25.6729 526.283 26.0381C526.068 26.3818 525.488 26.9297 524.542 27.6816C524.199 27.9824 523.876 28.7021 523.576 29.8408C523.296 30.9795 523.157 32.0967 523.157 33.1924C523.157 34.9971 523.565 35.8994 524.381 35.8994C524.875 35.8994 525.348 35.6846 525.799 35.2549C526.272 34.8252 527.207 33.751 528.603 32.0322C530.214 30.0342 531.02 28.6699 531.02 27.9395C531.02 27.5527 530.816 26.9727 530.408 26.1992C530.128 25.6621 529.989 25.168 529.989 24.7168C529.989 23.127 530.848 22.0098 532.567 21.3652C534.286 20.6992 537.218 20.3662 541.365 20.3662C544.673 20.3662 547.123 20.5811 548.712 21.0107C550.667 21.5479 551.645 22.6865 551.645 24.4268C551.645 25.1143 551.441 25.7588 551.033 26.3604C550.625 26.9404 550.12 27.3164 549.518 27.4883C549.067 27.6387 548.025 27.7246 546.392 27.7461C545.253 27.7676 544.394 27.9072 543.814 28.165C543.255 28.4014 542.525 28.9492 541.623 29.8086Z" fill="white"/>
</svg>
