<svg xmlns="http://www.w3.org/2000/svg" viewBox="0 0 128.817 62.479"><defs><style>.cls-1{fill:#231f20;}.cls-2{fill:none;stroke:#231f20;stroke-miterlimit:10;}</style></defs><g id="Layer_2" data-name="Layer 2"><g id="Layer_1-2" data-name="Layer 1"><path class="cls-1" d="M16.575,13.857c.027-.394.131-.762.131-1.312,0-1.286-1.837-.447-1.837-2.021,0-.342-.289-1.706,5.117-1.706,4.332,0,5.722.341,5.722,1.732,0,1.653-2.02.551-2.283,2.126-.079.5-.21,1.023-.315,1.522l-1.024,7.244a12.589,12.589,0,0,0-.184,1.732c0,2.126,1.864.971,1.864,2.6,0,1.942-3.57,1.863-4.934,1.863-4.383,0-5.984-.367-5.984-1.942,0-1.732,2.309-.341,2.651-3.175Z"/><path class="cls-1" d="M38.539,9.028A7.946,7.946,0,0,0,40.4,8.87a3.378,3.378,0,0,1,.867-.157c1.6,0,2.546,2.86,2.546,4.12,0,1.391-.683,2.625-2.179,2.625-2,0-1.653-3.255-2.809-3.255-.84,0-.866,1.1-1.076,2.992-.157,1.575-.708,5.643-.708,7.874,0,2.257,1.994,1.1,1.994,2.677,0,.787-.944,1.889-6.4,1.889-4.725,0-4.8-1.233-4.8-1.784,0-1.575,1.863-.788,2.335-2.048.631-1.679,1.549-10.34,1.549-10.733s-.157-.867-.63-.867c-1.312,0-1,3.255-3.333,3.255a1.792,1.792,0,0,1-1.863-1.969c0-1.653,1.522-4.776,3.464-4.776a2.648,2.648,0,0,1,.761.157,3.373,3.373,0,0,0,.945.158Z"/><path class="cls-1" d="M45.1,11.5A2.6,2.6,0,0,1,47.9,8.66c2.125,0,3.1,1.575,3.123,3.543.052,2.861-2.914,6.955-4.173,6.955A1.811,1.811,0,0,1,45.516,17.9a.978.978,0,0,1,.262-.6,5.368,5.368,0,0,0,1.312-2.467C47.09,13.778,45.1,14.119,45.1,11.5Z"/><path class="cls-1" d="M50.919,22.229c0-1.286.63-2.441,2.048-2.441,1.338,0,1.731,1.234,2.125,2.257.473,1.181,1.26,2.494,2.678,2.494a1.578,1.578,0,0,0,1.757-1.5c0-2.31-6.246-3.281-6.246-8.294,0-3.937,3.517-6.089,7.139-6.089a14.326,14.326,0,0,1,2.65.446c.342,0,.815-.446,1.549-.446,1.549,0,2.835,2.389,2.835,3.753a2.143,2.143,0,0,1-2.048,2.231c-1.916,0-2.466-2.729-4.224-2.729a1.1,1.1,0,0,0-1.235,1.1c0,.971.867,1.5,1.628,1.889,2.7,1.47,5.275,2.756,5.275,6.247,0,4.619-4.724,6.666-8.713,6.666C54.672,27.819,50.919,26.192,50.919,22.229Z"/><path class="cls-1" d="M83.877,27.793c-4.462,0-7.768-2.546-7.768-7.191A11.754,11.754,0,0,1,87.656,8.66c4.461,0,7.769,2.546,7.769,7.191A11.755,11.755,0,0,1,83.877,27.793Zm4.487-12.414c0-1.024-.078-3.464-1.679-3.333-2.808,0-3.517,7.007-3.517,9.028,0,1.024.079,3.465,1.68,3.333C87.656,24.407,88.364,17.4,88.364,15.379Z"/><path class="cls-1" d="M110.694,14.2c-.945.787-1.785,1.575-1.785,1.89a4.1,4.1,0,0,0,.394,1.023l3.7,6.8c.761,1.181,1.916,1.154,1.916,2.152,0,.892-.21,1.574-4.278,1.574-2.73,0-2.887-.472-3.99-2.86l-1.784-3.438c-.158-.289-.6-1.26-1-1.26-.681,0-.577,1.417-.6,1.811a15.616,15.616,0,0,0,.026,1.915c.184,1.05,1.286.919,1.286,1.864,0,2.021-3.7,1.968-5.118,1.968-4.409,0-4.383-1.128-4.383-1.758,0-1.338,1.286-.551,1.759-2.257A51.708,51.708,0,0,0,98.36,12.965c0-1.339-1.47-.762-1.47-2.179,0-1.627,2.86-1.968,4.723-1.968,4.7,0,4.515,1.154,4.515,1.574,0,1.523-1.312.788-1.732,2.048a14.762,14.762,0,0,0-.394,2.6c0,.21-.026.787.262.787.472,0,4.042-3.28,4.042-3.963,0-.315-.5-.682-.5-1.365,0-.708.341-1.679,4.54-1.679,3.018,0,3.412.944,3.412,1.758,0,1.759-1.523.735-2.835,1.811Z"/><path class="cls-1" d="M26.444,35.028a7.96,7.96,0,0,0,1.863-.158,3.37,3.37,0,0,1,.866-.157c1.6,0,2.546,2.86,2.546,4.12,0,1.391-.683,2.625-2.179,2.625-1.995,0-1.653-3.255-2.808-3.255-.84,0-.867,1.1-1.077,2.992-.157,1.575-.708,5.643-.708,7.874,0,2.256,2,1.1,2,2.676,0,.787-.945,1.89-6.4,1.89-4.724,0-4.8-1.233-4.8-1.784,0-1.575,1.864-.788,2.335-2.048.631-1.679,1.549-10.34,1.549-10.733s-.157-.867-.63-.867c-1.312,0-1,3.255-3.333,3.255a1.792,1.792,0,0,1-1.863-1.969c0-1.653,1.523-4.776,3.464-4.776a2.655,2.655,0,0,1,.762.157,3.366,3.366,0,0,0,.944.158Z"/><path class="cls-1" d="M39.142,53.792c-4.462,0-7.769-2.545-7.769-7.19A11.754,11.754,0,0,1,42.921,34.66c4.461,0,7.769,2.546,7.769,7.191A11.754,11.754,0,0,1,39.142,53.792Zm4.487-12.413c0-1.024-.078-3.464-1.68-3.333-2.807,0-3.516,7.007-3.516,9.028,0,1.024.079,3.464,1.679,3.333C42.921,50.407,43.629,43.4,43.629,41.379Z"/><path class="cls-1" d="M65.353,49.069c-1.313.1-1.523.472-1.523,1.154,0,.84,1.5.236,1.5,1.654,0,.918-.393,1.758-4.882,1.758-1.286,0-3.28,0-3.28-1.732,0-1.68,1.26-.5,2.388-2.362,2.362-3.937,5.7-8.608,6.614-12.755.394-1.811,1.417-2.126,3.044-2.126,2.415,0,3.412,1.312,4.173,3.438.788,2.2,2.31,9.186,2.756,11.128.472,2.1,1.916.787,1.916,2.546,0,2.047-4.226,1.863-5.537,1.863-1.076,0-4.095.184-4.095-1.522,0-1.522,1.68-.866,1.68-2.1,0-.813-.63-.76-1.234-.944ZM68.4,46.051c.761-.053.866-.263.866-.683,0-1.076-.84-3.674-1.286-3.674-.657,0-2.074,3.464-2.074,3.91,0,.289.394.394.788.447Z"/><path class="cls-1" d="M78.6,48.229c0-1.286.63-2.441,2.048-2.441,1.337,0,1.731,1.234,2.125,2.257.472,1.181,1.259,2.493,2.677,2.493a1.578,1.578,0,0,0,1.758-1.495c0-2.31-6.246-3.281-6.246-8.294,0-3.937,3.517-6.089,7.139-6.089a14.343,14.343,0,0,1,2.65.446c.342,0,.815-.446,1.549-.446,1.549,0,2.835,2.389,2.835,3.753a2.143,2.143,0,0,1-2.048,2.231c-1.916,0-2.467-2.729-4.225-2.729a1.1,1.1,0,0,0-1.234,1.1c0,.971.866,1.5,1.628,1.889,2.7,1.47,5.274,2.756,5.274,6.247,0,4.619-4.723,6.666-8.712,6.666C82.354,53.819,78.6,52.192,78.6,48.229Z"/><path class="cls-1" d="M110.9,40.2c-.945.787-1.785,1.575-1.785,1.89a4.1,4.1,0,0,0,.394,1.023l3.7,6.8c.761,1.18,1.916,1.154,1.916,2.152,0,.891-.21,1.574-4.278,1.574-2.73,0-2.887-.473-3.99-2.86l-1.784-3.438c-.158-.289-.6-1.26-1-1.26-.681,0-.577,1.417-.6,1.811A15.616,15.616,0,0,0,103.5,49.8c.184,1.05,1.286.919,1.286,1.864,0,2.021-3.7,1.968-5.118,1.968-4.409,0-4.383-1.128-4.383-1.758,0-1.339,1.286-.552,1.759-2.257a51.708,51.708,0,0,0,1.523-10.655c0-1.339-1.47-.762-1.47-2.179,0-1.627,2.86-1.968,4.723-1.968,4.7,0,4.515,1.154,4.515,1.574,0,1.523-1.312.788-1.732,2.048a14.762,14.762,0,0,0-.394,2.6c0,.21-.026.787.262.787.472,0,4.042-3.28,4.042-3.963,0-.315-.5-.682-.5-1.365,0-.708.341-1.679,4.54-1.679,3.018,0,3.412.944,3.412,1.758,0,1.759-1.523.735-2.835,1.811Z"/><rect class="cls-2" x="0.5" y="0.5" width="127.817" height="61.479" rx="8.049"/></g></g></svg>