<svg xmlns="http://www.w3.org/2000/svg" viewBox="0 0 234.777 35.149"><defs><style>.cls-1{fill:#231f20;}.cls-2{fill:none;stroke:#231f20;stroke-miterlimit:10;}</style></defs><g id="Layer_2" data-name="Layer 2"><g id="Layer_1-2" data-name="Layer 1"><path class="cls-1" d="M14.429,13.191c.027-.393.131-.761.131-1.312,0-1.286-1.837-.446-1.837-2.021,0-.341-.289-1.706,5.117-1.706,4.331,0,5.722.342,5.722,1.733,0,1.653-2.02.551-2.283,2.125-.079.5-.21,1.024-.316,1.523L19.94,20.776a12.622,12.622,0,0,0-.184,1.732c0,2.126,1.864.972,1.864,2.6,0,1.942-3.57,1.863-4.934,1.863-4.383,0-5.984-.367-5.984-1.942,0-1.732,2.309-.341,2.651-3.175Z"/><path class="cls-1" d="M36.393,8.362a7.966,7.966,0,0,0,1.863-.157,3.38,3.38,0,0,1,.867-.158c1.6,0,2.546,2.861,2.546,4.121,0,1.391-.683,2.625-2.179,2.625-2,0-1.653-3.255-2.809-3.255-.84,0-.866,1.1-1.076,2.992-.157,1.575-.708,5.643-.708,7.874,0,2.257,1.994,1.1,1.994,2.677,0,.787-.944,1.889-6.4,1.889-4.725,0-4.8-1.233-4.8-1.784,0-1.575,1.863-.788,2.335-2.048.631-1.679,1.549-10.34,1.549-10.734s-.157-.866-.63-.866c-1.312,0-1,3.255-3.333,3.255a1.792,1.792,0,0,1-1.863-1.969c0-1.654,1.522-4.777,3.464-4.777a2.65,2.65,0,0,1,.761.158,3.374,3.374,0,0,0,.945.157Z"/><path class="cls-1" d="M42.95,10.83A2.6,2.6,0,0,1,45.758,8c2.125,0,3.1,1.575,3.123,3.543.052,2.861-2.914,6.955-4.173,6.955a1.811,1.811,0,0,1-1.338-1.26.983.983,0,0,1,.262-.6,5.365,5.365,0,0,0,1.312-2.466C44.944,13.113,42.95,13.454,42.95,10.83Z"/><path class="cls-1" d="M48.773,21.564c0-1.286.63-2.441,2.048-2.441,1.338,0,1.731,1.234,2.125,2.257.473,1.181,1.26,2.494,2.678,2.494a1.578,1.578,0,0,0,1.757-1.5c0-2.31-6.246-3.281-6.246-8.294C51.135,10.147,54.652,8,58.274,8a14.326,14.326,0,0,1,2.65.446c.342,0,.815-.446,1.549-.446,1.549,0,2.835,2.388,2.835,3.753a2.143,2.143,0,0,1-2.048,2.231c-1.916,0-2.466-2.729-4.224-2.729a1.1,1.1,0,0,0-1.235,1.1c0,.971.867,1.5,1.628,1.889,2.7,1.47,5.275,2.756,5.275,6.247,0,4.619-4.724,6.666-8.713,6.666C52.526,27.154,48.773,25.527,48.773,21.564Z"/><path class="cls-1" d="M81.731,27.128c-4.462,0-7.768-2.546-7.768-7.191A11.753,11.753,0,0,1,85.51,8c4.461,0,7.769,2.546,7.769,7.191A11.755,11.755,0,0,1,81.731,27.128Zm4.487-12.414c0-1.024-.078-3.464-1.679-3.334-2.808,0-3.517,7.008-3.517,9.029,0,1.024.079,3.465,1.68,3.333C85.51,23.742,86.218,16.735,86.218,14.714Z"/><path class="cls-1" d="M108.548,13.533c-.945.787-1.785,1.575-1.785,1.889a4.1,4.1,0,0,0,.394,1.024l3.7,6.8c.761,1.18,1.916,1.154,1.916,2.152,0,.892-.21,1.574-4.278,1.574-2.73,0-2.887-.472-3.99-2.861l-1.784-3.438c-.158-.288-.6-1.259-1-1.259-.681,0-.577,1.417-.6,1.811a15.619,15.619,0,0,0,.026,1.915c.184,1.05,1.286.919,1.286,1.864,0,2.021-3.7,1.968-5.118,1.968-4.409,0-4.383-1.128-4.383-1.758,0-1.338,1.286-.551,1.759-2.257A51.707,51.707,0,0,0,96.213,12.3c0-1.338-1.469-.761-1.469-2.178,0-1.627,2.86-1.969,4.723-1.969,4.7,0,4.515,1.155,4.515,1.575,0,1.523-1.312.788-1.732,2.047a14.773,14.773,0,0,0-.394,2.6c0,.21-.026.787.262.787.472,0,4.042-3.281,4.042-3.963,0-.315-.5-.682-.5-1.365,0-.708.341-1.68,4.54-1.68,3.018,0,3.412.945,3.412,1.759,0,1.759-1.523.735-2.835,1.811Z"/><path class="cls-1" d="M134.549,8.362a7.984,7.984,0,0,0,1.864-.157,3.372,3.372,0,0,1,.866-.158c1.6,0,2.546,2.861,2.546,4.121,0,1.391-.683,2.625-2.179,2.625-1.995,0-1.653-3.255-2.808-3.255-.84,0-.867,1.1-1.077,2.992-.157,1.575-.708,5.643-.708,7.874,0,2.257,1.994,1.1,1.994,2.677,0,.787-.944,1.889-6.4,1.889-4.724,0-4.8-1.233-4.8-1.784,0-1.575,1.864-.788,2.335-2.048.631-1.679,1.549-10.34,1.549-10.734s-.157-.866-.63-.866c-1.312,0-1,3.255-3.333,3.255a1.792,1.792,0,0,1-1.863-1.969c0-1.654,1.522-4.777,3.464-4.777a2.657,2.657,0,0,1,.762.158,3.367,3.367,0,0,0,.944.157Z"/><path class="cls-1" d="M147.248,27.128c-4.462,0-7.769-2.546-7.769-7.191A11.753,11.753,0,0,1,151.027,8c4.461,0,7.769,2.546,7.769,7.191A11.755,11.755,0,0,1,147.248,27.128Zm4.487-12.414c0-1.024-.078-3.464-1.68-3.334-2.807,0-3.516,7.008-3.516,9.029,0,1.024.079,3.465,1.679,3.333C151.027,23.742,151.735,16.735,151.735,14.714Z"/><path class="cls-1" d="M173.459,22.4c-1.313.1-1.523.472-1.523,1.154,0,.84,1.5.237,1.5,1.654,0,.918-.393,1.758-4.882,1.758-1.286,0-3.28,0-3.28-1.732,0-1.68,1.26-.5,2.388-2.362,2.362-3.937,5.7-8.608,6.614-12.755C174.666,8.31,175.689,8,177.316,8c2.415,0,3.412,1.312,4.173,3.438.788,2.205,2.309,9.186,2.756,11.128.472,2.1,1.916.787,1.916,2.546,0,2.047-4.226,1.863-5.537,1.863-1.077,0-4.095.184-4.095-1.522,0-1.522,1.68-.866,1.68-2.1,0-.813-.63-.761-1.234-.944Zm3.044-3.019c.761-.052.866-.262.866-.682,0-1.076-.84-3.674-1.286-3.674-.657,0-2.074,3.464-2.074,3.91,0,.289.394.394.787.446Z"/><path class="cls-1" d="M186.707,21.564c0-1.286.63-2.441,2.048-2.441,1.337,0,1.731,1.234,2.125,2.257.472,1.181,1.259,2.494,2.677,2.494a1.578,1.578,0,0,0,1.758-1.5c0-2.31-6.246-3.281-6.246-8.294,0-3.937,3.517-6.089,7.139-6.089a14.343,14.343,0,0,1,2.65.446c.342,0,.814-.446,1.549-.446,1.549,0,2.835,2.388,2.835,3.753a2.143,2.143,0,0,1-2.048,2.231c-1.916,0-2.467-2.729-4.225-2.729a1.1,1.1,0,0,0-1.234,1.1c0,.971.866,1.5,1.628,1.889,2.7,1.47,5.274,2.756,5.274,6.247,0,4.619-4.723,6.666-8.713,6.666C190.46,27.154,186.707,25.527,186.707,21.564Z"/><path class="cls-1" d="M219.009,13.533c-.945.787-1.785,1.575-1.785,1.889a4.1,4.1,0,0,0,.394,1.024l3.7,6.8c.761,1.18,1.916,1.154,1.916,2.152,0,.892-.21,1.574-4.278,1.574-2.73,0-2.887-.472-3.99-2.861l-1.784-3.438c-.158-.288-.6-1.259-1-1.259-.681,0-.577,1.417-.6,1.811a15.619,15.619,0,0,0,.026,1.915c.184,1.05,1.286.919,1.286,1.864,0,2.021-3.7,1.968-5.118,1.968-4.409,0-4.383-1.128-4.383-1.758,0-1.338,1.286-.551,1.759-2.257A51.707,51.707,0,0,0,206.674,12.3c0-1.338-1.469-.761-1.469-2.178,0-1.627,2.86-1.969,4.723-1.969,4.7,0,4.515,1.155,4.515,1.575,0,1.523-1.313.788-1.732,2.047a14.773,14.773,0,0,0-.394,2.6c0,.21-.026.787.262.787.472,0,4.042-3.281,4.042-3.963,0-.315-.5-.682-.5-1.365,0-.708.34-1.68,4.54-1.68,3.018,0,3.412.945,3.412,1.759,0,1.759-1.523.735-2.835,1.811Z"/><rect class="cls-2" x="0.5" y="0.5" width="233.777" height="34.149" rx="8.049"/></g></g></svg>