<svg width="480" height="189" viewBox="0 0 480 189" fill="none" xmlns="http://www.w3.org/2000/svg">
<path d="M34.2023 0.789062C38.6555 0.789062 42.8547 1.17969 46.8 1.96094C52.1125 3.01562 54.7688 5.26172 54.7688 8.69922C54.7688 9.83203 54.4953 10.6914 53.9484 11.2773C53.4406 11.8242 52.1125 12.6445 49.9641 13.7383C48.1672 14.6367 46.9758 16.6094 46.3898 19.6562C45.843 22.7031 45.5695 28.6406 45.5695 37.4688C45.5695 52.3906 45.9406 61.6289 46.6828 65.1836C46.9563 66.3164 47.3664 67.1953 47.9133 67.8203C48.4992 68.4062 49.4953 69.0508 50.9016 69.7539C53.4797 70.9258 54.7688 72.625 54.7688 74.8516C54.7688 77.9766 52.3859 80.125 47.6203 81.2969C42.4641 82.5469 36.1555 83.1719 28.6945 83.1719C15.9602 83.1719 9.59297 80.75 9.59297 75.9062C9.59297 74.1484 10.843 72.5078 13.343 70.9844C15.257 69.8125 16.3898 68.2109 16.7414 66.1797C17.4836 61.7266 17.8547 52.2734 17.8547 37.8203C17.8547 27.8203 17.3469 21.4141 16.3313 18.6016C15.7844 17 14.4758 15.5547 12.4055 14.2656C10.8039 13.2109 9.72969 12.332 9.18282 11.6289C8.63594 10.9258 8.3625 10.0273 8.3625 8.93359C8.3625 7.25391 9.16328 5.92578 10.7648 4.94922C12.4055 3.93359 15.2766 3.03516 19.3781 2.25391C24.2609 1.27734 29.2023 0.789062 34.2023 0.789062ZM83.2313 2.01953H114.11C117.43 1.90234 120.458 1.45312 123.192 0.671875C124.364 0.359375 125.399 0.203125 126.298 0.203125C129.462 0.203125 132.528 2.54688 135.497 7.23438C138.505 11.9219 140.009 16.7461 140.009 21.707C140.009 25.1055 138.973 27.5859 136.903 29.1484C135.341 30.3203 133.466 30.9062 131.278 30.9062C129.208 30.9062 127.411 30.3398 125.888 29.207C124.364 28.0352 122.86 26.1211 121.376 23.4648C120.087 21.043 119.071 19.4609 118.329 18.7188C117.587 17.9766 116.688 17.6055 115.634 17.6055C114.188 17.6055 113.153 18.2109 112.528 19.4219C111.903 20.6328 111.591 22.625 111.591 25.3984V58.2109C111.591 61.5703 111.942 64.0117 112.645 65.5352C113.348 67.0586 114.677 68.2305 116.63 69.0508C118.739 69.9492 120.165 70.8086 120.907 71.6289C121.688 72.4102 122.079 73.5039 122.079 74.9102C122.079 77.7227 120.165 79.8125 116.337 81.1797C112.548 82.5469 106.708 83.2305 98.8172 83.2305C89.1297 83.2305 81.9422 82.4297 77.2547 80.8281C73.3094 79.5 71.3367 77.3516 71.3367 74.3828C71.3367 72.7812 72.0398 71.5312 73.4461 70.6328C73.7977 70.4375 75.1844 69.9688 77.6063 69.2266C79.0906 68.7969 80.1063 67.9766 80.6531 66.7656C81.2391 65.5547 81.7078 63.2305 82.0594 59.793C82.3719 56.7461 82.6648 51.8242 82.9383 45.0273C83.2117 38.1914 83.3484 32.2734 83.3484 27.2734C83.3484 23.7578 83.075 21.2578 82.5281 19.7734C81.9813 18.2891 81.0828 17.5469 79.8328 17.5469C78.3094 17.5469 76.825 18.6406 75.3797 20.8281C72.7625 24.8125 70.6141 27.4492 68.9344 28.7383C66.9422 30.2617 65.0086 31.0234 63.1336 31.0234C61.0242 31.0234 59.2859 30.2422 57.9188 28.6797C56.5516 27.0781 55.868 25.0469 55.868 22.5859C55.868 20.1641 56.4148 17.5078 57.5086 14.6172C58.6023 11.6875 60.0672 8.99219 61.9031 6.53125C64.8719 2.54688 67.8016 0.554688 70.6922 0.554688C71.4734 0.554688 72.3719 0.671875 73.3875 0.90625C75.4969 1.33594 77.2156 1.62891 78.5438 1.78516C79.9109 1.94141 81.4734 2.01953 83.2313 2.01953ZM156.635 0.4375C160.776 0.4375 164.174 2.05859 166.83 5.30078C169.174 8.15234 170.346 11.5508 170.346 15.4961C170.346 20.1836 169.135 24.9688 166.713 29.8516C164.33 34.6953 160.991 39.1484 156.694 43.2109C154.311 45.4375 152.084 46.5508 150.014 46.5508C148.608 46.5508 147.338 46.1797 146.205 45.4375C145.112 44.6562 144.565 43.7773 144.565 42.8008C144.565 42.2148 144.955 41.5508 145.737 40.8086C148.237 38.2305 149.975 36.1016 150.952 34.4219C151.967 32.7031 152.475 30.9648 152.475 29.207C152.475 27.957 151.811 26.8438 150.483 25.8672C148.022 23.9141 146.264 22.0391 145.209 20.2422C144.194 18.4453 143.686 16.3164 143.686 13.8555C143.686 9.98828 144.897 6.80469 147.319 4.30469C149.78 1.76563 152.885 0.476563 156.635 0.4375ZM212.637 0.378906C216.66 0.378906 221.934 1.375 228.457 3.36719C229.238 3.60156 229.863 3.71875 230.332 3.71875C230.723 3.71875 231.895 3.36719 233.848 2.66406C234.473 2.42969 235.137 2.3125 235.84 2.3125C238.457 2.3125 241.211 4.38281 244.102 8.52344C247.031 12.6641 248.496 16.6094 248.496 20.3594C248.496 22.5469 247.832 24.4023 246.504 25.9258C245.215 27.4102 243.633 28.1523 241.758 28.1523C240.195 28.1523 238.926 27.8398 237.949 27.2148C236.973 26.5898 234.824 24.7344 231.504 21.6484C226.816 17.2734 222.207 15.0859 217.676 15.0859C215.488 15.0859 213.73 15.6133 212.402 16.668C211.113 17.7227 210.469 19.1094 210.469 20.8281C210.469 24.2266 213.457 26.7852 219.434 28.5039C227.52 30.8867 232.695 32.625 234.961 33.7188C244.922 38.5625 249.902 45.6914 249.902 55.1055C249.902 63.4258 246.504 70.2227 239.707 75.4961C232.754 80.8867 223.672 83.582 212.461 83.582C207.461 83.582 202.188 82.9961 196.641 81.8242C191.094 80.6133 187.09 79.207 184.629 77.6055C182.754 76.3555 181.055 73.6406 179.531 69.4609C178.047 65.2422 177.305 61.1406 177.305 57.1562C177.305 55.2422 177.695 53.7969 178.477 52.8203C179.453 51.5703 180.684 50.9453 182.168 50.9453C183.652 50.9453 185.078 51.707 186.445 53.2305C187.266 54.0898 189.199 56.8438 192.246 61.4922C193.691 63.6797 195.977 65.4961 199.102 66.9414C202.266 68.3867 205.527 69.1094 208.887 69.1094C211.777 69.1094 214.121 68.582 215.918 67.5273C217.715 66.4336 218.613 65.0469 218.613 63.3672C218.613 61.8047 217.91 60.457 216.504 59.3242C215.098 58.1914 212.812 57.1367 209.648 56.1602C204.062 54.4023 199.805 52.8008 196.875 51.3555C193.945 49.8711 191.211 48.0156 188.672 45.7891C182.5 40.3203 179.414 34.1094 179.414 27.1562C179.414 23.7188 180.215 20.3789 181.816 17.1367C183.418 13.8555 185.684 11.0234 188.613 8.64062C195.176 3.13281 203.184 0.378906 212.637 0.378906ZM328.507 0.378906C338.546 0.378906 347.316 3.25 354.816 8.99219C359.894 12.9375 364.015 18.0547 367.179 24.3438C370.265 30.5938 371.808 36.8438 371.808 43.0938C371.808 52.3125 368.761 60.5547 362.667 67.8203C357.511 73.9922 350.773 78.4258 342.452 81.1211C337.335 82.7617 332.198 83.582 327.042 83.582C320.284 83.582 313.82 82.1758 307.648 79.3633C300.187 75.9648 294.347 70.8281 290.128 63.9531C286.027 57.3125 283.976 49.9883 283.976 41.9805C283.976 32.6836 286.612 24.4805 291.886 17.3711C296.573 11.043 302.882 6.39453 310.812 3.42578C316.124 1.39453 322.023 0.378906 328.507 0.378906ZM322.941 17.1953C319.659 17.1953 317.062 18.6602 315.148 21.5898C313.663 23.7773 312.921 26.375 312.921 29.3828C312.921 33.7969 313.82 38.9141 315.616 44.7344C317.413 50.5156 319.679 55.6523 322.413 60.1445C323.624 62.0586 325.109 63.582 326.866 64.7148C328.663 65.8477 330.48 66.4141 332.316 66.4141C335.284 66.4141 337.667 65.3008 339.464 63.0742C341.3 60.8477 342.218 57.918 342.218 54.2852C342.218 49.5586 341.456 44.4609 339.933 38.9922C338.409 33.5234 336.437 28.8555 334.015 24.9883C332.53 22.6055 330.812 20.7305 328.859 19.3633C326.905 17.9961 324.933 17.2734 322.941 17.1953ZM444.04 18.0156L437.77 24.0508C435.466 26.2383 434.313 28.2305 434.313 30.0273C434.313 31.0039 434.567 31.9805 435.075 32.957C435.622 33.9336 436.618 35.2617 438.063 36.9414L459.977 62.3125C461.93 64.5781 463.278 66.0234 464.02 66.6484C464.763 67.2344 465.876 67.8594 467.36 68.5234C469.47 69.4219 470.954 70.418 471.813 71.5117C472.712 72.6055 473.161 74.0312 473.161 75.7891C473.161 79.9297 470.212 82 464.313 82H442.106C440.583 82 439.372 81.668 438.473 81.0039C437.614 80.3398 436.227 78.6992 434.313 76.082C431.266 71.9023 427.243 67.0977 422.243 61.668C420.055 59.3242 418.513 57.8008 417.614 57.0977C416.755 56.3555 415.954 55.9844 415.212 55.9844C412.946 55.9844 411.813 58.1133 411.813 62.3711C411.813 65.8477 412.555 68.25 414.04 69.5781C414.313 69.7734 414.938 70.2031 415.915 70.8672C418.024 72.2344 419.079 73.9336 419.079 75.9648C419.079 78.543 417.36 80.3984 413.923 81.5312C410.485 82.625 404.704 83.1719 396.579 83.1719C389.352 83.1719 384.079 82.7422 380.759 81.8828C379.352 81.4922 378.2 80.7891 377.302 79.7734C376.442 78.7188 376.013 77.5469 376.013 76.2578C376.013 74.1875 377.184 72.4102 379.528 70.9258C380.583 70.2227 381.325 69.4609 381.755 68.6406C382.223 67.7812 382.653 66.3555 383.044 64.3633C383.825 59.9492 384.216 53.1523 384.216 43.9727C384.216 33.0352 383.805 25.2812 382.985 20.7109C382.673 18.8359 382.243 17.4883 381.696 16.668C381.149 15.8477 380.192 15.0469 378.825 14.2656C376.638 13.0156 375.544 11.2773 375.544 9.05078C375.544 7.17578 376.227 5.67187 377.595 4.53906C378.962 3.40625 381.149 2.54688 384.157 1.96094C388.141 1.17969 393.141 0.789062 399.157 0.789062C405.29 0.789062 409.841 1.375 412.809 2.54688C415.466 3.64063 416.794 5.59375 416.794 8.40625C416.794 9.57812 416.579 10.4961 416.149 11.1602C415.759 11.7852 414.704 12.7813 412.985 14.1484C412.36 14.6953 411.774 16.0039 411.227 18.0742C410.72 20.1445 410.466 22.1758 410.466 24.168C410.466 27.4492 411.208 29.0898 412.692 29.0898C413.591 29.0898 414.45 28.6992 415.27 27.918C416.13 27.1367 417.829 25.1836 420.368 22.0586C423.298 18.4258 424.763 15.9453 424.763 14.6172C424.763 13.9141 424.391 12.8594 423.649 11.4531C423.141 10.4766 422.888 9.57812 422.888 8.75781C422.888 5.86719 424.45 3.83594 427.575 2.66406C430.7 1.45312 436.032 0.847656 443.571 0.847656C449.587 0.847656 454.04 1.23828 456.93 2.01953C460.485 2.99609 462.263 5.06641 462.263 8.23047C462.263 9.48047 461.891 10.6523 461.149 11.7461C460.407 12.8008 459.489 13.4844 458.395 13.7969C457.575 14.0703 455.68 14.2266 452.712 14.2656C450.641 14.3047 449.079 14.5586 448.024 15.0273C447.009 15.457 445.68 16.4531 444.04 18.0156ZM27.3984 107.02H58.2773C61.5977 106.902 64.625 106.453 67.3594 105.672C68.5312 105.359 69.5664 105.203 70.4648 105.203C73.6289 105.203 76.6953 107.547 79.6641 112.234C82.6719 116.922 84.1758 121.746 84.1758 126.707C84.1758 130.105 83.1406 132.586 81.0703 134.148C79.5078 135.32 77.6328 135.906 75.4453 135.906C73.375 135.906 71.5781 135.34 70.0547 134.207C68.5312 133.035 67.0273 131.121 65.543 128.465C64.2539 126.043 63.2383 124.461 62.4961 123.719C61.7539 122.977 60.8555 122.605 59.8008 122.605C58.3555 122.605 57.3203 123.211 56.6953 124.422C56.0703 125.633 55.7578 127.625 55.7578 130.398V163.211C55.7578 166.57 56.1094 169.012 56.8125 170.535C57.5156 172.059 58.8438 173.23 60.7969 174.051C62.9062 174.949 64.332 175.809 65.0742 176.629C65.8555 177.41 66.2461 178.504 66.2461 179.91C66.2461 182.723 64.332 184.812 60.5039 186.18C56.7148 187.547 50.875 188.23 42.9844 188.23C33.2969 188.23 26.1094 187.43 21.4219 185.828C17.4766 184.5 15.5039 182.352 15.5039 179.383C15.5039 177.781 16.207 176.531 17.6133 175.633C17.9648 175.438 19.3516 174.969 21.7734 174.227C23.2578 173.797 24.2734 172.977 24.8203 171.766C25.4062 170.555 25.875 168.23 26.2266 164.793C26.5391 161.746 26.832 156.824 27.1055 150.027C27.3789 143.191 27.5156 137.273 27.5156 132.273C27.5156 128.758 27.2422 126.258 26.6953 124.773C26.1484 123.289 25.25 122.547 24 122.547C22.4766 122.547 20.9922 123.641 19.5469 125.828C16.9297 129.812 14.7812 132.449 13.1016 133.738C11.1094 135.262 9.17578 136.023 7.30078 136.023C5.19141 136.023 3.45312 135.242 2.08594 133.68C0.71875 132.078 0.0351562 130.047 0.0351562 127.586C0.0351562 125.164 0.582031 122.508 1.67578 119.617C2.76953 116.688 4.23438 113.992 6.07031 111.531C9.03906 107.547 11.9688 105.555 14.8594 105.555C15.6406 105.555 16.5391 105.672 17.5547 105.906C19.6641 106.336 21.3828 106.629 22.7109 106.785C24.0781 106.941 25.6406 107.02 27.3984 107.02ZM130.334 105.379C140.373 105.379 149.142 108.25 156.642 113.992C161.72 117.938 165.841 123.055 169.005 129.344C172.091 135.594 173.634 141.844 173.634 148.094C173.634 157.312 170.588 165.555 164.494 172.82C159.338 178.992 152.599 183.426 144.279 186.121C139.162 187.762 134.025 188.582 128.869 188.582C122.111 188.582 115.646 187.176 109.474 184.363C102.013 180.965 96.1734 175.828 91.9547 168.953C87.8531 162.312 85.8023 154.988 85.8023 146.98C85.8023 137.684 88.4391 129.48 93.7125 122.371C98.4 116.043 104.709 111.395 112.638 108.426C117.951 106.395 123.849 105.379 130.334 105.379ZM124.767 122.195C121.486 122.195 118.888 123.66 116.974 126.59C115.49 128.777 114.748 131.375 114.748 134.383C114.748 138.797 115.646 143.914 117.443 149.734C119.24 155.516 121.505 160.652 124.24 165.145C125.451 167.059 126.935 168.582 128.693 169.715C130.49 170.848 132.306 171.414 134.142 171.414C137.111 171.414 139.494 170.301 141.291 168.074C143.127 165.848 144.045 162.918 144.045 159.285C144.045 154.559 143.283 149.461 141.759 143.992C140.236 138.523 138.263 133.855 135.841 129.988C134.357 127.605 132.638 125.73 130.685 124.363C128.732 122.996 126.759 122.273 124.767 122.195ZM283.235 146.512L294.309 170.242C295.364 172.43 296.243 173.875 296.946 174.578C297.649 175.242 298.723 175.691 300.169 175.926C302.981 176.355 304.387 177.781 304.387 180.203C304.387 183.055 302.669 185.105 299.231 186.355C295.794 187.605 290.169 188.23 282.356 188.23C273.528 188.23 266.985 187.859 262.727 187.117C260.774 186.766 259.212 186.062 258.04 185.008C256.907 183.914 256.341 182.605 256.341 181.082C256.341 179.91 256.634 179.012 257.22 178.387C257.845 177.723 258.977 177.117 260.618 176.57C262.454 175.945 263.372 174.891 263.372 173.406C263.372 170.789 261.79 169.246 258.626 168.777C255.227 168.309 250.442 168.074 244.27 168.074C239.075 168.074 235.97 168.387 234.954 169.012C234.329 169.402 233.782 170.105 233.313 171.121C232.845 172.137 232.61 173.113 232.61 174.051C232.61 174.91 232.766 175.477 233.079 175.75C233.43 175.984 234.524 176.395 236.36 176.98C238.743 177.684 239.934 179.09 239.934 181.199C239.934 185.848 234.368 188.172 223.235 188.172C216.907 188.172 212.259 187.742 209.29 186.883C206.555 186.062 205.188 184.266 205.188 181.492C205.188 180.281 205.481 179.344 206.067 178.68C206.692 178.016 207.786 177.41 209.348 176.863C211.887 175.965 213.802 174.715 215.091 173.113C216.419 171.473 218.294 167.996 220.716 162.684L228.977 144.578C232.024 137.938 234.055 132.977 235.071 129.695C236.126 126.375 236.673 123.133 236.712 119.969C236.751 116.609 236.946 114.285 237.298 112.996C237.688 111.668 238.528 110.379 239.817 109.129C242.512 106.395 245.95 105.027 250.13 105.027C254.075 105.027 257.845 106.57 261.438 109.656C266.438 113.875 273.704 126.16 283.235 146.512ZM242.454 153.895H253.938C256.048 153.895 257.102 153.426 257.102 152.488C257.102 151.199 255.637 148.035 252.708 142.996C251.38 140.691 250.364 139.148 249.661 138.367C248.958 137.586 248.216 137.195 247.434 137.195C246.028 137.195 244.856 138.504 243.919 141.121C243.762 141.473 243.196 142.859 242.22 145.281C240.579 149.266 239.759 151.648 239.759 152.43C239.759 153.406 240.657 153.895 242.454 153.895ZM341.58 105.379C345.604 105.379 350.877 106.375 357.401 108.367C358.182 108.602 358.807 108.719 359.276 108.719C359.666 108.719 360.838 108.367 362.791 107.664C363.416 107.43 364.08 107.312 364.784 107.312C367.401 107.312 370.155 109.383 373.045 113.523C375.975 117.664 377.44 121.609 377.44 125.359C377.44 127.547 376.776 129.402 375.448 130.926C374.159 132.41 372.577 133.152 370.702 133.152C369.139 133.152 367.87 132.84 366.893 132.215C365.916 131.59 363.768 129.734 360.448 126.648C355.76 122.273 351.151 120.086 346.62 120.086C344.432 120.086 342.674 120.613 341.346 121.668C340.057 122.723 339.413 124.109 339.413 125.828C339.413 129.227 342.401 131.785 348.377 133.504C356.463 135.887 361.639 137.625 363.905 138.719C373.866 143.562 378.846 150.691 378.846 160.105C378.846 168.426 375.448 175.223 368.651 180.496C361.698 185.887 352.616 188.582 341.405 188.582C336.405 188.582 331.131 187.996 325.584 186.824C320.038 185.613 316.034 184.207 313.573 182.605C311.698 181.355 309.998 178.641 308.475 174.461C306.991 170.242 306.248 166.141 306.248 162.156C306.248 160.242 306.639 158.797 307.42 157.82C308.397 156.57 309.627 155.945 311.112 155.945C312.596 155.945 314.022 156.707 315.389 158.23C316.209 159.09 318.143 161.844 321.19 166.492C322.635 168.68 324.92 170.496 328.045 171.941C331.209 173.387 334.471 174.109 337.83 174.109C340.721 174.109 343.065 173.582 344.862 172.527C346.659 171.434 347.557 170.047 347.557 168.367C347.557 166.805 346.854 165.457 345.448 164.324C344.041 163.191 341.756 162.137 338.592 161.16C333.006 159.402 328.748 157.801 325.819 156.355C322.889 154.871 320.155 153.016 317.616 150.789C311.444 145.32 308.358 139.109 308.358 132.156C308.358 128.719 309.159 125.379 310.76 122.137C312.362 118.855 314.627 116.023 317.557 113.641C324.12 108.133 332.127 105.379 341.58 105.379ZM450.785 123.016L444.516 129.051C442.211 131.238 441.059 133.23 441.059 135.027C441.059 136.004 441.312 136.98 441.82 137.957C442.367 138.934 443.363 140.262 444.809 141.941L466.723 167.312C468.676 169.578 470.023 171.023 470.766 171.648C471.508 172.234 472.621 172.859 474.105 173.523C476.215 174.422 477.699 175.418 478.559 176.512C479.457 177.605 479.906 179.031 479.906 180.789C479.906 184.93 476.957 187 471.059 187H448.852C447.328 187 446.117 186.668 445.219 186.004C444.359 185.34 442.973 183.699 441.059 181.082C438.012 176.902 433.988 172.098 428.988 166.668C426.801 164.324 425.258 162.801 424.359 162.098C423.5 161.355 422.699 160.984 421.957 160.984C419.691 160.984 418.559 163.113 418.559 167.371C418.559 170.848 419.301 173.25 420.785 174.578C421.059 174.773 421.684 175.203 422.66 175.867C424.77 177.234 425.824 178.934 425.824 180.965C425.824 183.543 424.105 185.398 420.668 186.531C417.23 187.625 411.449 188.172 403.324 188.172C396.098 188.172 390.824 187.742 387.504 186.883C386.098 186.492 384.945 185.789 384.047 184.773C383.188 183.719 382.758 182.547 382.758 181.258C382.758 179.188 383.93 177.41 386.273 175.926C387.328 175.223 388.07 174.461 388.5 173.641C388.969 172.781 389.398 171.355 389.789 169.363C390.57 164.949 390.961 158.152 390.961 148.973C390.961 138.035 390.551 130.281 389.73 125.711C389.418 123.836 388.988 122.488 388.441 121.668C387.895 120.848 386.938 120.047 385.57 119.266C383.383 118.016 382.289 116.277 382.289 114.051C382.289 112.176 382.973 110.672 384.34 109.539C385.707 108.406 387.895 107.547 390.902 106.961C394.887 106.18 399.887 105.789 405.902 105.789C412.035 105.789 416.586 106.375 419.555 107.547C422.211 108.641 423.539 110.594 423.539 113.406C423.539 114.578 423.324 115.496 422.895 116.16C422.504 116.785 421.449 117.781 419.73 119.148C419.105 119.695 418.52 121.004 417.973 123.074C417.465 125.145 417.211 127.176 417.211 129.168C417.211 132.449 417.953 134.09 419.438 134.09C420.336 134.09 421.195 133.699 422.016 132.918C422.875 132.137 424.574 130.184 427.113 127.059C430.043 123.426 431.508 120.945 431.508 119.617C431.508 118.914 431.137 117.859 430.395 116.453C429.887 115.477 429.633 114.578 429.633 113.758C429.633 110.867 431.195 108.836 434.32 107.664C437.445 106.453 442.777 105.848 450.316 105.848C456.332 105.848 460.785 106.238 463.676 107.02C467.23 107.996 469.008 110.066 469.008 113.23C469.008 114.48 468.637 115.652 467.895 116.746C467.152 117.801 466.234 118.484 465.141 118.797C464.32 119.07 462.426 119.227 459.457 119.266C457.387 119.305 455.824 119.559 454.77 120.027C453.754 120.457 452.426 121.453 450.785 123.016Z" fill="#5D22D2"/>
</svg>
