<svg width="177" height="27" viewBox="0 0 177 27" fill="none" xmlns="http://www.w3.org/2000/svg">
<rect width="176.023" height="26.1451" rx="6" fill="#8FF4EB"/>
<path d="M18.9991 6.89087C19.667 6.89087 20.2969 6.94946 20.8887 7.06665C21.6856 7.22485 22.084 7.56177 22.084 8.07739C22.084 8.24731 22.043 8.37622 21.961 8.46411C21.8848 8.54614 21.6856 8.66919 21.3633 8.83325C21.0938 8.96802 20.9151 9.26392 20.8272 9.72095C20.7452 10.178 20.7041 11.0686 20.7041 12.3928C20.7041 14.6311 20.7598 16.0168 20.8711 16.55C20.9121 16.72 20.9737 16.8518 21.0557 16.9456C21.1436 17.0334 21.293 17.1301 21.5039 17.2356C21.8907 17.4114 22.084 17.6663 22.084 18.0002C22.084 18.469 21.7266 18.7913 21.0118 18.967C20.2383 19.1545 19.292 19.2483 18.1729 19.2483C16.2627 19.2483 15.3077 18.885 15.3077 18.1584C15.3077 17.8948 15.4952 17.6487 15.8702 17.4202C16.1573 17.2444 16.3272 17.0042 16.3799 16.6995C16.4912 16.0315 16.5469 14.6135 16.5469 12.4456C16.5469 10.9456 16.4707 9.98462 16.3184 9.56274C16.2364 9.32251 16.0401 9.10571 15.7295 8.91235C15.4893 8.75415 15.3282 8.62231 15.2461 8.51685C15.1641 8.41138 15.1231 8.27661 15.1231 8.11255C15.1231 7.8606 15.2432 7.66138 15.4834 7.51489C15.7295 7.36255 16.1602 7.22778 16.7754 7.1106C17.5079 6.96411 18.2491 6.89087 18.9991 6.89087ZM26.3534 7.07544H30.9852C31.4833 7.05786 31.9374 6.99048 32.3475 6.87329C32.5233 6.82642 32.6786 6.80298 32.8134 6.80298C33.288 6.80298 33.7479 7.15454 34.1932 7.85767C34.6444 8.56079 34.87 9.28442 34.87 10.0286C34.87 10.5383 34.7147 10.9104 34.4042 11.1448C34.1698 11.3206 33.8886 11.4084 33.5604 11.4084C33.2499 11.4084 32.9804 11.3235 32.7518 11.1536C32.5233 10.9778 32.2977 10.6907 32.0751 10.2922C31.8817 9.92896 31.7294 9.69165 31.618 9.58032C31.5067 9.46899 31.372 9.41333 31.2137 9.41333C30.997 9.41333 30.8417 9.50415 30.7479 9.68579C30.6542 9.86743 30.6073 10.1663 30.6073 10.5823V15.5042C30.6073 16.0081 30.66 16.3743 30.7655 16.6028C30.871 16.8313 31.0702 17.0071 31.3632 17.1301C31.6796 17.2649 31.8934 17.3938 32.0048 17.5168C32.122 17.634 32.1805 17.7981 32.1805 18.009C32.1805 18.4309 31.8934 18.7444 31.3192 18.9495C30.7509 19.1545 29.8749 19.2571 28.6913 19.2571C27.2382 19.2571 26.16 19.137 25.4569 18.8967C24.8651 18.6975 24.5692 18.3752 24.5692 17.9299C24.5692 17.6897 24.6747 17.5022 24.8856 17.3674C24.9384 17.3381 25.1464 17.2678 25.5096 17.1565C25.7323 17.092 25.8846 16.969 25.9667 16.7874C26.0546 16.6057 26.1249 16.2571 26.1776 15.7415C26.2245 15.2844 26.2684 14.5461 26.3095 13.5266C26.3505 12.5012 26.371 11.6135 26.371 10.8635C26.371 10.3362 26.33 9.96118 26.2479 9.73853C26.1659 9.51587 26.0311 9.40454 25.8436 9.40454C25.6151 9.40454 25.3925 9.5686 25.1757 9.89673C24.7831 10.4944 24.4608 10.8899 24.2089 11.0833C23.91 11.3118 23.62 11.426 23.3387 11.426C23.0223 11.426 22.7616 11.3088 22.5565 11.0745C22.3514 10.8342 22.2489 10.5295 22.2489 10.1604C22.2489 9.79712 22.3309 9.39868 22.495 8.96509C22.6591 8.52563 22.8788 8.12134 23.1542 7.7522C23.5995 7.15454 24.0389 6.85571 24.4725 6.85571C24.5897 6.85571 24.7245 6.87329 24.8768 6.90845C25.1932 6.9729 25.4511 7.01685 25.6503 7.04028C25.8554 7.06372 26.0897 7.07544 26.3534 7.07544ZM37.364 6.83813C37.9851 6.83813 38.4948 7.0813 38.8933 7.56763C39.2448 7.99536 39.4206 8.50513 39.4206 9.09692C39.4206 9.80005 39.239 10.5178 38.8757 11.2502C38.5183 11.9768 38.0173 12.6448 37.3728 13.2542C37.0154 13.5881 36.6814 13.7551 36.3708 13.7551C36.1599 13.7551 35.9695 13.6995 35.7995 13.5881C35.6355 13.4709 35.5534 13.3391 35.5534 13.1926C35.5534 13.1047 35.612 13.0051 35.7292 12.8938C36.1042 12.5071 36.365 12.1877 36.5114 11.9358C36.6638 11.678 36.74 11.4172 36.74 11.1536C36.74 10.9661 36.6404 10.7991 36.4411 10.6526C36.072 10.3596 35.8083 10.0784 35.6501 9.80884C35.4978 9.53931 35.4216 9.21997 35.4216 8.85083C35.4216 8.27075 35.6032 7.79321 35.9665 7.41821C36.3357 7.03735 36.8015 6.84399 37.364 6.83813ZM45.7642 6.82935C46.3677 6.82935 47.1587 6.97876 48.1373 7.27759C48.2545 7.31274 48.3482 7.33032 48.4185 7.33032C48.4771 7.33032 48.6529 7.27759 48.9459 7.17212C49.0396 7.13696 49.1392 7.11938 49.2447 7.11938C49.6373 7.11938 50.0504 7.42993 50.4839 8.05103C50.9234 8.67212 51.1431 9.26392 51.1431 9.82642C51.1431 10.1545 51.0435 10.4329 50.8443 10.6614C50.6509 10.884 50.4136 10.9954 50.1324 10.9954C49.898 10.9954 49.7076 10.9485 49.5611 10.8547C49.4146 10.761 49.0923 10.4827 48.5943 10.0198C47.8912 9.36353 47.1998 9.0354 46.5201 9.0354C46.192 9.0354 45.9283 9.1145 45.7291 9.27271C45.5357 9.43091 45.439 9.63892 45.439 9.89673C45.439 10.4065 45.8873 10.7903 46.7837 11.0481C47.9966 11.4055 48.773 11.6663 49.1129 11.8303C50.607 12.5569 51.3541 13.6262 51.3541 15.0383C51.3541 16.2864 50.8443 17.3059 49.8248 18.0969C48.7818 18.9055 47.4195 19.3098 45.7379 19.3098C44.9879 19.3098 44.1968 19.2219 43.3648 19.0461C42.5328 18.8645 41.9322 18.6536 41.563 18.4133C41.2818 18.2258 41.0269 17.8186 40.7984 17.1917C40.5757 16.5588 40.4644 15.9436 40.4644 15.3459C40.4644 15.0588 40.523 14.842 40.6402 14.6956C40.7867 14.5081 40.9712 14.4143 41.1939 14.4143C41.4166 14.4143 41.6304 14.5286 41.8355 14.7571C41.9586 14.886 42.2486 15.2991 42.7056 15.9963C42.9224 16.3245 43.2652 16.5969 43.7339 16.8137C44.2086 17.0305 44.6978 17.1389 45.2017 17.1389C45.6353 17.1389 45.9869 17.0598 46.2564 16.9016C46.5259 16.7375 46.6607 16.5295 46.6607 16.2776C46.6607 16.0432 46.5552 15.8411 46.3443 15.6711C46.1334 15.5012 45.7906 15.343 45.316 15.1965C44.4781 14.9329 43.8394 14.6926 43.4 14.4758C42.9605 14.2532 42.5504 13.9749 42.1695 13.6409C41.2437 12.8206 40.7808 11.8889 40.7808 10.8459C40.7808 10.3303 40.9009 9.82935 41.1412 9.34302C41.3814 8.85083 41.7212 8.42603 42.1607 8.0686C43.1451 7.24243 44.3462 6.82935 45.7642 6.82935ZM63.1448 6.82935C64.6506 6.82935 65.9661 7.26001 67.0911 8.12134C67.8528 8.71313 68.4709 9.48071 68.9455 10.4241C69.4084 11.3616 69.6399 12.2991 69.6399 13.2366C69.6399 14.6194 69.1828 15.8557 68.2688 16.9456C67.4953 17.8713 66.4846 18.5364 65.2366 18.9407C64.469 19.1868 63.6985 19.3098 62.925 19.3098C61.9114 19.3098 60.9416 19.0989 60.0159 18.677C58.8967 18.1672 58.0207 17.3967 57.3879 16.3655C56.7727 15.3694 56.4651 14.2708 56.4651 13.0696C56.4651 11.675 56.8606 10.4446 57.6516 9.37817C58.3547 8.42896 59.301 7.73169 60.4905 7.28638C61.2873 6.98169 62.1721 6.82935 63.1448 6.82935ZM62.3098 9.35181C61.8176 9.35181 61.428 9.57153 61.1409 10.011C60.9182 10.3391 60.8069 10.7288 60.8069 11.1799C60.8069 11.842 60.9416 12.6096 61.2112 13.4827C61.4807 14.3499 61.8205 15.1204 62.2307 15.7942C62.4123 16.0813 62.635 16.3098 62.8987 16.4797C63.1682 16.6497 63.4407 16.7346 63.7161 16.7346C64.1614 16.7346 64.5188 16.5676 64.7883 16.2336C65.0637 15.8997 65.2014 15.4602 65.2014 14.9153C65.2014 14.2063 65.0871 13.4417 64.8586 12.6213C64.6301 11.801 64.3342 11.1008 63.9709 10.5208C63.7483 10.1633 63.4905 9.88208 63.1975 9.677C62.9045 9.47192 62.6086 9.36353 62.3098 9.35181ZM80.4747 9.47485L79.5343 10.3801C79.1886 10.7083 79.0157 11.0071 79.0157 11.2766C79.0157 11.4231 79.0538 11.5696 79.13 11.7161C79.212 11.8625 79.3614 12.0618 79.5782 12.3137L82.8653 16.1194C83.1583 16.4592 83.3604 16.676 83.4718 16.7698C83.5831 16.8577 83.7501 16.9514 83.9727 17.051C84.2891 17.1858 84.5118 17.3352 84.6407 17.4993C84.7755 17.6633 84.8428 17.8772 84.8428 18.1409C84.8428 18.762 84.4005 19.0725 83.5157 19.0725H80.1846C79.9561 19.0725 79.7745 19.0227 79.6397 18.9231C79.5108 18.8235 79.3028 18.5774 79.0157 18.1848C78.5587 17.5579 77.9552 16.8372 77.2052 16.0227C76.877 15.6711 76.6456 15.4426 76.5108 15.3372C76.3819 15.2258 76.2618 15.1702 76.1505 15.1702C75.8106 15.1702 75.6407 15.4895 75.6407 16.1282C75.6407 16.6497 75.752 17.01 75.9747 17.2092C76.0157 17.2385 76.1095 17.303 76.2559 17.4026C76.5723 17.6077 76.7305 17.8625 76.7305 18.1672C76.7305 18.554 76.4727 18.8323 75.9571 19.0022C75.4415 19.1663 74.5743 19.2483 73.3555 19.2483C72.2716 19.2483 71.4805 19.1838 70.9825 19.0549C70.7716 18.9963 70.5987 18.8909 70.4639 18.7385C70.335 18.5803 70.2706 18.4045 70.2706 18.2112C70.2706 17.9006 70.4464 17.634 70.7979 17.4114C70.9561 17.3059 71.0675 17.1917 71.1319 17.0686C71.2022 16.9397 71.2667 16.7258 71.3253 16.427C71.4425 15.7649 71.5011 14.7454 71.5011 13.3684C71.5011 11.7278 71.4395 10.5647 71.3165 9.87915C71.2696 9.5979 71.2052 9.39575 71.1231 9.27271C71.0411 9.14966 70.8975 9.02954 70.6925 8.91235C70.3643 8.72485 70.2003 8.46411 70.2003 8.13013C70.2003 7.84888 70.3028 7.62329 70.5079 7.45337C70.713 7.28345 71.0411 7.15454 71.4923 7.06665C72.0899 6.94946 72.8399 6.89087 73.7423 6.89087C74.6622 6.89087 75.3448 6.97876 75.7901 7.15454C76.1886 7.3186 76.3878 7.61157 76.3878 8.03345C76.3878 8.20923 76.3555 8.34692 76.2911 8.44653C76.2325 8.54028 76.0743 8.6897 75.8165 8.89478C75.7227 8.97681 75.6348 9.1731 75.5528 9.48364C75.4766 9.79419 75.4386 10.0989 75.4386 10.3977C75.4386 10.8899 75.5499 11.136 75.7725 11.136C75.9073 11.136 76.0362 11.0774 76.1593 10.9602C76.2882 10.843 76.543 10.55 76.9239 10.0813C77.3634 9.53638 77.5831 9.16431 77.5831 8.96509C77.5831 8.85962 77.5274 8.70142 77.4161 8.49048C77.3399 8.34399 77.3018 8.20923 77.3018 8.08618C77.3018 7.65259 77.5362 7.3479 78.005 7.17212C78.4737 6.99048 79.2735 6.89966 80.4044 6.89966C81.3067 6.89966 81.9747 6.95825 82.4083 7.07544C82.9415 7.22192 83.2081 7.53247 83.2081 8.00708C83.2081 8.19458 83.1524 8.37036 83.0411 8.53442C82.9298 8.69263 82.7921 8.79517 82.628 8.84204C82.505 8.88306 82.2208 8.90649 81.7755 8.91235C81.4649 8.91821 81.2305 8.9563 81.0723 9.02661C80.92 9.09106 80.7208 9.24048 80.4747 9.47485ZM93.2761 7.07544H97.908C98.406 7.05786 98.8601 6.99048 99.2703 6.87329C99.4461 6.82642 99.6013 6.80298 99.7361 6.80298C100.211 6.80298 100.671 7.15454 101.116 7.85767C101.567 8.56079 101.793 9.28442 101.793 10.0286C101.793 10.5383 101.637 10.9104 101.327 11.1448C101.093 11.3206 100.811 11.4084 100.483 11.4084C100.173 11.4084 99.9031 11.3235 99.6746 11.1536C99.4461 10.9778 99.2205 10.6907 98.9978 10.2922C98.8045 9.92896 98.6521 9.69165 98.5408 9.58032C98.4295 9.46899 98.2947 9.41333 98.1365 9.41333C97.9197 9.41333 97.7644 9.50415 97.6707 9.68579C97.5769 9.86743 97.53 10.1663 97.53 10.5823V15.5042C97.53 16.0081 97.5828 16.3743 97.6882 16.6028C97.7937 16.8313 97.9929 17.0071 98.2859 17.1301C98.6023 17.2649 98.8162 17.3938 98.9275 17.5168C99.0447 17.634 99.1033 17.7981 99.1033 18.009C99.1033 18.4309 98.8162 18.7444 98.242 18.9495C97.6736 19.1545 96.7976 19.2571 95.614 19.2571C94.1609 19.2571 93.0828 19.137 92.3796 18.8967C91.7878 18.6975 91.492 18.3752 91.492 17.9299C91.492 17.6897 91.5974 17.5022 91.8084 17.3674C91.8611 17.3381 92.0691 17.2678 92.4324 17.1565C92.655 17.092 92.8074 16.969 92.8894 16.7874C92.9773 16.6057 93.0476 16.2571 93.1003 15.7415C93.1472 15.2844 93.1912 14.5461 93.2322 13.5266C93.2732 12.5012 93.2937 11.6135 93.2937 10.8635C93.2937 10.3362 93.2527 9.96118 93.1707 9.73853C93.0886 9.51587 92.9539 9.40454 92.7664 9.40454C92.5378 9.40454 92.3152 9.5686 92.0984 9.89673C91.7058 10.4944 91.3836 10.8899 91.1316 11.0833C90.8328 11.3118 90.5427 11.426 90.2615 11.426C89.9451 11.426 89.6843 11.3088 89.4793 11.0745C89.2742 10.8342 89.1716 10.5295 89.1716 10.1604C89.1716 9.79712 89.2537 9.39868 89.4177 8.96509C89.5818 8.52563 89.8015 8.12134 90.0769 7.7522C90.5222 7.15454 90.9617 6.85571 91.3953 6.85571C91.5125 6.85571 91.6472 6.87329 91.7996 6.90845C92.116 6.9729 92.3738 7.01685 92.573 7.04028C92.7781 7.06372 93.0125 7.07544 93.2761 7.07544ZM108.716 6.82935C110.222 6.82935 111.538 7.26001 112.663 8.12134C113.424 8.71313 114.043 9.48071 114.517 10.4241C114.98 11.3616 115.212 12.2991 115.212 13.2366C115.212 14.6194 114.754 15.8557 113.84 16.9456C113.067 17.8713 112.056 18.5364 110.808 18.9407C110.041 19.1868 109.27 19.3098 108.497 19.3098C107.483 19.3098 106.513 19.0989 105.588 18.677C104.468 18.1672 103.592 17.3967 102.96 16.3655C102.344 15.3694 102.037 14.2708 102.037 13.0696C102.037 11.675 102.432 10.4446 103.223 9.37817C103.926 8.42896 104.873 7.73169 106.062 7.28638C106.859 6.98169 107.744 6.82935 108.716 6.82935ZM107.881 9.35181C107.389 9.35181 107 9.57153 106.713 10.011C106.49 10.3391 106.379 10.7288 106.379 11.1799C106.379 11.842 106.513 12.6096 106.783 13.4827C107.052 14.3499 107.392 15.1204 107.802 15.7942C107.984 16.0813 108.207 16.3098 108.47 16.4797C108.74 16.6497 109.012 16.7346 109.288 16.7346C109.733 16.7346 110.09 16.5676 110.36 16.2336C110.635 15.8997 110.773 15.4602 110.773 14.9153C110.773 14.2063 110.659 13.4417 110.43 12.6213C110.202 11.801 109.906 11.1008 109.543 10.5208C109.32 10.1633 109.062 9.88208 108.769 9.677C108.476 9.47192 108.18 9.36353 107.881 9.35181ZM131.652 12.9993L133.313 16.5588C133.471 16.887 133.603 17.1038 133.708 17.2092C133.814 17.3088 133.975 17.3762 134.192 17.4114C134.614 17.4758 134.824 17.6897 134.824 18.053C134.824 18.4807 134.567 18.7883 134.051 18.9758C133.535 19.1633 132.692 19.2571 131.52 19.2571C130.196 19.2571 129.214 19.2014 128.575 19.0901C128.283 19.0374 128.048 18.9319 127.872 18.7737C127.702 18.6096 127.617 18.4133 127.617 18.1848C127.617 18.009 127.661 17.8743 127.749 17.7805C127.843 17.6809 128.013 17.5901 128.259 17.5081C128.534 17.4143 128.672 17.2561 128.672 17.0334C128.672 16.6409 128.435 16.4094 127.96 16.3391C127.45 16.2688 126.733 16.2336 125.807 16.2336C125.028 16.2336 124.562 16.2805 124.409 16.3743C124.316 16.4329 124.234 16.5383 124.163 16.6907C124.093 16.843 124.058 16.9895 124.058 17.1301C124.058 17.259 124.081 17.344 124.128 17.385C124.181 17.4202 124.345 17.4817 124.62 17.5696C124.978 17.675 125.157 17.886 125.157 18.2024C125.157 18.8997 124.322 19.2483 122.652 19.2483C121.702 19.2483 121.005 19.1838 120.56 19.0549C120.15 18.9319 119.945 18.6624 119.945 18.2463C119.945 18.0647 119.989 17.9241 120.076 17.8245C120.17 17.7249 120.334 17.634 120.569 17.552C120.949 17.4172 121.237 17.2297 121.43 16.9895C121.629 16.7434 121.91 16.2219 122.274 15.425L123.513 12.7092C123.97 11.7131 124.275 10.969 124.427 10.4768C124.585 9.97876 124.667 9.49243 124.673 9.01782C124.679 8.51392 124.708 8.16528 124.761 7.97192C124.82 7.77271 124.946 7.57935 125.139 7.39185C125.543 6.98169 126.059 6.77661 126.686 6.77661C127.278 6.77661 127.843 7.00806 128.382 7.47095C129.132 8.10376 130.222 9.94653 131.652 12.9993ZM125.534 14.1067H127.257C127.574 14.1067 127.732 14.0364 127.732 13.8958C127.732 13.7024 127.512 13.2278 127.073 12.4719C126.873 12.1262 126.721 11.8948 126.616 11.7776C126.51 11.6604 126.399 11.6018 126.282 11.6018C126.071 11.6018 125.895 11.7981 125.754 12.1907C125.731 12.2434 125.646 12.4514 125.499 12.8147C125.253 13.4124 125.13 13.7698 125.13 13.887C125.13 14.0334 125.265 14.1067 125.534 14.1067ZM140.403 6.82935C141.007 6.82935 141.798 6.97876 142.776 7.27759C142.894 7.31274 142.987 7.33032 143.058 7.33032C143.116 7.33032 143.292 7.27759 143.585 7.17212C143.679 7.13696 143.778 7.11938 143.884 7.11938C144.276 7.11938 144.69 7.42993 145.123 8.05103C145.563 8.67212 145.782 9.26392 145.782 9.82642C145.782 10.1545 145.683 10.4329 145.484 10.6614C145.29 10.884 145.053 10.9954 144.772 10.9954C144.537 10.9954 144.347 10.9485 144.2 10.8547C144.054 10.761 143.732 10.4827 143.234 10.0198C142.53 9.36353 141.839 9.0354 141.159 9.0354C140.831 9.0354 140.567 9.1145 140.368 9.27271C140.175 9.43091 140.078 9.63892 140.078 9.89673C140.078 10.4065 140.526 10.7903 141.423 11.0481C142.636 11.4055 143.412 11.6663 143.752 11.8303C145.246 12.5569 145.993 13.6262 145.993 15.0383C145.993 16.2864 145.484 17.3059 144.464 18.0969C143.421 18.9055 142.059 19.3098 140.377 19.3098C139.627 19.3098 138.836 19.2219 138.004 19.0461C137.172 18.8645 136.571 18.6536 136.202 18.4133C135.921 18.2258 135.666 17.8186 135.438 17.1917C135.215 16.5588 135.104 15.9436 135.104 15.3459C135.104 15.0588 135.162 14.842 135.279 14.6956C135.426 14.5081 135.61 14.4143 135.833 14.4143C136.056 14.4143 136.27 14.5286 136.475 14.7571C136.598 14.886 136.888 15.2991 137.345 15.9963C137.562 16.3245 137.904 16.5969 138.373 16.8137C138.848 17.0305 139.337 17.1389 139.841 17.1389C140.275 17.1389 140.626 17.0598 140.896 16.9016C141.165 16.7375 141.3 16.5295 141.3 16.2776C141.3 16.0432 141.194 15.8411 140.984 15.6711C140.773 15.5012 140.43 15.343 139.955 15.1965C139.117 14.9329 138.479 14.6926 138.039 14.4758C137.6 14.2532 137.19 13.9749 136.809 13.6409C135.883 12.8206 135.42 11.8889 135.42 10.8459C135.42 10.3303 135.54 9.82935 135.78 9.34302C136.021 8.85083 136.36 8.42603 136.8 8.0686C137.784 7.24243 138.985 6.82935 140.403 6.82935ZM156.784 9.47485L155.844 10.3801C155.498 10.7083 155.325 11.0071 155.325 11.2766C155.325 11.4231 155.363 11.5696 155.439 11.7161C155.521 11.8625 155.671 12.0618 155.888 12.3137L159.175 16.1194C159.468 16.4592 159.67 16.676 159.781 16.7698C159.893 16.8577 160.06 16.9514 160.282 17.051C160.599 17.1858 160.821 17.3352 160.95 17.4993C161.085 17.6633 161.152 17.8772 161.152 18.1409C161.152 18.762 160.71 19.0725 159.825 19.0725H156.494C156.266 19.0725 156.084 19.0227 155.949 18.9231C155.82 18.8235 155.612 18.5774 155.325 18.1848C154.868 17.5579 154.265 16.8372 153.515 16.0227C153.186 15.6711 152.955 15.4426 152.82 15.3372C152.691 15.2258 152.571 15.1702 152.46 15.1702C152.12 15.1702 151.95 15.4895 151.95 16.1282C151.95 16.6497 152.061 17.01 152.284 17.2092C152.325 17.2385 152.419 17.303 152.565 17.4026C152.882 17.6077 153.04 17.8625 153.04 18.1672C153.04 18.554 152.782 18.8323 152.267 19.0022C151.751 19.1663 150.884 19.2483 149.665 19.2483C148.581 19.2483 147.79 19.1838 147.292 19.0549C147.081 18.9963 146.908 18.8909 146.773 18.7385C146.645 18.5803 146.58 18.4045 146.58 18.2112C146.58 17.9006 146.756 17.634 147.107 17.4114C147.266 17.3059 147.377 17.1917 147.441 17.0686C147.512 16.9397 147.576 16.7258 147.635 16.427C147.752 15.7649 147.811 14.7454 147.811 13.3684C147.811 11.7278 147.749 10.5647 147.626 9.87915C147.579 9.5979 147.515 9.39575 147.433 9.27271C147.351 9.14966 147.207 9.02954 147.002 8.91235C146.674 8.72485 146.51 8.46411 146.51 8.13013C146.51 7.84888 146.612 7.62329 146.817 7.45337C147.022 7.28345 147.351 7.15454 147.802 7.06665C148.399 6.94946 149.149 6.89087 150.052 6.89087C150.972 6.89087 151.654 6.97876 152.1 7.15454C152.498 7.3186 152.697 7.61157 152.697 8.03345C152.697 8.20923 152.665 8.34692 152.601 8.44653C152.542 8.54028 152.384 8.6897 152.126 8.89478C152.032 8.97681 151.944 9.1731 151.862 9.48364C151.786 9.79419 151.748 10.0989 151.748 10.3977C151.748 10.8899 151.859 11.136 152.082 11.136C152.217 11.136 152.346 11.0774 152.469 10.9602C152.598 10.843 152.853 10.55 153.233 10.0813C153.673 9.53638 153.893 9.16431 153.893 8.96509C153.893 8.85962 153.837 8.70142 153.726 8.49048C153.649 8.34399 153.611 8.20923 153.611 8.08618C153.611 7.65259 153.846 7.3479 154.314 7.17212C154.783 6.99048 155.583 6.89966 156.714 6.89966C157.616 6.89966 158.284 6.95825 158.718 7.07544C159.251 7.22192 159.518 7.53247 159.518 8.00708C159.518 8.19458 159.462 8.37036 159.351 8.53442C159.239 8.69263 159.102 8.79517 158.937 8.84204C158.814 8.88306 158.53 8.90649 158.085 8.91235C157.774 8.91821 157.54 8.9563 157.382 9.02661C157.229 9.09106 157.03 9.24048 156.784 9.47485Z" fill="#5D22D2"/>
</svg>
