<svg width="208" height="61" viewBox="0 0 208 61" fill="none" xmlns="http://www.w3.org/2000/svg">
<path d="M30.5599 57.5752H31.1105V60.291H30.5599V57.5752ZM29.1833 60.1552L29.321 57.4394H29.8716L29.734 60.1552H29.1833ZM31.9365 57.4394H32.4871L32.6248 60.1552H32.0742L31.9365 57.4394ZM27.8068 60.0194L28.0821 57.3036H28.6327L28.3574 60.0194H27.8068ZM33.1754 57.3036H33.726L34.0014 60.0194H33.4507L33.1754 57.3036ZM26.2925 59.8836L26.7055 57.3036H27.2561L26.9808 60.0194L26.2925 59.8836ZM34.4143 57.3036H34.965L35.3779 59.8836H34.8273L34.4143 57.3036ZM24.916 59.7479L25.3289 57.1678L25.8796 57.3036L25.3289 59.8836L24.916 59.7479ZM35.7909 57.032L36.3415 56.8963L36.8922 59.4763L36.3415 59.7479L35.7909 57.032ZM23.5394 59.4763L24.09 56.8963L24.6407 57.032L24.09 59.6121L23.5394 59.4763ZM37.0298 56.7605L37.5804 56.6247L38.2687 59.2047L37.7181 59.3405L37.0298 56.7605ZM22.1628 59.0689L22.8511 56.4889L23.4017 56.6247L22.7135 59.2047L22.1628 59.0689ZM38.2687 56.4889L38.8194 56.3531L39.5076 58.9331L39.0947 59.0689L38.2687 56.4889ZM20.7863 58.6615L21.6122 56.0815L22.1628 56.2173L21.3369 58.7973L20.7863 58.6615ZM39.5076 56.0815L39.9206 55.9457L40.7466 58.5257L40.1959 58.6615L39.5076 56.0815ZM19.4097 58.2542L20.3733 55.6741L20.7863 55.8099L19.9603 58.3899L19.4097 58.2542ZM40.7466 55.6741L41.1595 55.5383L42.1231 57.9826L41.7102 58.1184L40.7466 55.6741ZM18.1708 57.711L19.272 55.2668L19.685 55.5383L18.5837 57.9826L18.1708 57.711ZM41.9855 55.131L42.3984 54.8594L43.4997 57.3036L43.0867 57.4394L41.9855 55.131ZM16.9318 57.032L18.1708 54.5878L18.5837 54.8594L17.3448 57.3036L16.9318 57.032ZM43.0867 54.5878L43.4997 54.3162L44.7386 56.7605L44.3256 57.032L43.0867 54.5878ZM15.5553 56.3531L16.7942 54.0446L17.2072 54.3162L15.9682 56.6247L15.5553 56.3531ZM44.0503 54.0446L44.4633 53.7731L45.8399 56.0815L45.4269 56.3531L44.0503 54.0446ZM14.3164 55.6741L15.6929 53.3657L16.1059 53.6373L14.7293 55.9457L14.3164 55.6741ZM45.2893 53.3657L45.7022 53.0941L47.2165 55.2668L46.8035 55.6741L45.2893 53.3657ZM13.2151 54.8594L14.7293 52.6867L15.1423 52.9583L13.6281 55.2668L13.2151 54.8594ZM46.3905 52.6867L46.8035 52.4152L48.3177 54.5878L47.9047 54.8594L46.3905 52.6867ZM11.9762 54.0446L13.6281 51.872L14.041 52.1436L12.3892 54.452L11.9762 54.0446ZM47.4918 51.872L47.9047 51.6004L49.5566 53.7731L49.1437 54.0446L47.4918 51.872ZM11.0126 53.2299L12.6645 51.193L13.0774 51.4646L11.2879 53.5015L11.0126 53.2299ZM48.593 51.0573L49.006 50.7857L50.7955 52.8225L50.3826 53.0941L48.593 51.0573ZM10.049 52.2794L11.8385 50.2425L12.2515 50.5141L10.3243 52.551L10.049 52.2794ZM49.419 50.2425L49.8319 49.9709L51.6215 51.872L51.2085 52.1436L49.419 50.2425ZM8.81007 51.3288L10.7373 49.4278L11.1502 49.8351L9.22304 51.6004L8.81007 51.3288ZM50.3826 49.292L50.6579 48.8846L52.5851 50.7857L52.3098 51.193L50.3826 49.292ZM7.84647 50.2425L9.77367 48.4772L10.049 48.8846L8.25944 50.6499L7.84647 50.2425ZM51.2085 48.3414L51.4838 47.9341L53.5487 49.6993L53.411 50.2425L51.2085 48.3414ZM6.88286 49.292L9.08538 47.5267L9.3607 47.9341L7.29584 49.6993L6.88286 49.292ZM52.1721 47.5267L52.4474 47.1193L54.5123 48.7488L54.237 49.1562L52.1721 47.5267ZM6.05692 48.0699L8.25944 46.5762L8.53475 46.9835L6.33224 48.613L6.05692 48.0699ZM52.8604 46.4404L53.1357 46.033L55.3382 47.6625L55.0629 48.0699L52.8604 46.4404ZM5.23098 46.9835L7.43349 45.4898L7.70881 45.8972L5.50629 47.3909L5.23098 46.9835ZM53.6863 45.3541L53.9617 44.9467L56.1642 46.4404L55.8889 46.8477L53.6863 45.3541ZM4.40503 45.7614L6.74521 44.4035L7.02052 44.8109L4.68035 46.1688L4.40503 45.7614ZM54.3746 44.2677L54.6499 43.8604L56.9901 45.2183L56.7148 45.6256L54.3746 44.2677ZM3.71675 44.5393L6.05692 43.1814L6.33224 43.5888L3.99206 44.9467L3.71675 44.5393ZM55.0629 43.1814L55.3382 42.774L57.6784 43.9961L57.4031 44.4035L55.0629 43.1814ZM3.16612 43.3172L5.50629 42.0951L5.78161 42.5024L3.30378 43.7246L3.16612 43.3172ZM55.6135 42.0951L55.8889 41.6877L58.3667 42.774L58.0914 43.1814L55.6135 42.0951ZM2.47783 42.0951L4.95566 41.0088L5.23098 41.4161L2.75315 42.5024L2.47783 42.0951ZM56.1642 40.873L56.3018 40.4656L58.7797 41.5519L58.642 41.9593L56.1642 40.873ZM1.9272 40.7372L4.40503 39.7866L4.54269 40.194L2.06486 41.1445L1.9272 40.7372ZM56.5771 39.6508L56.7148 39.1077L59.3303 40.0582L59.1926 40.6014L56.5771 39.6508ZM1.51423 39.3793L4.12972 38.5645L4.26738 39.1077L1.65189 39.9224L1.51423 39.3793ZM56.9901 38.4287L57.1278 37.8856L59.7433 38.7003L59.6056 39.2435L56.9901 38.4287ZM1.10126 38.0214L3.71675 37.3424L3.8544 37.8856L1.23892 38.5645L1.10126 38.0214ZM57.4031 37.3424L57.5407 36.7992L60.1562 37.4782L60.0186 38.0214L57.4031 37.3424ZM0.688286 36.6635L3.30378 36.1203L3.44143 36.6635L0.825944 37.2066L0.688286 36.6635ZM57.6784 35.9845L57.8161 35.4413L60.4316 35.9845V36.6635L57.6784 35.9845ZM0.412972 35.3055L3.02846 34.7624L3.16612 35.3055L0.550629 35.8487L0.412972 35.3055ZM57.9537 34.7624L58.0914 34.2192L60.7069 34.6266L60.5692 35.1698L57.9537 34.7624ZM0.275315 33.9476L2.8908 33.5403V34.0834L0.275315 34.4908V33.9476ZM58.0914 33.5403V32.9971L60.8445 33.2687V33.8119L58.0914 33.5403ZM0.137657 32.5897L2.8908 32.3182V32.8613L0.137657 33.1329V32.5897ZM58.229 32.3182V31.775L60.9822 31.9108V32.4539L58.229 32.3182ZM0 31.2318L2.75315 31.096V31.6392L0 31.775V31.2318ZM58.3667 31.2318V30.6887L61.1198 30.8245V31.3676L58.3667 31.2318ZM0 30.2813V29.7381H2.75315V30.2813H0ZM58.3667 29.4666H61.1198V29.8739H58.3667V29.4666ZM0 28.7876V28.2444L2.75315 28.516V29.0592L0 28.7876ZM58.229 28.2444L60.9822 28.1087V28.516L58.229 28.6518V28.2444ZM0.137657 27.4297V26.8865L2.8908 27.1581V27.7013L0.137657 27.4297ZM58.229 26.8865L60.9822 26.615V27.1581L58.229 27.4297V26.8865ZM0.275315 26.0718V25.5286L3.02846 25.936V26.4792L0.275315 26.0718ZM57.9537 25.6644L60.5692 25.257L60.7069 25.8002L58.0914 26.2076L57.9537 25.6644ZM0.550629 24.7139L0.688286 24.1707L3.30378 24.7139L3.16612 25.257L0.550629 24.7139ZM57.8161 24.4423L60.4316 23.8991L60.5692 24.4423L57.8161 24.8497V24.4423ZM0.825944 23.356L0.963601 22.8128L3.57909 23.4918L3.44143 24.0349L0.825944 23.356ZM57.5407 23.0844L60.1562 22.4054L60.2939 22.9486L57.6784 23.6276L57.5407 23.0844ZM1.10126 21.9981L1.23892 21.5907L3.8544 22.2697L3.71675 22.8128L1.10126 21.9981ZM57.1278 21.9981L59.7433 21.1833L59.8809 21.7265L57.2654 22.5412L57.1278 21.9981ZM1.51423 20.6402L1.65189 20.2328L4.26738 21.0475L4.12972 21.4549L1.51423 20.6402ZM56.7148 20.6402L59.1926 19.8254L59.3303 20.2328L56.7148 21.0475V20.6402ZM2.06486 19.2823L2.20252 18.8749L4.68035 19.8254L4.54269 20.2328L2.06486 19.2823ZM56.1642 19.5538L58.642 18.6033L58.7797 19.0107L56.4395 19.9612L56.1642 19.5538ZM2.47783 18.0601L2.75315 17.517L5.23098 18.6033L4.95566 19.0107L2.47783 18.0601ZM55.6135 18.3317L58.0914 17.2454L58.3667 17.6528L55.8889 18.7391L55.6135 18.3317ZM3.16612 16.7022L3.44143 16.2949L5.91926 17.517L5.64395 17.9244L3.16612 16.7022ZM55.0629 17.2454L57.4031 16.0233L57.6784 16.4307L55.3382 17.6528L55.0629 17.2454ZM3.8544 15.4801L4.12972 15.0728L6.46989 16.4307L6.19458 16.838L3.8544 15.4801ZM54.5123 16.0233L56.8525 14.6654L57.1278 15.0728L54.7876 16.4307L54.5123 16.0233ZM4.54269 14.258L4.81801 13.8506L7.15818 15.3443L6.88286 15.7517L4.54269 14.258ZM53.824 14.937L56.0265 13.5791L56.3018 13.9864L53.9617 15.4801L53.824 14.937ZM5.36863 13.0359L5.64395 12.6285L7.84647 14.1222L7.57115 14.5296L5.36863 13.0359ZM52.9981 13.9864L55.2006 12.3569L55.4759 12.7643L53.2734 14.258L52.9981 13.9864ZM6.19458 11.9496L6.46989 11.5422L8.53475 13.1717L8.39709 13.5791L6.19458 11.9496ZM52.3098 12.9001L54.3746 11.2706L54.6499 11.678L52.5851 13.3075L52.3098 12.9001ZM7.02052 10.8632L7.29584 10.4559L9.49835 12.2212L9.08538 12.6285L7.02052 10.8632ZM51.3462 11.9496L53.411 10.1843L53.6863 10.5917L51.6215 12.3569L51.3462 11.9496ZM7.98412 9.77692L8.25944 9.36955L10.1866 11.1348L9.91133 11.678L7.98412 9.77692ZM50.5202 10.999L52.4474 9.09797L52.8604 9.50534L50.9332 11.4064L50.5202 10.999ZM8.94772 8.82639L9.3607 8.55481L11.2879 10.4559L10.8749 10.7275L8.94772 8.82639ZM49.5566 10.1843L51.4838 8.14743L51.8968 8.55481L49.9696 10.4559L49.5566 10.1843ZM10.049 7.87585L10.462 7.60427L12.2515 9.50534L11.8385 9.77692L10.049 7.87585ZM48.593 9.23376L50.3826 7.1969L50.7955 7.46848L49.006 9.50534L48.593 9.23376ZM11.1502 6.92532L11.5632 6.65374L13.2151 8.6906L12.8021 8.96218L11.1502 6.92532ZM47.6294 8.41901L49.2813 6.38216L49.6943 6.65374L48.0424 8.6906L47.6294 8.41901ZM12.2515 5.97479L12.6645 5.7032L14.3164 7.87585L13.7657 8.14743L12.2515 5.97479ZM46.6658 7.74006L48.1801 5.56741L48.593 5.83899L46.9411 8.01164L46.6658 7.74006ZM13.3528 5.16004L13.7657 4.88846L15.28 7.06111L14.867 7.33269L13.3528 5.16004ZM45.5646 6.92532L47.0788 4.75267L47.4918 5.02425L45.9775 7.1969L45.5646 6.92532ZM14.5917 4.48109L15.0046 4.20951L16.3812 6.51795L15.9682 6.78953L14.5917 4.48109ZM44.3256 6.24637L45.7022 3.93793L46.1152 4.20951L44.7386 6.51795L44.3256 6.24637ZM15.8306 3.80214L16.2436 3.53055L17.4825 5.83899L17.0695 6.11058L15.8306 3.80214ZM43.362 5.7032L44.601 3.39476L45.0139 3.66635L43.775 5.97479L43.362 5.7032ZM17.2072 3.12318L17.6201 2.8516L18.7214 5.29583L18.1708 5.43162L17.2072 3.12318ZM42.1231 5.16004L43.2244 2.71581L43.6374 2.98739L42.5361 5.43162L42.1231 5.16004ZM18.3084 2.44423L18.7214 2.30844L19.8227 4.75267L19.4097 4.88846L18.3084 2.44423ZM40.8842 4.61688L41.9855 2.17265L42.3984 2.30844L41.2972 4.75267L40.8842 4.61688ZM19.685 1.90107L20.098 1.76528L21.0616 4.20951L20.6486 4.48109L19.685 1.90107ZM39.6453 4.20951L40.6089 1.76528L41.1595 1.90107L40.1959 4.48109L39.6453 4.20951ZM21.0616 1.4937L21.4745 1.35791L22.3005 3.93793L21.8875 4.07372L21.0616 1.4937ZM38.4064 3.80214L39.2323 1.22212L39.783 1.35791L38.957 3.93793L38.4064 3.80214ZM22.4381 1.08632L22.9888 0.950534L23.6771 3.53055L23.1264 3.66635L22.4381 1.08632ZM37.1675 3.39476L37.8558 0.814743L38.4064 0.950534L37.7181 3.53055L37.1675 3.39476ZM23.6771 0.678953L24.2277 0.543162L24.7783 3.25897L24.2277 3.39476L23.6771 0.678953ZM35.9286 3.12318L36.4792 0.543162L37.0298 0.678953L36.4792 3.25897L35.9286 3.12318ZM25.0536 0.407372L25.6043 0.271581L26.1549 2.98739L25.6043 3.12318L25.0536 0.407372ZM34.6896 2.98739L35.1026 0.407372L35.6532 0.543162L35.2403 3.12318L34.6896 2.98739ZM26.5679 0.271581H27.1185L27.3938 2.98739H26.8432L26.5679 0.271581ZM33.3131 2.8516L33.5884 0.135791H34.139L33.8637 2.8516H33.3131ZM27.9444 0.135791H28.4951L28.6327 2.8516H28.0821L27.9444 0.135791ZM32.0742 2.71581L32.2118 0H32.7624L32.6248 2.71581H32.0742ZM29.4587 0H30.0093V2.71581H29.4587V0ZM30.8352 2.71581V0H31.3859V2.71581H30.8352Z" fill="white"/>
<path d="M31.6613 49.2926L27.2562 47.7989L27.1186 47.6631V46.441L31.6613 45.3547L31.9366 43.4536C31.6613 43.4536 31.6613 43.0463 31.6613 42.9105V41.0094C31.5236 40.8736 31.5236 40.8736 31.386 40.7378C31.2483 40.7378 31.1107 40.7378 30.973 40.7378C30.4224 40.7378 30.0094 41.1452 29.3211 41.4168C28.6328 41.5526 28.0822 41.6884 27.3939 41.6884C26.4303 41.4168 24.2278 38.9726 24.0901 38.9726V38.8368H24.2278C24.2278 38.8368 24.7784 39.3799 25.329 39.9231C25.329 39.2441 25.1914 37.7505 25.1914 36.9357C25.1914 36.7999 25.1914 36.6641 25.1914 36.3926V36.2568H25.329H25.4667V36.3926C25.4667 36.5283 25.4667 36.6641 25.4667 36.7999C25.4667 37.8862 25.6044 40.0589 25.6044 40.0589C26.0173 40.4663 26.568 40.8736 27.1186 41.1452C27.6692 39.9231 27.9445 38.5652 28.2198 37.2073C28.2198 37.2073 28.3575 36.2568 28.3575 35.0347V34.8989C28.3575 34.8989 28.3575 34.8989 28.4952 34.8989H28.6328C28.6328 34.8989 28.6328 34.8989 28.6328 35.0347C28.4952 36.2568 28.4952 37.2073 28.4952 37.2073C28.2198 38.5652 27.9445 39.9231 27.3939 41.1452C27.9445 41.1452 28.4952 41.0094 29.0458 40.8736C29.7341 40.7378 30.1471 40.1947 30.8353 40.1947C30.973 40.1947 31.1107 40.1947 31.2483 40.1947C31.2483 40.0589 31.2483 40.0589 31.2483 39.9231C31.2483 39.7873 31.2483 39.6515 31.2483 39.5157C31.386 38.9726 31.6613 38.4294 31.9366 37.8862C32.0743 37.6147 32.2119 37.3431 32.2119 37.0715V37.2073C32.2119 37.3431 32.0743 37.3431 31.9366 37.3431C31.6613 37.3431 31.5236 36.9357 31.5236 37.0715V36.9357C31.5236 36.6641 31.6613 36.3926 31.7989 36.121V35.9852C31.6613 36.121 31.5236 36.121 31.386 36.121H31.1107C30.8353 35.9852 30.56 35.8494 30.4224 35.7136L30.0094 35.3062C29.8717 35.1705 29.7341 35.1704 29.7341 35.0347C29.7341 34.8989 29.8717 34.7631 30.0094 34.7631C30.0094 34.7631 30.0094 34.7631 30.0094 34.6273C30.0094 34.4915 30.1471 34.3557 30.2847 34.3557H30.4224C30.6977 34.4915 30.8353 34.6273 30.973 34.8989H31.1107L31.2483 34.7631C31.2483 34.7631 31.2483 34.7631 31.2483 34.6273V34.4915C31.2483 34.0841 31.386 33.8126 31.5236 33.4052C31.5236 33.2694 31.6613 33.1336 31.7989 32.9978C31.6613 32.7262 31.5236 32.3189 31.5236 31.9115C31.5236 31.3683 31.7989 30.961 32.0743 30.5536C32.0743 30.4178 31.9366 29.4673 31.9366 28.7883C31.9366 28.6525 31.9366 28.6525 31.9366 28.5167C31.9366 28.1094 32.3496 26.6157 32.6249 25.2578V25.122H32.7625H32.9002V25.2578C32.6249 26.6157 32.2119 28.2452 32.2119 28.5167C32.2119 28.6525 32.2119 28.6525 32.2119 28.7883C32.2119 29.1957 32.2119 29.8746 32.3496 30.282C32.6249 30.0104 32.9002 29.8746 33.3132 29.6031H33.4508C33.4508 29.6031 33.4508 29.6031 33.5885 29.7389V29.8746C33.5885 29.8746 33.5885 29.8746 33.4508 30.0104C33.4508 30.0104 31.7989 30.6894 31.9366 32.0473C31.9366 32.3189 32.0743 32.5904 32.0743 32.862L32.6249 32.4547C32.7625 32.3189 33.0379 32.1831 33.4508 32.1831C33.5885 32.1831 33.7261 32.1831 33.8638 32.3189C34.0015 31.7757 34.4144 31.2325 34.8274 30.8252C34.9651 30.5536 35.1027 30.4178 35.1027 30.1462H34.9651C34.8274 30.1462 34.8274 30.1462 34.8274 30.0104C34.8274 30.0104 34.5521 28.9241 34.4144 28.381V28.2452C34.5521 27.5662 34.8274 27.0231 35.2404 26.6157C35.378 26.4799 35.378 26.3441 35.5157 26.2083C35.378 25.9367 35.2404 25.5294 35.1027 25.2578C35.1027 24.9862 35.1027 24.7146 35.1027 24.443C34.9651 24.3073 34.8274 24.1715 34.8274 24.0357V23.8999C34.8274 23.6283 34.6897 23.4925 34.5521 23.2209L32.9002 22.4062C32.9002 22.542 32.7625 22.6778 32.6249 22.8136C32.4872 22.9494 32.3496 23.0851 32.0743 23.2209C31.9366 23.2209 31.7989 23.3567 31.6613 23.3567H31.5236V23.2209L31.386 22.9494C31.1107 22.6778 30.973 22.4062 30.973 21.9988C30.2847 21.9988 29.5964 21.863 28.9081 21.7272L29.0458 22.1346C29.0458 22.2704 29.1835 22.542 29.1835 22.6778C29.1835 22.8136 29.1835 22.9494 29.1835 22.9494C29.1835 22.9494 29.0458 24.0357 28.4952 24.3073C28.3575 24.3073 28.2198 24.443 27.9445 24.443C27.2562 24.443 26.4303 24.3073 26.155 24.0357C26.155 23.7641 26.0173 23.7641 25.4667 23.4925C24.2278 24.443 23.4018 25.9367 23.5395 27.5662C23.5395 27.8378 23.5395 28.2452 23.5395 28.5167L23.8148 28.6525C23.8148 28.5167 23.8148 28.381 23.8148 28.381C23.8148 28.1094 23.8148 27.8378 24.0901 27.702C24.2278 27.5662 24.2278 27.5662 24.3654 27.4304C24.5031 27.2946 24.7784 27.0231 25.0537 26.8873C25.1914 26.8873 25.329 26.7515 25.4667 26.6157C25.742 26.2083 26.155 26.0725 26.568 25.9367H26.7056C27.3939 25.9367 28.0822 26.0725 28.7705 26.2083C29.0458 26.4799 29.3211 26.6157 29.5964 26.7515L29.7341 26.8873H29.8717V24.3073C29.8717 24.1715 29.8717 24.1715 30.0094 24.1715H30.1471C30.1471 24.1715 30.1471 24.1715 30.1471 24.3073V26.8873C30.4224 26.8873 30.6977 27.1588 30.6977 27.4304C30.8353 27.5662 30.8353 27.702 30.8353 27.8378C30.8353 27.9736 30.8353 27.9736 30.6977 28.1094C30.973 28.2452 31.386 28.381 31.5236 28.6525C31.5236 28.7883 31.6613 28.9241 31.6613 29.0599C31.6613 29.4673 31.386 29.7389 31.1107 29.8746H30.4224C30.2847 30.1462 30.147 30.4178 30.0094 30.5536C30.0094 30.6894 30.0094 31.2325 30.0094 31.5041C30.0094 31.7757 29.7341 31.9115 29.5964 31.7757H29.4588C29.3211 31.9115 29.3211 32.0473 29.0458 32.1831C28.9081 32.1831 28.7705 32.3189 28.6328 32.4547C28.6328 32.4547 28.4952 32.5904 28.2198 32.7262C28.0822 32.7262 28.0822 32.7262 27.9445 32.7262C27.3939 32.7262 26.9809 32.5904 26.568 32.1831C26.4303 31.9115 26.2926 31.7757 26.155 31.5041V31.3683H26.2926C26.4303 31.6399 26.568 31.7757 26.7056 32.0473C26.9809 32.3189 27.3939 32.4547 27.8069 32.4547H28.0822C28.2198 32.4547 28.2198 32.3189 28.4952 32.1831L28.3575 32.0473V31.9115H28.4952L28.6328 32.0473H28.9081L29.0458 31.9115C28.9081 31.9115 28.7705 31.7757 28.7705 31.6399C28.7705 31.6399 28.7705 31.6399 28.7705 31.5041H28.9081V31.2325H29.0458H29.1835H29.3211C29.4588 31.2325 29.4588 31.2325 29.4588 31.0968C29.4588 30.8252 29.4588 30.1462 29.4588 30.1462V30.0104C29.7341 29.8746 29.8717 29.6031 29.8717 29.3315V29.1957H29.7341C29.5964 29.1957 29.5964 29.1957 29.5964 29.1957C29.3211 29.3315 29.0458 29.6031 28.7705 29.7389L28.2198 29.8746C28.2198 30.0104 27.9445 30.1462 27.3939 30.5536L26.0173 31.2325C26.155 31.7757 26.2926 32.3189 26.2926 32.3189C26.2926 32.4546 26.4303 32.7262 26.4303 32.862C26.4303 33.4052 26.155 35.3062 24.5031 35.5778C23.9525 36.2568 23.1265 36.6641 22.3006 36.7999C22.5759 37.3431 22.8512 37.8862 22.9889 38.4294C22.9889 38.701 23.4018 39.7873 23.6772 40.602C23.8148 41.1452 23.9525 41.6884 24.0901 41.6884C24.2278 41.9599 24.3654 42.3673 24.3654 42.7747C24.3654 42.9105 24.3654 43.0463 24.3654 43.0463C24.6408 43.3178 24.7784 43.5894 24.9161 43.9968C25.0537 44.2684 25.1914 44.6757 25.1914 44.9473C25.1914 45.3547 25.1914 45.6263 25.0537 46.0336C25.0537 46.441 24.7784 46.5768 24.2278 47.12C23.9525 47.3915 23.4018 47.5273 22.9889 47.5273C22.5759 47.5273 22.1629 47.5273 21.75 47.3915C20.924 47.12 20.0981 46.9842 19.1345 46.8484C18.1709 46.5768 17.3449 46.3052 16.519 45.7621C15.693 45.2189 15.0047 44.6757 14.1788 43.9968C13.9035 43.861 13.6282 43.7252 13.3528 43.7252C12.9399 44.1326 12.3892 44.4042 11.9763 44.8115C11.8386 44.9473 11.8386 44.9473 11.701 45.0831C11.701 45.2189 11.701 45.2189 11.8386 45.3547C11.8386 45.3547 11.8386 45.3547 12.1139 45.4905H12.3892C12.5269 45.4905 12.5269 45.6263 12.5269 45.6263C12.5269 45.8979 12.3892 46.1694 12.1139 46.1694V46.3052C12.1139 46.5768 11.8386 46.5768 11.701 46.5768H11.4256H11.0127C10.875 46.441 10.7374 46.3052 10.7374 46.1694V46.0336L10.462 45.6263C10.3244 45.3547 10.1867 45.0831 10.0491 44.8115C10.0491 44.8115 10.0491 44.8115 10.0491 44.6757C10.1867 43.9968 10.462 43.3178 10.7374 42.7747C10.875 42.3673 11.0127 41.8242 11.0127 41.4168C11.0127 41.1452 11.1503 41.0094 11.288 40.8736C10.875 40.3305 10.5997 39.6515 10.5997 38.9726C10.5997 38.701 10.5997 38.5652 10.5997 38.2936C10.3244 37.8863 10.1867 37.4789 10.1867 37.0715C9.91142 37.2073 9.6361 37.4789 9.36079 37.6147H9.22313C8.94781 37.6147 8.53484 37.4789 8.25953 37.2073C7.98421 36.9357 7.84656 36.6641 7.98421 36.2568C7.98421 35.8494 8.12187 35.442 8.12187 35.1705C8.25953 34.7631 8.53484 34.3557 8.94781 34.0841C8.81016 34.0841 8.6725 34.0841 8.53484 34.0841C8.39719 33.9483 8.25953 33.9483 8.12187 33.8125C7.84656 33.541 7.7089 33.541 7.02061 33.541C6.88295 33.541 6.88295 33.541 6.7453 33.541C6.46998 33.541 6.19467 33.4052 5.91935 33.4052C5.50638 33.2694 5.23107 33.2694 5.09341 32.9978V32.862H5.23107L4.12981 32.0473C3.99215 31.9115 3.85449 31.7757 3.85449 31.5041C3.85449 31.3683 3.99215 31.0968 4.12981 31.0968C4.81809 30.282 5.50638 29.4673 6.05701 28.5167C6.33232 27.4304 6.46998 26.3441 6.46998 25.122C6.7453 23.2209 7.43358 22.542 7.7089 22.2704C7.43358 22.1346 7.29593 21.7272 7.29593 21.3199C7.29593 21.0483 7.29593 20.9125 7.43358 20.7767C7.29593 20.5051 7.15827 20.3693 7.02061 20.2336C6.88295 19.962 6.7453 19.6904 6.7453 19.283C6.7453 19.1472 6.7453 18.8757 6.88295 18.7399C7.15827 18.4683 7.43358 18.0609 7.7089 17.7893C8.6725 16.0241 9.77376 15.6167 9.91142 15.6167C9.91142 15.4809 9.91142 15.3451 10.0491 15.3451C10.1867 14.5304 10.875 14.3946 11.288 14.123C11.5633 13.9872 12.1139 13.0367 12.6646 12.7651C13.4905 12.4935 14.3165 12.2219 15.2801 12.0862C15.693 11.9504 16.106 11.9504 16.519 11.9504C17.0696 11.9504 17.6202 11.9504 18.0332 12.0862H18.1709C18.5838 12.0862 18.9968 12.2219 19.4098 12.3577C19.4098 12.0862 19.5474 11.8146 19.8227 11.6788H19.9604C20.0981 11.1356 21.0617 10.9998 21.337 10.864C21.4746 10.3209 22.1629 10.1851 22.7136 10.1851C22.9889 10.1851 23.4018 10.1851 23.6772 10.3209C23.8148 10.3209 23.9525 10.3209 23.9525 10.3209C24.6408 10.3209 25.329 10.4567 25.8797 10.864H26.0173C26.568 10.864 26.9809 11.2714 27.2562 11.6788C27.6692 11.8146 27.8069 12.2219 27.8069 12.6293C27.8069 12.9009 27.8069 13.0367 27.6692 13.3083C27.6692 13.5798 27.3939 13.8514 27.1186 13.8514H26.9809C26.8433 13.8514 26.7056 13.8514 26.7056 13.7156C26.7056 13.7156 26.568 13.8514 26.568 13.9872C26.2926 14.5304 26.155 15.0735 26.0173 15.6167C26.0173 15.7525 25.8797 15.8883 25.742 16.0241C25.6044 16.0241 25.6044 16.0241 25.4667 15.8883L25.329 16.0241C25.1914 16.0241 25.0537 16.1599 24.9161 16.1599C24.9161 16.2956 24.7784 16.2956 24.6408 16.4314L24.5031 16.5672C24.5031 16.703 24.3654 16.9746 24.0901 16.9746C23.8148 16.9746 23.5395 16.8388 23.2642 16.703L22.5759 16.4314C22.5759 16.8388 22.4382 17.2462 22.3006 17.5178V17.6535C22.3006 17.9251 22.3006 18.0609 22.3006 18.3325C22.3006 18.4683 22.1629 18.4683 22.0253 18.6041C22.3006 18.7399 22.8512 19.1472 22.9889 19.5546L23.2642 19.6904H23.5395L24.7784 19.4188C24.9161 19.4188 25.4667 19.5546 25.4667 19.5546L25.6044 19.6904C25.6044 19.6904 25.6044 19.6904 25.6044 19.8262C25.6044 20.0978 25.1914 20.2336 25.1914 20.2336H24.7784V20.3693C24.7784 20.5051 24.7784 20.5051 24.7784 20.6409C24.7784 20.9125 24.6408 21.0483 24.5031 21.1841V21.3199C24.5031 21.5915 24.3654 21.863 24.0901 21.9988C23.8148 22.1346 23.6772 22.2704 23.4018 22.2704C22.9889 22.2704 22.7136 22.1346 22.3006 21.863H20.924C20.0981 21.863 19.4098 21.3199 18.9968 20.5051C18.8591 20.3693 18.8591 20.2336 18.8591 20.0978C18.8591 19.962 18.8591 19.962 18.8591 19.8262L18.0332 20.2336C18.0332 20.2336 18.0332 20.2336 18.0332 20.3693C18.4462 21.1841 18.7215 21.9988 18.8591 22.9494V23.0851C18.8591 23.8999 18.9968 24.7146 19.2721 25.5294C19.4098 26.0725 19.6851 26.6157 19.9604 27.0231C20.2357 27.0231 20.511 27.1588 20.6487 27.2946C20.924 27.4304 21.0617 27.5662 21.337 27.702C21.4746 27.702 21.6123 27.8378 21.6123 27.8378C21.75 27.8378 22.4382 28.1094 22.9889 28.2452C22.9889 27.9736 22.9889 27.702 22.9889 27.4304C22.8512 25.8009 23.5395 24.1715 24.9161 23.0851C24.9161 22.9494 24.7784 22.9494 24.7784 22.8136C24.7784 22.2704 25.6044 21.5915 25.6044 21.4557C25.6044 21.3199 25.6044 21.4557 25.742 20.9125C25.8797 20.2336 26.155 19.4188 26.4303 18.7399C26.568 18.4683 26.7056 18.3325 26.9809 18.1967C27.1186 17.7893 27.5316 17.5178 27.9445 17.5178H28.0822C28.2198 17.5178 28.3575 17.5178 28.4952 17.5178H28.9081C29.1834 17.382 29.4588 17.382 29.7341 17.2462C29.7341 17.2462 30.2847 17.2462 30.4224 17.6535C30.6977 17.7893 30.8353 17.9251 30.973 18.1967C30.8353 18.1967 31.386 18.1967 31.386 18.7399C31.6613 18.7399 31.6613 18.8757 31.6613 19.0114C31.7989 19.1472 31.9366 19.1472 31.9366 19.283L32.3496 18.3325C32.6249 17.7893 32.7625 17.2462 32.7625 16.703C32.7625 16.0241 32.6249 15.4809 32.3496 14.802C32.3496 14.802 32.2119 14.9377 32.0743 14.9377L31.9366 15.0735C31.7989 15.2093 31.7989 15.2093 31.6613 15.3451C31.386 15.4809 31.2483 15.4809 30.973 15.6167C30.8353 16.0241 30.4224 15.8883 30.0094 16.1599C29.8717 16.2956 29.5964 16.2956 29.4588 16.2956C29.1834 16.2956 28.9081 16.1599 28.7705 16.0241C28.7705 16.0241 27.9445 15.2093 27.8069 15.0735C27.8069 15.2093 27.6692 15.2093 27.2562 15.2093C26.9809 15.2093 26.7056 15.0735 26.568 14.802C26.568 14.802 26.568 14.802 26.568 14.6662C26.7056 14.3946 27.1186 14.2588 27.1186 14.2588C27.3939 14.123 27.8069 13.9872 28.2198 13.8514H28.3575C28.3575 13.4441 28.3575 13.0367 28.6328 12.7651C28.9081 12.6293 29.0458 12.3577 29.3211 12.3577C29.1834 12.2219 29.1835 11.9504 29.1835 11.6788C29.1835 11.2714 29.3211 10.864 29.5964 10.4567C30.2847 9.64194 30.6977 9.37036 30.973 9.37036L31.7989 9.23457C32.2119 9.50615 32.6249 9.37036 33.0379 9.37036C33.3132 9.37036 33.5885 9.50615 33.8638 9.64194C34.0015 9.37036 34.2768 9.23457 34.4144 9.09878C34.8274 8.96299 35.2404 8.8272 35.791 8.69141H36.0663C36.6169 8.69141 37.3052 8.8272 37.7182 9.23457C38.1312 9.23457 38.5442 9.50615 38.6818 9.77773C38.9571 10.1851 39.0948 10.7283 39.2324 11.1356C39.2324 11.2714 39.0948 11.4072 39.0948 11.6788V11.8146C39.0948 12.0862 39.0948 12.3577 38.9571 12.7651C40.3337 13.3083 41.435 14.2588 42.2609 15.4809C42.3986 15.6167 42.6739 16.0241 42.6739 16.4314V16.5672C43.0868 16.8388 43.3622 17.1104 43.6375 17.5178C44.0504 17.5178 44.4634 17.382 44.8764 17.382C45.2894 17.382 45.7023 17.382 46.1153 17.5178H46.3906C46.6659 17.5178 46.9412 17.5178 47.0789 17.6535C47.2166 17.6535 47.2166 17.6535 47.3542 17.6535H47.6295C48.3178 17.6535 49.0061 17.7893 49.6944 18.3325L50.658 18.0609H51.071C52.3099 18.0609 53.4111 19.1472 53.2735 20.3693C53.2735 20.9125 52.9982 21.3199 52.7229 21.7272C53.4111 23.6283 53.8241 25.6652 53.9618 27.702C54.0994 28.6525 54.0994 29.4673 54.0994 30.4178C53.9618 33.4052 53.5488 36.3926 52.7229 39.2441C52.5852 39.6515 52.5852 39.9231 52.5852 40.3305C52.5852 41.8242 53.1358 43.3178 53.6865 43.3178L53.8241 43.4536C53.8241 43.5894 53.8241 43.5894 53.6865 43.5894C53.6865 43.5894 51.2086 43.861 49.6944 43.861H49.5567H48.3178C46.5283 43.7252 44.7387 43.7252 44.0504 43.5894C44.0504 43.5894 44.0504 43.7252 44.0504 43.5894C44.3258 43.9968 44.6011 44.4042 44.7387 44.8115C44.7387 45.2189 44.3258 45.4905 44.1881 45.6263C44.0504 45.7621 43.6375 45.8979 43.4998 45.8979C43.3622 45.8979 43.2245 46.0336 43.0868 46.0336H42.8115C42.5362 46.0336 42.3986 45.8979 42.1232 45.8979C41.9856 45.8979 41.7103 45.8979 41.5726 45.8979H41.435C41.022 45.7621 41.022 45.3547 40.8843 44.9473V44.8115C40.8843 44.6757 40.8843 44.54 40.8843 44.4042C40.8843 44.1326 41.022 43.9968 41.1596 43.7252C41.2973 43.5894 41.2973 43.4536 41.2973 43.1821C40.609 43.0463 40.3337 42.7747 39.9207 41.281L39.6454 40.1947C39.3701 39.6515 39.2324 38.9726 39.3701 38.4294C39.3701 37.7505 39.6454 37.0715 39.9207 36.3926C40.0584 35.9852 41.022 34.2199 41.022 34.2199L41.5726 33.1336V32.9978C41.435 32.9978 40.8843 32.9978 40.3337 33.1336C40.3337 34.2199 40.0584 35.3062 39.6454 36.2568L38.4065 38.1578C38.2688 38.2936 38.2688 38.5652 38.2688 38.701C38.2688 38.8368 38.2688 38.8368 38.2688 38.9726C38.2688 39.1084 38.2688 39.3799 38.1312 39.5157C38.1312 39.7873 38.2688 40.0589 38.4065 40.1947C38.5442 40.3305 38.8195 40.4663 38.9571 40.8736V41.0094C38.9571 41.4168 38.6818 41.6884 38.2688 41.8242C37.9935 42.0957 37.5805 42.0957 37.3052 42.0957C37.0299 42.0957 36.7546 42.0957 36.3416 42.0957C36.204 42.0957 35.9287 41.9599 35.791 41.8242C35.6533 41.6884 35.6533 41.4168 35.6533 41.281V41.1452C35.6533 41.1452 35.9287 40.3305 35.9287 40.1947C35.9287 40.0589 35.9287 39.9231 35.9287 39.7873C35.9287 39.6515 35.9287 39.5157 35.9287 39.3799C35.9287 38.8368 36.204 38.4294 36.4793 38.022C36.6169 37.7505 36.6169 37.3431 36.6169 37.0715C36.6169 36.9357 36.6169 36.6641 36.6169 36.6641C36.6169 36.5284 36.6169 36.5283 36.6169 36.3926C36.6169 35.9852 36.6169 34.8989 36.6169 34.2199C35.791 35.5778 34.9651 36.7999 34.0015 38.022C34.0015 38.1578 34.0015 38.2936 34.0015 38.4294C34.0015 38.8368 34.1391 39.2442 34.1391 39.6515C34.1391 39.7873 34.1391 39.9231 34.1391 40.1947C34.1391 40.602 34.0015 41.0094 33.7261 41.4168L34.1391 44.6757L34.8274 44.54L39.5078 45.4905C39.5078 45.4905 39.6454 45.4905 39.6454 45.6263V46.7126C39.6454 46.7126 39.6454 46.8484 39.5078 46.8484L31.6613 49.2926ZM31.7989 48.8852L39.6454 46.5768V45.7621L31.7989 47.9347V48.8852ZM27.3939 47.5273L31.5236 48.8852V48.0705L27.3939 46.7126V47.5273ZM31.6613 47.7989L39.2324 45.6263L35.1027 44.8115L34.4144 44.9473L34.5521 46.1694C34.5521 46.3052 34.5521 46.3052 34.4144 46.3052C34.2768 46.3052 34.2768 46.3052 34.2768 46.1694L33.8638 44.9473L32.2119 45.3547L31.6613 46.8484C31.6613 46.8484 31.6613 46.8484 31.5236 46.9842H31.386C31.2483 46.9842 31.2483 46.8484 31.2483 46.8484L31.5236 45.6263L27.6692 46.5768L31.6613 47.7989ZM13.4905 43.5894C13.7658 43.5894 14.1788 43.7252 14.4541 43.9968C15.1424 44.6757 15.9683 45.2189 16.6566 45.7621C17.4826 46.1694 18.3085 46.5768 19.1345 46.8484C19.9604 46.9842 20.924 47.12 21.75 47.3915C22.1629 47.5273 22.4382 47.5273 22.8512 47.5273C23.2642 47.5273 23.5395 47.3915 23.8148 47.2558C24.3654 46.5768 24.5031 46.5768 24.6408 46.3052C24.6408 46.0336 24.7784 45.6263 24.7784 45.2189C24.7784 44.9473 24.7784 44.6758 24.6408 44.4042C24.5031 44.1326 24.3654 43.861 24.0901 43.7252C24.0901 43.7252 24.0901 43.861 23.9525 43.861C23.6772 45.2189 22.3006 46.1694 20.924 46.0336H20.7863C21.1993 46.1694 21.6123 46.441 21.8876 46.5768V46.7126H21.75C21.1993 46.441 20.511 46.1694 19.9604 45.8979L19.6851 45.7621C19.4098 45.6263 16.3813 44.54 15.0047 43.861C13.7658 43.0463 12.5269 42.2315 11.5633 41.1452C11.4256 41.281 11.4256 41.4168 11.4256 41.5526C11.4256 41.9599 11.288 42.5031 11.1503 42.9105C10.7374 43.4536 10.462 44.1326 10.3244 44.8115C10.3244 44.9473 10.875 46.0336 11.0127 46.1694L11.1503 46.3052C11.288 46.3052 11.288 46.3052 11.4256 46.3052H11.701H11.8386C11.8386 46.1694 11.8386 46.0336 11.9763 46.0336L12.1139 45.8979V45.7621L11.8386 45.6263C11.701 45.6263 11.5633 45.4905 11.4256 45.3547C11.4256 45.2189 11.288 45.2189 11.288 45.0831V44.9473C11.4256 44.8115 11.5633 44.6757 11.701 44.54C12.2516 44.1326 12.8022 43.861 13.3528 43.5894H13.4905ZM42.3986 45.6263C42.5362 45.7621 42.8115 45.7621 42.9492 45.7621H43.2245C43.3622 45.7621 43.3622 45.7621 43.4998 45.7621C43.6375 45.6263 44.0504 45.4905 44.0504 45.4905C44.1881 45.4905 44.6011 45.0831 44.4634 44.9473C44.3258 44.54 44.0504 44.1326 43.7751 43.861L43.9128 43.4536C43.7751 43.1821 43.7751 42.7747 43.7751 42.3673C43.7751 42.0957 43.7751 41.9599 43.9128 41.6884C44.1881 41.1452 47.2166 36.7999 47.2166 33.6768V33.541C47.0789 33.6768 47.0789 33.6768 46.9412 33.8125C45.7023 35.0347 44.4634 36.2568 43.0868 37.2073C42.9492 38.4294 42.8115 39.5157 42.5362 40.7378C42.2609 41.281 42.1232 41.8242 41.9856 42.3673C41.9856 42.7747 41.8479 43.3178 41.7103 43.7252C41.5726 43.861 41.5726 44.1326 41.435 44.2684C41.435 44.4042 41.435 44.54 41.435 44.54V44.6757C41.435 45.0831 41.5726 45.3547 41.7103 45.3547H41.8479C41.9856 45.6263 42.1232 45.6263 42.3986 45.6263ZM20.0981 45.6263H20.6487H20.924C23.1265 45.6263 23.2642 44.6758 23.6772 43.7252C23.6772 43.5894 23.8148 43.4536 23.8148 43.4536V43.3178C23.8148 43.1821 23.8148 43.1821 23.8148 43.0463C23.8148 42.6389 23.6772 42.3673 23.5395 42.0957C23.5395 41.9599 23.4018 41.5526 23.1265 41.0094C22.8512 40.0589 22.5759 38.9726 22.4382 38.701C22.3006 38.1578 22.0253 37.6147 21.75 37.0715C21.1993 37.0715 20.7863 36.9357 20.3734 36.5283V36.6641L19.9604 37.4789C19.6851 38.022 19.5474 38.5652 19.2721 39.1084C19.2721 39.1084 19.2721 39.2441 19.4098 39.2441L19.8227 39.3799C20.0981 39.5157 20.3734 39.6515 20.6487 39.7873C20.7863 39.9231 20.924 40.0589 21.0617 40.3305L21.1993 40.4663C21.337 40.602 21.4746 40.602 21.6123 40.7378L22.3006 41.5526C22.4382 41.6884 22.4382 41.6884 22.4382 41.8242V41.9599C22.3006 42.0957 22.3006 42.0957 22.1629 42.0957H22.0253L21.1993 41.5526H21.0617C21.1993 41.6884 21.1993 41.8242 21.337 41.9599L21.6123 42.6389V42.7747C21.6123 42.9105 21.4746 43.0463 21.337 43.0463H21.1993C21.0617 43.0463 20.924 42.9105 20.7863 42.7747L20.6487 42.3673L20.511 42.2315L20.6487 42.6389L20.7863 43.1821C20.7863 43.1821 20.7863 43.1821 20.7863 43.3178C20.7863 43.4536 20.6487 43.5894 20.6487 43.5894H20.511C20.3734 43.5894 20.3734 43.5894 20.2357 43.4536L19.6851 42.5031C19.5474 42.7747 19.2721 42.7747 19.1345 42.9105C18.9968 42.9105 18.9968 42.9105 18.8591 43.0463C18.8591 43.0463 18.7215 43.1821 18.5838 43.1821H18.4462C18.3085 43.1821 18.3085 43.0463 18.3085 42.9105C18.3085 42.7747 18.3085 42.7747 18.3085 42.6389C18.4462 42.5031 18.5838 42.5031 18.5838 42.3673C18.5838 42.2315 18.5838 42.0957 18.4462 42.0957L18.3085 41.9599C18.1709 41.8242 18.1709 41.8242 18.0332 41.8242L17.4826 41.4168C17.0696 40.8736 16.7943 40.1947 16.7943 39.5157C16.519 39.6515 15.8307 39.7873 15.1424 39.7873C14.5918 39.7873 14.0411 39.7873 13.3528 39.6515C12.3892 39.6515 11.4256 39.2441 10.5997 38.5652C10.5997 38.701 10.5997 38.8368 10.5997 38.9726C10.5997 39.6515 10.875 40.3305 11.288 40.7378C12.2516 41.8242 13.4905 42.6389 14.7294 43.4536C16.106 44.1326 18.9968 45.2189 19.2721 45.3547L19.5474 45.4905L20.0981 45.6263ZM32.3496 43.4536L32.0743 45.3547L33.0379 42.6389L33.1755 42.5031C33.1755 42.5031 33.3132 42.5031 33.3132 42.6389L34.1391 44.8115L33.5885 41.281V40.8736C33.4508 40.8736 33.1755 41.0094 33.0379 41.1452C32.7625 41.6884 32.6249 42.2315 32.4872 42.6389C32.4872 43.0463 32.4872 43.3178 32.3496 43.4536ZM32.3496 45.2189L33.8638 44.8115L33.1755 43.0463L32.3496 45.2189ZM48.4555 43.5894H49.5567H50.245C49.5567 43.1821 48.1802 42.0957 48.1802 39.1084V38.9726C48.1802 38.9726 48.1802 38.9726 48.3178 38.9726C48.4555 38.9726 48.4555 38.9726 48.4555 39.1084C48.5931 43.1821 51.071 43.5894 51.071 43.5894C52.0346 43.5894 52.8605 43.4536 53.4111 43.4536C52.7229 42.5031 52.4475 41.5526 52.4475 40.4663C52.4475 40.0589 52.4475 39.6515 52.5852 39.2441C53.4111 36.3926 53.8241 33.541 53.9618 30.5536C53.9618 29.7389 53.9618 28.7883 53.8241 27.9736C53.6865 25.9367 53.2735 24.0357 52.7229 22.1346C52.4475 22.4062 52.1722 22.6778 52.1722 22.6778L50.9333 23.4925C50.3827 24.1715 49.6944 24.7146 48.8685 25.122C48.5931 25.2578 48.3178 25.3936 48.0425 25.5294L46.9412 29.7389C46.9412 29.8746 46.8036 29.8746 46.8036 29.8746C46.8036 29.8746 46.8036 29.8746 46.6659 29.8746V29.7389L47.7672 25.6652H47.4919C47.3542 25.6652 47.2166 25.6652 47.0789 25.6652C44.0504 29.3315 42.1232 33.9483 41.5726 38.5652C41.7103 38.4294 41.7103 38.4294 41.8479 38.2936L42.9492 37.4789C44.3258 36.3926 45.7023 35.3062 46.9412 33.9483C47.0789 33.8126 47.2166 33.6768 47.3542 33.541C47.9049 33.2694 48.4555 33.1336 49.0061 33.1336C49.1438 33.1336 49.2814 33.1336 49.2814 33.1336H49.4191C49.4191 33.1336 49.4191 33.1336 49.4191 33.2694V33.4052C49.4191 33.4052 49.4191 33.4052 49.2814 33.4052H49.0061C48.5931 33.4052 48.0425 33.541 47.6295 33.6768V33.9483C47.6295 37.2073 44.4634 41.4168 44.1881 42.0957C44.1881 42.0957 44.0504 42.3673 44.0504 42.5031C44.0504 42.7747 44.0504 43.0463 44.1881 43.3178H44.3258H44.6011C44.8764 43.3178 45.1517 43.3178 45.5647 43.3178H46.8036C46.253 42.9105 45.7023 42.5031 45.1517 41.9599C45.1517 41.9599 45.1517 41.9599 45.1517 41.8242V41.6884H45.2894C45.84 42.3673 46.6659 42.9105 47.4919 43.1821H48.3178L48.4555 43.5894ZM20.6487 43.3178C20.6487 43.1821 20.511 42.7747 20.511 42.7747L20.3734 42.2315L20.2357 41.8242L20.0981 41.4168V41.281H20.2357C20.2357 41.281 20.3734 41.281 20.3734 41.4168L21.0617 42.2315L21.337 42.7747H21.4746C21.6123 42.7747 21.6123 42.7747 21.6123 42.6389C21.6123 42.6389 21.6123 42.6389 21.6123 42.5031L21.1993 42.0957C21.0617 41.8242 20.924 41.5526 20.6487 41.4168V41.281H20.7863L21.4746 41.5526L22.3006 42.0957L21.6123 41.281C21.4746 41.1452 21.337 41.1452 21.1993 41.0094C21.0617 41.0094 21.0617 40.8736 21.0617 40.7378L20.924 40.602L20.6487 40.0589C20.3734 39.9231 20.2357 39.7873 19.9604 39.6515C19.8227 39.6515 19.2721 39.6515 19.1345 39.1084C19.2721 38.5652 19.5474 38.022 19.8227 37.4789L20.2357 36.6641L20.3734 36.3926C20.6487 35.9852 20.7863 35.5778 20.924 35.0347C20.924 35.0347 20.924 34.8989 21.0617 34.8989C21.0617 34.8989 22.0253 34.7631 22.0253 34.3557C22.0253 34.2199 22.0253 34.0841 22.0253 33.9483C22.0253 33.541 21.8876 32.9978 19.5474 32.1831C18.9968 32.5904 18.5838 32.9978 18.3085 33.541C18.0332 34.0841 17.8955 34.6273 17.7579 35.1705C17.6202 35.7136 17.4826 36.3926 17.4826 36.9357C17.4826 37.0715 17.4826 37.0715 17.4826 37.2073C17.4826 37.7505 17.4826 38.4294 17.6202 38.9726C17.6202 38.9726 17.6202 38.9726 17.6202 39.1084C17.6202 39.7873 17.7579 40.4663 18.1709 41.0094L18.7215 41.4168C18.7215 41.4168 19.1345 41.6884 19.2721 41.8242C19.2721 41.9599 19.2721 42.0957 19.2721 42.2315V42.3673C19.1345 42.5031 19.1345 42.5031 18.9968 42.6389C18.9968 42.6389 18.9968 42.6389 18.9968 42.7747C19.1345 42.6389 19.2721 42.6389 19.4098 42.6389C19.5474 42.6389 19.5474 42.6389 19.6851 42.5031L19.8227 42.3673C19.8227 42.2315 19.8227 42.0957 19.8227 42.0957C19.8227 42.0957 19.8227 41.9599 19.9604 41.9599C19.9604 41.9599 20.0981 41.9599 20.0981 42.0957L20.6487 43.3178ZM32.0743 42.9105C32.0743 43.0463 32.0743 43.0463 32.0743 43.1821C32.2119 43.0463 32.2119 42.9105 32.2119 42.7747C32.3496 42.2315 32.4872 41.6884 32.7625 41.1452C33.0379 40.8736 33.3132 40.7378 33.5885 40.602H33.7261C33.7261 40.602 33.7261 40.602 33.7261 40.7378V40.8736C33.8638 40.602 34.0015 40.3305 34.0015 40.0589C34.0015 39.9231 34.0015 39.7873 34.0015 39.6515C33.8638 39.2442 33.8638 38.701 33.7261 38.2936C33.7261 38.1578 33.7261 37.8862 33.8638 37.7505C34.0015 37.4789 35.378 35.7136 36.4793 33.9483C36.6169 33.8126 36.6169 33.541 36.7546 33.4052C37.1676 32.7262 37.3052 32.0473 37.3052 31.3683V31.2325V31.0968L38.1312 29.3315L37.7182 29.4673L34.9651 29.8746C34.8274 30.1462 34.6897 30.5536 34.5521 30.8252C34.1391 31.2325 33.7261 31.7757 33.5885 32.3189C33.3132 33.1336 33.1755 33.9483 33.0379 34.7631L32.4872 36.5283C32.2119 37.2073 32.0743 38.022 31.9366 38.2936C31.6613 38.701 31.386 39.2441 31.2483 39.7873C31.2483 39.9231 31.2483 40.0589 31.2483 40.1947C31.2483 40.3305 31.2483 40.4663 31.386 40.602C31.386 40.7378 31.5236 40.7378 31.5236 40.8736V41.0094L32.0743 42.9105ZM42.2609 25.6652C42.3986 25.6652 42.3986 25.8009 42.3986 25.8009C42.3986 26.0725 41.9856 27.5662 41.9856 27.8378C41.9856 27.9736 41.9856 28.1094 41.9856 28.2452C41.9856 28.381 41.9856 28.6525 42.1232 28.7883C42.2609 29.3315 42.3986 29.8746 42.5362 30.5536C42.5362 30.5536 42.5362 30.5536 42.5362 30.6894C42.3986 31.3683 42.3986 32.1831 42.1232 32.862C42.1232 32.9978 42.1232 33.1336 42.1232 33.1336L41.9856 33.541L41.2973 34.4915C41.2973 34.4915 40.3337 36.2568 40.196 36.6641C39.9207 37.2073 39.7831 37.8862 39.7831 38.5652C39.7831 39.1084 39.9207 39.6515 40.0584 40.1947L40.3337 41.281C40.8843 42.9105 41.022 42.9105 41.5726 43.0463C41.5726 42.9105 41.5726 42.6389 41.7103 42.5031C41.8479 41.8242 41.9856 41.281 42.2609 40.7378C42.5362 39.6515 42.6739 38.5652 42.8115 37.4789C42.3986 37.7505 42.1232 38.022 41.9856 38.1578C41.8479 38.4294 41.7103 38.5652 41.435 38.8368L41.2973 38.9726L41.1596 38.8368C41.7103 33.9483 43.6375 29.1957 46.6659 25.2578C45.2894 24.7146 44.1881 23.8999 43.2245 22.8136V22.9494C43.0868 23.7641 42.5362 24.3073 41.8479 24.7146C41.7103 24.7146 41.5726 24.8504 41.435 24.9862C41.1596 25.5294 40.8843 26.3441 40.7467 26.3441C40.609 26.4799 40.609 26.6157 40.4714 26.7515C40.0584 27.4304 39.6454 28.1094 39.0948 28.7883C38.9571 28.9241 38.6818 29.0599 38.5442 29.1957C38.5442 29.1957 38.5442 29.1957 38.5442 29.3315L37.7182 31.2325V31.3683C37.7182 32.0473 37.4429 32.7262 37.1676 33.4052C38.1312 33.1336 39.0948 32.9978 40.196 32.9978C41.022 32.862 41.435 32.862 41.7103 32.862C41.7103 32.862 41.7103 32.7262 41.7103 32.5904C41.8479 31.9115 41.9856 31.2325 42.1232 30.5536V30.4178C42.1232 29.8746 41.9856 29.3315 41.8479 28.7883C41.7103 28.6525 41.7103 28.381 41.7103 28.2452C41.7103 28.1094 41.7103 27.9736 41.7103 27.8378C41.7103 27.5662 42.1232 26.0725 42.2609 25.8009C41.9856 25.6652 42.1232 25.6652 42.2609 25.6652ZM35.9287 41.281C35.9287 41.4168 35.9287 41.8242 36.3416 41.8242C36.6169 41.8242 36.8923 41.8242 37.1676 41.8242C37.4429 41.8242 37.8559 41.8242 38.1312 41.6884C38.4065 41.5526 38.5442 41.281 38.5442 41.1452C38.5442 41.0094 38.2688 40.8736 37.9935 40.602C37.8559 40.3305 37.7182 40.0589 37.5805 39.7873V39.6515C37.5805 39.5157 37.7182 39.3799 37.7182 39.2441C37.7182 39.2441 37.7182 39.1084 37.7182 38.9726C37.7182 38.701 37.7182 38.4294 37.8559 38.1578L39.0948 36.2568C39.5078 35.3062 39.7831 34.3557 39.7831 33.2694C38.8195 33.4052 37.8559 33.541 36.7546 33.6768C36.7546 33.9483 36.7546 35.7136 36.7546 36.2568V36.5283C36.7546 36.6641 36.7546 36.7999 36.7546 36.9357C36.7546 37.3431 36.7546 37.7505 36.4793 38.022C36.204 38.2936 36.0663 38.701 35.9287 39.1084C35.9287 39.2441 35.9287 39.3799 35.9287 39.5157C35.9287 39.6515 35.9287 39.7873 35.9287 40.0589C36.3416 40.3305 36.0663 41.1452 35.9287 41.281ZM10.462 36.9357C10.462 37.3431 10.5997 37.7505 10.875 38.1578L11.0127 38.2936C11.8386 38.9726 12.8022 39.3799 13.7658 39.3799C14.3165 39.3799 15.0047 39.5157 15.4177 39.5157C16.106 39.5157 16.7943 39.3799 17.3449 38.9726C17.3449 38.4294 17.3449 37.7505 17.2073 37.2073C17.2073 37.0715 17.2073 37.0715 17.2073 36.9357C17.2073 36.3926 17.3449 35.7136 17.4826 35.1705C16.519 34.3557 15.5554 33.541 14.7294 32.7262C14.4541 32.862 14.0411 33.1336 13.7658 33.2694C13.4905 33.4052 13.3528 33.541 13.2152 33.6768C12.9399 34.0841 12.6646 34.4915 12.5269 34.8989V35.0347C12.5269 35.3062 12.8022 35.5778 12.9399 35.8494C13.2152 35.8494 13.3529 35.8494 13.6282 36.121C13.7658 36.5284 13.9035 36.9357 14.0411 37.2073L15.0047 38.022V38.1578C15.0047 38.1578 14.8671 38.1578 14.7294 38.1578L13.7658 37.3431C13.6282 37.0715 13.4905 36.3926 13.3528 36.121C13.2152 35.9852 12.9399 35.9852 12.8022 35.9852C12.3892 35.9852 11.9763 35.9852 11.701 35.9852C11.1503 36.2568 10.7374 36.5284 10.462 36.9357C10.3244 36.7999 10.3244 36.9357 10.462 36.9357ZM8.39719 35.3062C8.39719 35.7136 8.25953 35.9852 8.25953 36.3926C8.25953 36.9357 8.39719 37.3431 9.22313 37.3431C9.49844 37.2073 9.77376 37.0715 10.0491 36.7999C10.0491 36.7999 10.0491 36.7999 10.1867 36.6641C10.5997 36.2568 11.1503 35.9852 11.8386 35.7136H12.3892C12.2516 35.442 12.1139 35.1705 12.1139 34.8989L11.5633 34.6273C11.4256 34.4915 11.1503 34.3557 11.0127 34.3557L10.462 34.2199C10.1867 34.2199 10.0491 34.2199 9.77376 34.2199H9.6361C9.36079 34.3557 8.39719 34.8989 8.39719 35.3062ZM31.7989 37.0715V37.2073C31.7989 37.2073 31.7989 37.2073 31.7989 37.0715L32.0743 36.7999L32.3496 36.3926C32.6249 35.5778 32.9002 34.7631 32.9002 34.7631C33.0379 33.9483 33.1755 33.1336 33.4508 32.4547C33.3132 32.4547 33.3132 32.4547 33.1755 32.4547C32.9002 32.4547 32.7625 32.5904 32.6249 32.7262L32.0743 33.1336C31.6613 33.541 31.6613 33.4052 31.6613 33.541C31.6613 33.6768 31.386 34.4915 31.386 34.6273C31.386 34.7631 31.386 35.0347 31.2483 35.1705C31.1107 35.3062 30.973 35.3062 30.6977 35.442C30.6977 35.442 30.56 35.442 30.56 35.3062C30.56 35.1705 30.4224 35.1704 30.4224 35.0347C30.2847 34.8989 30.2847 34.7631 30.2847 34.7631C30.2847 34.8989 30.147 35.0347 30.0094 35.0347L30.1471 35.1705L30.56 35.5778C30.6977 35.7136 30.973 35.8494 31.1107 35.9852H31.2483C31.386 35.9852 31.6613 35.8494 31.7989 35.7136C31.7989 35.5778 31.7989 35.442 31.7989 35.3062C31.6613 35.1705 31.6613 34.8989 31.6613 34.7631C31.6613 34.6273 31.6613 34.4915 31.6613 34.3557C31.6613 34.2199 31.7989 34.2199 31.7989 34.2199C31.9366 34.2199 31.9366 34.3557 31.9366 34.3557C31.9366 34.4915 31.9366 34.6273 31.9366 34.7631C31.9366 34.8989 31.9366 35.0347 32.0743 35.0347C32.0743 35.0347 32.2119 35.0347 32.2119 34.8989C32.2119 34.6273 32.3496 34.4915 32.4872 34.2199C32.4872 34.2199 32.4872 34.2199 32.6249 34.0841H32.7625C32.9002 34.0841 32.9002 34.2199 32.9002 34.2199C32.7625 34.3557 32.7625 34.6273 32.6249 34.7631C32.6249 35.0347 32.4872 35.1705 32.2119 35.1705V35.5778C32.2119 35.8494 32.0743 35.9852 32.0743 36.121C31.7989 36.5284 31.6613 36.7999 31.7989 37.0715ZM21.8876 36.6641C22.8512 36.5284 23.6772 36.121 24.2278 35.442C24.5031 35.0347 24.6408 34.6273 24.6408 34.0841C24.6408 33.2694 24.2278 32.4547 23.6772 31.9115C23.6772 31.9115 23.6772 31.7757 23.6772 31.6399H23.8148C24.3654 32.3189 24.7784 33.1336 24.7784 33.9483C24.7784 34.3557 24.6408 34.8989 24.5031 35.3062C25.742 35.0347 25.8797 33.4052 26.0173 32.862C26.0173 32.7262 25.8797 32.4546 25.8797 32.3189C25.8797 32.3189 25.742 31.7757 25.6044 31.2325C25.6044 31.0968 24.0901 29.0599 24.0901 28.9241L23.9525 28.7883C23.2642 28.381 22.5759 28.1094 21.8876 27.9736C21.8876 28.1094 21.75 28.1094 21.6123 28.1094C21.4746 28.1094 21.1993 28.2452 21.0617 28.2452C20.924 28.2452 20.7863 28.2452 20.6487 28.1094H20.511H20.3734L20.2357 28.2452C20.0981 28.2452 19.9604 28.381 19.8227 28.381C19.8227 28.5167 19.6851 28.6525 19.6851 28.7883C19.6851 28.9241 19.5474 29.1957 19.5474 29.3315C19.5474 29.4673 19.5474 29.7389 19.4098 29.8746C19.2721 30.0104 19.1345 30.0104 18.8591 30.1462H18.5838C18.4462 30.1462 18.3085 30.1462 18.1709 30.0104C18.0332 29.8746 17.8955 29.7389 17.7579 29.6031L16.3813 30.1462C16.3813 30.1462 15.0047 30.5536 14.5918 30.5536C14.3165 30.5536 12.9399 30.961 13.0775 31.5041V31.7757V32.1831C13.0775 32.4547 13.0775 32.4547 13.2152 32.5904C13.3528 32.7262 13.4905 32.862 13.6282 32.862C13.9035 32.7262 14.3165 32.4547 14.4541 32.4547L14.1788 32.1831V32.0473C14.1788 32.0473 14.3165 32.0473 14.4541 32.0473L14.8671 32.5904C15.693 33.541 16.519 34.3557 17.4826 35.0347C17.6202 34.4915 17.8955 34.0841 18.0332 33.541C18.3085 32.862 18.8591 32.4547 19.4098 32.0473H19.5474C21.8876 32.862 22.3006 33.541 22.3006 34.0841C22.3006 34.2199 22.3006 34.3557 22.3006 34.4915C22.1629 35.0347 21.4746 35.1705 21.1993 35.1705C21.0617 35.5778 20.924 35.9852 20.7863 36.2568C20.7863 36.2568 20.7863 36.2568 20.924 36.2568C21.1993 36.6641 21.6123 36.7999 21.8876 36.6641ZM11.1503 34.0841C11.5633 34.2199 11.8386 34.4915 12.2516 34.7631C12.3892 34.3557 12.6646 33.9483 12.9399 33.541C13.0775 33.4052 13.2152 33.2694 13.3528 33.1336L12.9399 32.862C12.8022 32.7262 12.6646 32.4547 12.6646 32.1831V31.7757V31.5041C12.6646 30.5536 14.1788 30.282 14.4541 30.282C14.7294 30.282 16.2437 29.8746 16.2437 29.8746L17.4826 29.3315C17.3449 29.1957 17.3449 28.9241 17.3449 28.7883C17.3449 28.6525 17.3449 28.6525 17.3449 28.5167C17.4826 28.2452 17.4826 27.8378 17.7579 27.5662L17.2073 26.2083C17.2073 26.2083 16.3813 25.122 16.2437 24.8504C15.8307 24.3073 15.5554 23.7641 15.4177 23.0851C14.3165 23.2209 13.2152 23.3567 12.1139 23.3567C11.8386 23.3567 11.4256 23.3567 11.0127 23.3567C10.462 24.0357 10.1867 24.8504 10.1867 25.6652C10.1867 27.0231 10.5997 29.1957 10.5997 29.7389H10.7374C10.7374 30.4178 10.5997 30.961 10.462 31.5041C10.3244 31.9115 10.3244 32.3189 10.3244 32.7262C10.3244 33.1336 10.462 33.6768 10.5997 34.0841H11.1503ZM9.36079 23.0851C8.53484 23.7641 8.12187 24.8504 8.12187 25.9367C8.12187 26.7515 8.12187 27.8378 8.12187 28.7883C8.25953 30.0104 7.98421 31.2325 7.57124 32.3189L7.29593 32.7262C7.29593 32.7262 7.02061 33.1336 7.02061 33.2694C7.02061 33.2694 7.02061 33.2694 7.15827 33.2694C7.7089 33.2694 8.12187 33.2694 8.39719 33.541C8.53484 33.6768 8.53484 33.6768 8.6725 33.8125C8.94781 33.8125 9.08547 33.9483 9.36079 33.8125L9.6361 33.9483H9.77376H10.1867C10.0491 33.541 9.91142 32.9978 9.91142 32.5904C9.91142 32.1831 9.91142 31.7757 10.0491 31.3683C10.1867 30.8252 10.3244 30.1462 10.3244 29.6031C10.3244 29.0599 9.91142 27.0231 9.91142 25.5294C9.91142 24.7146 10.1867 23.8999 10.7374 23.2209C10.3244 23.2209 9.77376 23.0851 9.36079 23.0851ZM5.64404 32.862C5.7817 32.862 5.91935 32.9978 6.19467 32.9978C6.33232 32.9978 6.60764 33.1336 6.7453 33.1336C6.7453 32.9978 6.88295 32.7262 7.02061 32.5904C7.15827 32.4547 7.15827 32.4546 7.15827 32.3189C7.57124 31.2325 7.84656 30.1462 7.7089 28.9241C7.7089 27.9736 7.7089 26.8873 7.7089 26.0725C7.7089 24.9862 8.12187 23.8999 8.94781 23.0851C8.81016 23.0851 8.53484 22.9494 8.39719 22.9494C7.7089 23.7641 7.29593 24.7146 7.29593 25.8009L7.02061 29.8746C7.02061 29.8746 7.02061 29.8746 7.02061 30.0104H6.88295C6.88295 30.282 6.7453 30.6894 6.60764 30.961L6.05701 32.1831C5.91935 32.4547 5.91935 32.4547 5.91935 32.5904C5.7817 32.5904 5.64404 32.7262 5.50638 32.862H5.64404ZM7.43358 23.0851C7.02061 23.7641 6.7453 24.5788 6.7453 25.2578C6.7453 26.4799 6.60764 27.5662 6.33232 28.6525C5.7817 29.6031 5.09341 30.5536 4.40512 31.2325C4.40512 31.3683 4.26746 31.3683 4.26746 31.5041C4.26746 31.6399 4.26746 31.7757 4.40512 31.7757L5.36872 32.5904C5.50638 32.4547 5.64404 32.3189 5.7817 32.1831C5.7817 32.1831 5.7817 32.0473 5.91935 31.7757L6.46998 30.5536C6.60764 30.282 6.60764 30.0104 6.7453 29.7389L7.02061 25.6652C7.02061 24.5788 7.43358 23.6283 8.12187 22.8136L7.84656 22.6778C7.7089 22.8136 7.57124 22.9494 7.43358 23.0851ZM24.3654 28.7883C24.3654 28.7883 25.4667 30.282 25.8797 30.961L27.8069 30.5536C28.3575 30.282 28.3575 30.1462 28.4952 30.0104C28.4952 29.8746 28.7705 29.8746 28.9081 29.8746C29.1834 29.7389 29.4588 29.6031 29.7341 29.4673C29.8717 29.3315 30.0094 29.3315 30.1471 29.3315H30.2847C30.4224 29.3315 30.56 29.4673 30.56 29.6031H30.8353H31.1107C31.386 29.4673 31.5236 29.3315 31.386 29.0599C31.386 28.9241 31.386 28.7883 31.386 28.6525C31.386 28.381 30.6977 28.1094 30.6977 28.1094C30.6977 28.1094 30.6977 28.1094 30.56 27.9736V27.8378C30.56 27.702 30.6977 27.702 30.6977 27.5662C30.6977 27.4304 30.6977 27.4304 30.56 27.2946C30.4224 27.0231 30.2847 26.8873 30.0094 26.8873C29.8717 26.8873 29.8717 26.8873 29.7341 26.8873C29.3211 26.7515 28.9081 26.4799 28.6328 26.2083C28.6328 26.0725 27.2562 26.0725 26.7056 25.9367H26.568C26.2926 25.9367 25.8797 26.2083 25.742 26.4799C25.6044 26.6157 25.329 26.7515 25.1914 26.8873C25.1914 26.8873 24.7784 27.1588 24.6408 27.2946C24.5031 27.4304 24.5031 27.4304 24.3654 27.5662L24.2278 27.702C24.0901 27.702 24.0901 27.9736 24.0901 28.1094C24.0901 28.2452 24.0901 28.5167 24.0901 28.6525C24.2278 28.7883 24.3654 28.9241 24.3654 28.7883ZM17.0696 13.3083V13.4441C16.6566 14.2588 16.2437 14.9377 15.8307 15.7525C15.693 16.4314 15.5554 16.9746 15.5554 17.5178C15.5554 17.6535 15.5554 17.7893 15.5554 17.7893C15.5554 18.6041 15.5554 19.283 15.4177 20.0978C15.4177 20.2336 15.4177 20.3693 15.4177 20.5051V20.6409C15.4177 20.9125 15.4177 21.1841 15.5554 21.4557C15.5554 21.863 15.693 22.4062 15.8307 22.8136C15.9683 23.4925 16.2437 24.0357 16.6566 24.7146C16.7943 24.9862 17.6202 26.0725 17.6202 26.0725C17.6202 26.0725 18.1709 27.4304 18.1709 27.5662C17.8955 27.8378 17.8955 28.1094 17.7579 28.5167V28.6525C17.7579 28.7883 17.7579 29.0599 17.8955 29.1957V29.3315C18.0332 29.4673 18.1709 29.6031 18.3085 29.7389C18.4462 29.7389 18.4462 29.7389 18.5838 29.7389H18.7215C18.8591 29.7389 18.9968 29.6031 19.1345 29.6031C19.1345 29.4673 19.1345 29.4673 19.1345 29.3315C19.1345 29.0599 19.1345 28.9241 19.2721 28.6525L19.4098 28.2452C19.4098 28.2452 19.4098 28.2452 19.4098 28.1094C19.5474 27.9736 19.6851 27.9736 19.8227 27.8378C19.9604 27.702 19.9604 27.702 20.0981 27.702C20.2357 27.702 20.3734 27.702 20.511 27.8378C20.6487 27.8378 20.6487 27.8378 20.7863 27.8378C20.924 27.8378 21.0617 27.8378 21.1993 27.8378H21.337L21.1993 27.702C20.924 27.5662 20.6487 27.4304 20.3734 27.2946C20.2357 27.1588 20.0981 27.1588 19.8227 27.1588C19.4098 27.0231 19.1345 26.2083 18.8591 25.5294C18.5838 24.7146 18.4462 23.8999 18.4462 23.0851C18.4462 22.2704 18.1709 21.3199 17.8955 20.5051C17.8955 20.3693 17.7579 20.3693 17.7579 20.2336V20.0978C17.7579 19.962 17.7579 19.962 17.8955 19.8262C18.3085 19.283 18.5838 18.6041 18.7215 17.9251C18.8591 17.5178 19.1345 17.2462 19.5474 17.1104C19.8227 16.9746 20.0981 16.703 20.2357 16.4314C20.3734 16.1599 20.6487 15.8883 20.6487 15.4809C20.6487 15.2093 20.7863 15.0735 20.7863 14.802C20.7863 14.5304 20.6487 14.123 20.511 13.8514C20.3734 13.5798 20.0981 13.3083 19.8227 13.0367C19.6851 12.9009 19.5474 12.7651 19.4098 12.7651C18.9968 12.6293 18.4462 12.4935 18.0332 12.4935C17.6202 12.2219 14.8671 12.6293 14.0411 13.5798C13.3528 14.2588 12.9399 14.9377 12.9399 15.3451C12.9399 15.6167 13.0775 15.8883 13.2152 16.0241C13.7658 16.703 14.4541 17.382 15.0047 17.382C15.1424 17.382 15.1424 17.382 15.2801 17.382C15.2801 16.8388 15.4177 16.2956 15.693 15.7525C15.9683 14.9377 16.3813 14.123 16.9319 13.4441C16.9319 13.4441 16.9319 13.3083 17.0696 13.3083ZM35.1027 26.4799C34.6897 26.8873 34.4144 27.2946 34.4144 27.8378V27.9736C34.5521 28.5167 34.6897 29.1957 34.8274 29.4673H34.9651L37.7182 29.1957L38.1312 29.0599C38.4065 28.9241 38.6818 28.7883 38.8195 28.6525C38.9571 28.5167 39.2324 28.1094 39.5078 27.702C39.3701 27.8378 39.0948 27.8378 38.8195 27.8378C38.6818 27.8378 38.5442 27.8378 38.4065 27.702L37.9935 27.5662L37.7182 27.8378H37.5805C37.0299 27.8378 36.8923 27.0231 36.7546 26.8873C36.7546 26.7515 36.6169 26.7515 36.4793 26.7515L36.0663 26.6157C36.0663 26.6157 35.5157 26.2083 35.378 26.0725C35.378 26.2083 35.2404 26.3441 35.1027 26.4799ZM37.7182 27.5662L37.9935 27.2946H38.1312L38.4065 27.4304L38.6818 27.2946H38.8195V27.4304L38.6818 27.5662C38.8195 27.5662 38.8195 27.5662 38.9571 27.5662C39.2324 27.5662 39.6454 27.4304 40.196 26.7515C40.3337 26.6157 40.3337 26.4799 40.4714 26.3441C40.4714 26.3441 40.7467 25.5294 41.1596 24.9862C41.1596 24.9862 41.435 24.8504 41.5726 24.7146C42.3986 24.443 42.8115 23.2209 42.8115 23.2209V23.0851C42.8115 22.9494 42.8115 22.8136 42.8115 22.8136V22.6778C42.8115 22.6778 42.8115 22.6778 42.9492 22.6778H43.0868C44.0504 23.8999 45.2894 24.8504 46.8036 25.3936C46.9412 25.3936 47.2166 25.3936 47.3542 25.3936C47.6295 25.3936 48.0425 25.2578 48.3178 25.122C45.7023 24.3073 44.7387 23.0851 44.7387 21.863C45.014 20.3693 45.7023 19.0114 46.8036 18.0609C46.6659 18.0609 46.5283 18.0609 46.3906 18.0609C46.1153 18.0609 45.9776 18.0609 45.7023 18.1967C44.0504 18.8757 43.0868 21.7272 43.0868 21.7272V21.863C43.0868 21.863 43.0868 21.863 42.9492 21.863C42.8115 21.863 42.8115 21.7272 42.8115 21.7272C43.2245 20.2336 44.1881 18.8757 45.5647 18.0609C45.2894 18.0609 45.014 18.0609 44.8764 18.0609C42.9492 18.1967 41.1596 18.6041 39.5078 19.4188C39.0948 19.5546 38.8195 19.8262 38.4065 20.2336H38.5442C38.6818 20.2336 38.6818 20.2336 38.8195 20.2336L39.3701 20.3693C39.5078 20.3693 39.6454 20.5051 39.7831 20.5051C40.0584 20.5051 40.7467 20.7767 40.7467 20.7767C40.8843 20.7767 41.2973 20.6409 41.435 21.0483C41.435 21.0483 41.435 21.0483 41.435 21.1841V21.3199C41.5726 21.3199 41.7103 21.4557 41.8479 21.7272C41.8479 21.863 41.7103 21.9988 41.7103 21.9988C41.7103 21.9988 41.9856 22.4062 41.9856 22.542C41.9856 22.6778 41.9856 22.6778 41.9856 22.8136C41.9856 22.9494 41.9856 23.0851 41.8479 23.0851V23.2209C41.8479 23.3567 41.8479 23.4925 41.7103 23.4925C41.7103 23.4925 41.5726 23.7641 41.435 23.7641C41.2973 23.8999 41.1596 24.1715 41.022 24.3073C40.8843 24.443 40.609 24.443 40.609 24.443C40.4714 24.7146 40.196 24.8504 39.9207 24.8504C39.7831 24.9862 39.5078 24.9862 39.2324 25.122C39.0948 25.122 38.9571 25.122 38.9571 24.9862C38.9571 24.8504 38.8195 24.5788 38.8195 24.443C38.8195 24.3073 38.8195 24.1715 38.8195 24.1715C38.9571 23.8999 39.0948 23.8999 39.0948 23.7641V23.6283C39.0948 23.6283 39.0948 23.6283 39.0948 23.4925C38.9571 23.3567 38.9571 23.2209 38.8195 23.0851C38.8195 22.9494 38.8195 22.8136 38.9571 22.8136C39.2324 22.4062 39.5078 21.9988 39.6454 21.5915V21.4557V21.3199C39.3701 21.1841 39.2324 21.0483 38.9571 20.9125C38.6818 20.7767 38.4065 20.7767 37.9935 20.7767H37.7182C37.5805 20.7767 37.4429 20.7767 37.3052 20.7767C37.0299 20.9125 36.6169 21.0483 36.6169 21.0483L36.204 21.7272L35.6533 22.1346C35.2404 22.6778 34.9651 23.2209 34.9651 23.8999V24.0357C34.9651 24.3073 34.9651 24.5788 34.9651 24.7146C34.9651 24.9862 35.1027 25.3936 35.378 25.6652C35.378 25.8009 36.204 26.3441 36.204 26.3441H36.4793C36.7546 26.3441 36.8923 26.4799 37.0299 26.7515C37.1676 27.0231 37.4429 27.5662 37.7182 27.5662ZM39.2324 20.7767C39.5078 20.9125 39.7831 21.0483 39.9207 21.1841C40.0584 21.3199 40.0584 21.4557 40.0584 21.5915C40.0584 21.7272 40.0584 21.7272 40.0584 21.863C39.7831 22.4062 39.6454 22.8136 39.2324 23.2209C39.2324 23.2209 39.2324 23.2209 39.2324 23.3567C39.2324 23.3567 39.3701 23.4925 39.3701 23.6283C39.3701 23.7641 39.5078 23.7641 39.5078 23.8999C39.5078 24.0357 39.5078 24.0357 39.5078 24.1715C39.3701 24.3073 39.2324 24.443 39.2324 24.5788C39.2324 24.7146 39.2324 24.7146 39.2324 24.8504C39.2324 24.9862 39.2324 25.122 39.3701 25.2578C39.5078 25.2578 39.7831 25.122 39.9207 25.122C40.0584 25.122 40.196 25.122 40.3337 24.9862C40.4714 24.7146 40.8843 24.8504 40.8843 24.7146C41.022 24.5788 41.1596 24.443 41.2973 24.1715C41.435 24.0357 41.435 23.8999 41.5726 23.7641V23.6283C41.5726 23.6283 41.5726 23.4925 41.435 23.4925C41.435 23.3567 41.5726 23.3567 41.5726 23.2209C41.5726 23.2209 41.5726 23.2209 41.5726 23.0851V22.9494C41.435 22.8136 41.2973 22.542 41.2973 22.4062C41.2973 22.4062 41.2973 22.4062 41.2973 22.2704C41.2973 22.1346 41.2973 21.9988 41.2973 21.863L41.1596 21.7272L41.022 21.5915C41.022 21.4557 41.022 21.4557 41.1596 21.3199H41.022H40.7467C40.609 21.3199 39.9207 21.0483 39.7831 21.0483C39.6454 20.9125 39.3701 20.7767 39.2324 20.7767C39.0948 20.6409 38.9571 20.5051 38.6818 20.5051H38.2688H37.8559C37.5805 20.6409 37.3052 20.6409 37.0299 20.7767C36.7546 20.9125 36.4793 21.0483 36.204 21.1841C35.9287 21.1841 36.0663 21.7272 35.5157 21.9988C35.378 21.9988 35.2404 22.1346 35.2404 22.1346C35.1027 22.4062 35.1027 22.6778 34.8274 22.9494V23.0851C34.8274 23.2209 34.8274 23.3567 34.8274 23.4925V23.6283V23.7641C34.8274 23.0851 35.1027 22.542 35.5157 21.9988L36.0663 21.5915C36.0663 21.5915 36.3416 21.3199 36.4793 21.1841C36.6169 21.0483 37.0299 20.9125 37.1676 20.9125C37.3052 20.7767 37.5805 20.7767 37.7182 20.7767H37.9935C38.5442 20.6409 38.8195 20.6409 39.2324 20.7767ZM47.0789 18.1967C46.1153 19.0114 45.2894 20.3693 45.1517 21.7272C45.1517 22.8136 45.9776 24.0357 48.7308 24.7146C49.4191 24.3073 50.1074 23.8999 50.658 23.2209L51.8969 22.2704C51.8969 22.2704 53.1358 21.1841 53.1358 20.3693C53.1358 19.283 52.3099 18.4683 51.2086 18.4683H50.7957L49.8321 18.7399H49.6944C49.1438 18.3325 48.4555 18.0609 47.7672 18.1967H47.0789ZM26.4303 23.8999L26.8433 24.0357C27.1186 24.0357 27.5316 24.1715 27.8069 24.1715C27.9445 24.1715 28.0822 24.1715 28.2198 24.1715C28.4952 24.1715 28.6328 22.9494 28.6328 22.9494C28.6328 22.8136 28.6328 22.8136 28.6328 22.6778C28.6328 22.542 28.6328 22.4062 28.4952 22.1346C28.4952 21.9988 28.4952 21.863 28.3575 21.7272C28.2198 21.3199 28.0822 21.0483 28.0822 20.6409C28.0822 20.6409 28.0822 20.6409 28.0822 20.5051C28.0822 20.2336 27.9445 20.0978 27.8069 19.8262C27.6692 19.6904 27.5316 19.283 27.5316 19.0114V18.8757C27.6692 18.4683 27.8069 18.0609 28.2198 17.7893L28.3575 17.6535H28.2198H28.0822C27.6692 17.6535 27.3939 17.9251 27.2562 18.1967C27.1186 18.3325 26.8433 18.4683 26.7056 18.7399C26.4303 19.4188 26.2926 20.2336 26.0173 20.9125C26.0173 21.1841 26.0173 21.3199 25.8797 21.5915C25.742 21.863 25.0537 22.542 25.0537 22.9494C25.0537 23.0851 25.0537 23.0851 25.1914 23.0851C25.742 23.4925 26.0173 23.4925 26.0173 23.8999H26.4303ZM8.39719 22.542C8.6725 22.6778 9.08547 22.6778 9.36079 22.8136C9.91142 22.9494 10.462 22.9494 11.1503 22.9494C11.5633 22.9494 11.9763 22.9494 12.2516 22.9494C13.3529 22.9494 14.4541 22.8136 15.4177 22.6778C15.2801 22.2704 15.1424 21.863 15.1424 21.4557C15.0047 21.1841 15.0047 20.9125 15.0047 20.6409C14.7294 20.9125 14.1788 21.3199 13.4905 21.7272C13.2152 21.863 13.0775 21.9988 12.8022 21.9988C12.2516 21.863 11.701 21.5915 11.1503 21.1841C11.0127 21.1841 10.875 21.0483 10.5997 21.0483C10.0491 21.0483 9.36079 21.1841 8.81016 21.3199C8.25953 21.3199 7.98421 21.1841 7.57124 20.9125C7.57124 21.0483 7.43358 21.1841 7.43358 21.3199C7.43358 21.7272 7.57124 22.1346 7.84656 22.4062L8.39719 22.542ZM31.6613 22.9494C31.7989 22.9494 31.9366 22.9494 31.9366 22.9494C32.0743 22.8136 32.2119 22.6778 32.3496 22.6778C32.4872 22.542 32.4872 22.542 32.4872 22.4062C32.4872 22.2704 32.4872 22.1346 32.4872 21.9988V21.863V21.5915C32.4872 21.4557 32.4872 21.3199 32.3496 21.3199C32.3496 21.3199 32.3496 21.3199 32.3496 21.1841C32.3496 21.0483 32.3496 21.0483 32.3496 21.0483L32.2119 20.9125L32.0743 20.7767L31.9366 20.6409V20.5051C31.9366 20.5051 31.9366 20.5051 31.9366 20.3693C31.7989 20.2336 31.7989 19.962 31.7989 19.8262C31.7989 19.8262 31.6613 19.5546 31.6613 19.4188C31.5236 19.1472 31.386 19.1472 31.386 19.1472V19.0114C31.386 18.8757 31.2483 18.7399 31.2483 18.7399L31.1107 18.6041C31.1107 18.3325 30.8353 18.4683 30.6977 18.0609C30.6977 17.9251 30.2847 17.7893 30.2847 17.6535C30.1471 17.5178 29.7341 17.382 29.7341 17.382C29.5964 17.382 29.4588 17.382 29.3211 17.5178C29.4588 17.5178 29.7341 17.5178 29.8717 17.6535L30.2847 18.0609C30.4224 18.1967 30.6977 18.3325 30.8353 18.4683C30.973 18.6041 31.1107 18.7399 31.1107 19.0114V19.1472C31.1107 19.1472 31.1107 19.1472 30.973 19.1472C30.8353 19.1472 30.8353 19.1472 30.8353 19.0114C30.8353 18.8757 30.6977 18.7399 30.6977 18.7399C30.56 18.6041 30.2847 18.4683 30.1471 18.3325L29.7341 18.0609C29.5964 18.0609 29.3211 18.0609 29.1835 17.9251C28.9081 17.9251 28.6328 18.0609 28.3575 18.1967C28.0822 18.4683 27.9445 18.7399 27.8069 19.1472C27.8069 19.4188 27.9445 19.5546 28.0822 19.6904C28.2198 19.962 28.3575 20.2336 28.3575 20.5051C28.3575 20.7767 28.3575 20.9125 28.4952 21.1841C29.1835 21.4557 30.0094 21.4557 30.8353 21.4557C31.1107 21.3199 31.2483 21.1841 31.5236 21.0483C31.5236 21.0483 31.5236 21.0483 31.5236 20.9125C31.5236 20.6409 31.386 20.5051 31.386 20.2336V20.0978C31.1107 20.3693 30.973 20.3693 30.6977 20.5051H30.56C30.56 20.5051 30.56 20.5051 30.56 20.3693V20.2336C30.56 20.2336 30.56 20.2336 30.6977 20.2336C30.973 20.2336 31.1107 20.0978 31.386 19.962H31.5236C31.5236 19.6904 31.386 19.4188 31.386 19.4188V19.283C31.386 19.283 31.386 19.283 31.5236 19.283H31.6613C31.6613 19.283 31.6613 19.283 31.6613 19.4188C31.6613 19.4188 31.7989 20.2336 31.7989 20.5051C31.9366 20.7767 31.9366 20.9125 31.9366 21.1841C31.9366 21.3199 31.9366 21.4557 31.7989 21.4557C31.6613 21.5915 31.386 21.7272 31.2483 21.7272C31.2483 21.9988 31.386 22.4062 31.6613 22.542C31.5236 22.6778 31.5236 22.6778 31.6613 22.9494ZM34.4144 22.8136C34.4144 22.6778 34.4144 22.6778 34.5521 22.542C34.5521 22.542 34.6897 22.2704 34.8274 21.863C34.9651 21.7272 35.1027 21.5915 35.2404 21.4557C35.6533 21.4557 35.378 20.9125 35.9287 20.7767C36.3416 20.6409 36.6169 20.3693 36.8923 20.3693C37.0299 20.3693 37.4429 20.2336 37.7182 20.0978H37.9935C37.9935 20.0978 37.9935 20.0978 37.9935 19.962C38.2688 19.5546 38.6818 19.283 39.0948 19.1472C38.2688 18.6041 37.7182 17.7893 37.5805 16.8388V16.703L37.4429 16.8388C37.4429 16.8388 37.4429 16.9746 37.3052 17.1104C37.1676 17.2462 37.3052 17.382 37.0299 17.5178C36.7546 17.382 36.6169 16.9746 36.6169 16.9746V16.8388L36.8923 15.7525L37.1676 14.6662C36.6169 14.9377 36.0663 15.0735 35.5157 15.0735C34.9651 14.9377 34.5521 14.123 34.4144 13.7156C34.4144 13.7156 34.4144 13.7156 34.4144 13.8514C34.4144 13.9872 34.4144 14.123 34.5521 14.3946C34.5521 14.5304 34.5521 14.5304 34.5521 14.6662C34.4144 14.9377 34.4144 15.2093 34.4144 15.4809C34.2768 15.6167 34.1391 15.7525 34.0015 15.7525H33.8638L33.7261 15.8883H33.5885V15.7525C33.5885 15.7525 33.5885 15.3451 33.7261 15.2093C33.7261 15.0735 33.4508 14.5304 33.4508 14.3946C33.3132 13.7156 33.1755 13.0367 33.1755 12.4935C33.3132 12.0862 33.4508 11.543 33.5885 11.1356C33.7261 10.7283 33.8638 10.3209 34.0015 10.0493L34.1391 9.77773C33.7261 9.50615 33.3132 9.50615 33.0379 9.64194C32.6249 9.64194 32.3496 9.77773 31.9366 9.91352L31.1107 10.0493C30.8353 10.0493 30.6977 10.1851 29.8717 10.9998C29.5964 11.2714 29.4588 11.6788 29.4588 11.9504C29.4588 12.0862 29.4588 12.3577 29.5964 12.4935C29.7341 12.4935 29.7341 12.4935 29.8717 12.4935C30.6977 12.7651 31.386 13.3083 31.9366 13.9872C32.0743 14.123 32.0743 14.2588 32.0743 14.5304C32.2119 14.5304 32.2119 14.3946 32.3496 14.3946L32.0743 13.3083C32.0743 13.1725 32.0743 13.1725 32.2119 13.1725C32.3496 13.1725 32.3496 13.1725 32.3496 13.3083L32.7625 14.9377C32.9002 15.4809 33.0379 16.0241 33.0379 16.703C33.0379 17.2462 32.9002 17.9251 32.6249 18.4683C32.6249 18.4683 32.0743 19.5546 32.0743 19.6904V19.8262C32.0743 19.962 32.2119 20.0978 32.2119 20.3693C32.2119 20.5051 32.2119 20.5051 32.2119 20.6409V20.7767C32.3496 20.9125 32.4872 21.0483 32.6249 21.1841V21.3199C32.7625 21.4557 32.7625 21.5915 32.7625 21.7272V21.863V21.9988V22.1346L34.4144 22.8136ZM22.1629 19.6904C22.0253 19.962 21.8876 20.2336 21.8876 20.5051C21.8876 20.6409 21.8876 20.7767 21.8876 20.9125C21.8876 21.1841 21.8876 21.3199 22.1629 21.3199C22.3006 21.3199 22.4382 21.4557 22.4382 21.4557C22.7136 21.7272 23.1265 21.7272 23.5395 21.863C23.6772 21.863 23.9525 21.863 24.0901 21.7272C24.2278 21.5915 24.3654 21.4557 24.3654 21.1841C24.3654 21.0483 24.3654 21.0483 24.3654 20.9125L24.5031 20.7767C24.5031 20.7767 24.7784 20.6409 24.7784 20.5051V20.3693L24.5031 20.0978V19.962C24.5031 19.962 24.5031 19.8262 24.6408 19.8262L25.329 19.6904H25.4667H24.9161L24.0901 19.5546C24.0901 19.6904 24.0901 19.6904 24.0901 19.8262C24.0901 19.962 24.0901 19.962 23.9525 19.962C23.8148 20.0978 23.5395 20.0978 23.4018 20.0978H23.2642L23.1265 19.962C22.9889 19.962 22.9889 19.8262 23.1265 19.8262H23.2642H23.4018C23.5395 19.8262 23.6772 19.8262 23.8148 19.6904C23.8148 19.6904 23.8148 19.5546 23.6772 19.5546L23.2642 19.4188L22.8512 19.283C22.5759 19.5546 22.3006 19.5546 22.1629 19.6904ZM11.288 21.0483C11.701 21.3199 12.1139 21.863 12.6646 21.863C12.9399 21.863 13.0775 21.7272 13.2152 21.7272C13.7658 21.3199 14.3165 21.0483 14.5918 20.7767L13.4905 20.2336C13.2152 20.2336 11.9763 19.6904 11.8386 19.6904C11.4256 19.5546 10.875 19.4188 10.5997 19.1472C10.0491 18.8757 9.77376 18.3325 9.6361 17.7893C9.6361 17.6535 9.77376 16.703 9.77376 16.0241C8.94781 16.5672 8.39719 17.2462 7.98421 18.0609C7.98421 18.0609 7.29593 18.8757 7.02061 19.0114C7.02061 19.0114 7.02061 19.1472 7.02061 19.283C7.02061 19.5546 7.02061 19.8262 7.15827 19.962C7.29593 20.0978 7.57124 20.3693 7.7089 20.5051C7.98421 20.7767 8.39719 20.9125 8.6725 21.0483H8.81016C9.36079 20.9125 10.0491 20.7767 10.5997 20.7767C10.875 20.7767 11.1503 20.7767 11.288 21.0483ZM19.2721 19.962C19.2721 20.0978 19.2721 20.2336 19.2721 20.2336C19.5474 20.9125 20.2357 21.4557 20.924 21.4557H21.75C21.6123 21.3199 21.4746 21.0483 21.4746 20.7767C21.4746 20.6409 21.4746 20.5051 21.4746 20.3693C21.4746 19.962 21.6123 19.6904 21.75 19.4188C22.0253 19.283 22.1629 19.1472 22.4382 19.0114H22.5759H22.7136C22.4382 18.7399 22.1629 18.6041 21.8876 18.3325C21.1993 18.6041 19.8227 19.1472 19.8227 19.1472L19.2721 19.5546C19.2721 19.6904 19.2721 19.8262 19.2721 19.962ZM10.7374 19.0114C11.1503 19.283 11.4256 19.4188 11.8386 19.4188C12.1139 19.4188 13.3529 19.962 13.6282 19.962L14.8671 20.3693H15.1424C15.1424 20.2336 15.1424 20.0978 15.1424 20.0978C15.2801 19.4188 15.2801 18.6041 15.2801 17.7893V17.6535H15.0047C14.3165 17.6535 13.6282 16.9746 13.0775 16.1599C12.8022 16.0241 12.6646 15.6167 12.6646 15.3451C12.8022 14.5304 13.2152 13.8514 13.9035 13.3083C14.7294 12.7651 15.693 12.3577 16.6566 12.2219H16.3813C15.9683 12.2219 15.693 12.2219 15.2801 12.3577C14.4541 12.4935 13.4905 12.6293 12.6646 13.0367C12.2516 13.3083 11.8386 14.123 11.288 14.3946C10.875 14.6662 10.3244 14.802 10.1867 15.4809C10.1867 15.6167 10.1867 15.7525 10.0491 15.8883C10.0491 16.5672 9.91142 17.5178 9.91142 17.7893C10.0491 18.1967 10.3244 18.6041 10.7374 19.0114ZM19.6851 17.2462C19.2721 17.382 19.1345 17.5178 18.9968 17.9251C18.8591 18.6041 18.5838 19.283 18.0332 19.962L18.9968 19.5546L19.9604 19.0114C19.9604 19.0114 21.1993 18.6041 22.0253 18.1967L22.4382 18.0609C22.4382 17.9251 22.4382 17.7893 22.4382 17.6535V17.7893L21.75 18.3325H21.6123C21.6123 18.3325 21.6123 18.1967 21.6123 18.0609L22.3006 17.6535C22.4382 17.6535 22.4382 17.5178 22.5759 17.382C22.8512 17.1104 22.8512 16.703 22.8512 16.2956V16.1599L20.7863 16.703H20.6487C20.2357 16.9746 19.9604 17.1104 19.6851 17.2462ZM37.9935 16.8388C37.9935 17.7893 38.5442 18.6041 39.3701 19.0114C40.609 18.4683 41.8479 18.0609 43.2245 17.7893C42.9492 17.5178 42.6739 17.2462 42.3986 16.9746C41.9856 16.703 41.5726 16.4314 41.1596 16.2956C41.1596 16.2956 41.022 16.2956 41.022 16.1599V16.0241C41.022 15.8883 41.1596 15.8883 41.1596 15.8883C41.5726 16.0241 41.8479 16.1599 42.2609 16.4314C42.1232 16.0241 41.9856 15.6167 41.8479 15.3451C41.1596 14.123 40.0584 13.3083 38.8195 12.7651V12.9009C38.8195 13.0367 38.9571 13.3083 38.9571 13.5798C38.9571 13.7156 38.9571 13.7156 38.9571 13.8514L38.8195 13.9872C38.8195 14.123 38.8195 14.5304 38.6818 14.802C38.5442 14.9377 38.5442 14.9377 38.5442 15.0735C38.5442 15.2093 38.5442 15.3451 38.5442 15.6167C38.5442 15.7525 38.5442 16.0241 38.4065 16.1599L38.2688 16.2956C37.9935 16.5672 37.9935 16.5672 37.9935 16.8388ZM37.1676 17.1104V16.9746C37.1676 16.8388 37.1676 16.703 37.3052 16.703V16.5672L37.4429 16.4314C37.5806 16.4314 37.5805 16.2956 37.7182 16.2956L37.8559 16.1599C37.8559 16.0241 37.9935 15.8883 37.9935 15.7525C37.9935 15.4809 37.9935 15.3451 37.9935 15.2093C37.9935 15.0735 38.1312 14.802 38.2688 14.6662L38.4065 14.123C38.4065 13.8514 38.6818 13.8514 38.6818 13.7156C38.5442 13.7156 38.5442 13.3083 38.5442 13.1725V13.0367C38.5442 12.9009 38.5442 12.7651 38.6818 12.6293C38.6818 12.3577 38.8195 12.0862 38.8195 11.8146C38.8195 11.6788 38.9571 11.4072 38.9571 11.2714C38.8195 10.864 38.6818 10.3209 38.4065 9.91352C38.2688 9.64194 37.5805 9.50615 37.5805 9.50615H37.4429C37.0299 9.09878 36.4793 8.96299 35.9287 8.96299H35.791C35.378 9.09878 35.1027 9.09878 34.6897 9.23457C34.4144 9.37036 34.2768 9.64194 34.1391 9.77773C34.0015 9.91352 34.0015 10.0493 33.8638 10.0493C33.7261 10.3209 33.5885 10.7283 33.4508 11.1356C33.4508 11.2714 33.0379 12.2219 33.0379 12.4935C33.0379 13.1725 33.1755 13.7156 33.3132 14.3946C33.4508 14.6662 33.5885 14.9377 33.5885 15.3451C33.5885 15.3451 33.5885 15.4809 33.5885 15.6167H33.7261H33.8638C33.8638 15.3451 33.8638 15.2093 33.8638 14.9377C33.8638 14.802 33.8638 14.802 33.8638 14.6662C33.8638 14.5304 33.7261 14.2588 33.7261 14.123V13.9872C33.7261 13.8514 33.8638 13.7156 34.0015 13.5798C34.0015 13.4441 34.1391 13.4441 34.1391 13.3083C34.1391 12.9009 34.1391 12.6293 34.2768 12.3577C34.2768 12.2219 34.6897 11.6788 34.6897 11.543C34.8274 11.2714 35.1027 11.1356 35.378 11.2714C35.5157 11.2714 35.791 11.2714 36.0663 11.2714H36.204C36.4793 11.1356 37.1676 10.4567 37.1676 10.4567H37.3052C37.3052 10.4567 37.4429 10.4567 37.4429 10.5925C37.4429 10.5925 37.5805 11.1356 37.5805 11.2714C37.7182 11.543 37.8559 11.6788 37.9935 11.8146C38.1312 12.0862 38.2688 12.3577 38.2688 12.7651V12.9009L37.3052 14.5304L37.1676 15.8883L36.8923 16.8388C37.0299 16.9746 37.0299 16.9746 37.1676 17.1104ZM23.9525 16.4314C24.0901 16.4314 24.2278 16.5672 24.3654 16.5672C24.5031 16.5672 24.5031 16.5672 24.5031 16.4314C24.5031 16.2956 24.6408 16.1599 24.7784 16.0241L24.6408 15.7525C24.6408 15.7525 24.6408 15.6167 24.6408 15.4809C24.6408 15.4809 24.6408 15.4809 24.7784 15.4809H24.9161L25.1914 15.7525C25.329 15.7525 25.329 15.7525 25.4667 15.7525L25.6044 15.4809H25.742L25.8797 15.6167C25.8797 15.6167 25.8797 15.6167 25.8797 15.4809C26.0173 14.9377 26.2926 14.3946 26.4303 13.7156L26.568 13.4441C26.155 13.5798 25.8797 13.4441 25.6044 13.3083L25.1914 13.0367C25.1914 13.1725 25.0537 13.4441 25.0537 13.5798C24.9161 13.7156 24.7784 13.8514 24.6408 13.8514H24.5031C24.5031 13.8514 24.0901 14.123 23.9525 14.2588C23.6772 14.5304 23.4018 14.6662 22.9889 14.6662C22.7136 14.6662 22.4382 14.802 22.1629 14.802C22.0253 14.802 21.8876 14.802 21.75 14.802H21.6123C21.4746 14.802 21.337 14.802 21.1993 14.802C21.0617 14.802 20.924 14.802 20.924 14.6662L20.7863 14.5304C20.7863 14.6662 20.7863 14.802 20.7863 14.9377C20.7863 15.2093 20.7863 15.4809 20.6487 15.7525C20.6487 16.0241 20.6487 16.1599 20.6487 16.4314L22.5759 15.8883H22.7136H22.8512L23.6772 16.2956L23.9525 16.4314ZM29.0458 16.0241C29.1834 16.0241 29.3211 16.1599 29.4588 16.1599C29.5964 16.1599 29.7341 16.1599 29.8717 16.0241C30.4224 15.7525 30.6977 15.7525 30.6977 15.6167V15.4809C30.6977 15.3451 30.6977 15.3451 30.6977 15.2093C30.56 14.5304 30.6977 14.802 30.4224 14.6662C30.2847 14.5304 30.1471 14.3946 30.1471 14.3946H30.0094C30.0094 14.3946 30.0094 14.3946 30.0094 14.5304L30.1471 14.6662L30.4224 14.9377V15.0735H30.2847L29.8717 14.9377L29.3211 14.6662C29.1834 14.5304 28.9081 14.5304 28.7705 14.5304H28.4952H28.2198C27.8069 14.5304 27.5316 14.6662 27.2562 14.802L26.8433 14.9377C26.9809 15.0735 27.1186 15.0735 27.2562 15.0735H27.5316C27.5316 14.9377 27.6692 14.9377 27.8069 14.9377C27.9445 14.9377 27.9445 14.9377 28.0822 15.0735L28.9081 15.8883H29.0458V16.0241ZM30.0094 13.9872C30.147 13.9872 30.1471 13.9872 30.2847 14.123C30.4224 14.2588 30.4224 14.3946 30.56 14.3946C30.6977 14.5304 30.8353 14.5304 30.8353 15.0735V15.2093C30.973 15.2093 31.2483 15.0735 31.386 15.0735C31.5236 15.0735 31.5236 14.9377 31.6613 14.9377C31.6613 14.802 31.7989 14.802 31.7989 14.6662C31.7989 14.5304 31.7989 14.3946 31.6613 14.2588C31.386 13.5798 30.1471 13.0367 29.7341 12.9009H29.5964H29.4588C29.1834 13.0367 28.9081 13.1725 28.6328 13.3083C28.4952 13.3083 28.4952 13.8514 28.4952 14.123H28.6328C28.9081 14.123 29.1834 14.123 29.3211 14.3946L29.4588 14.5304C29.4588 14.3946 29.4588 14.3946 29.5964 14.2588C29.7341 14.123 29.8717 14.123 30.0094 13.9872ZM34.4144 13.5798C34.4144 13.5798 34.8274 14.802 35.2404 14.9377C35.9287 14.9377 36.4793 14.802 37.0299 14.3946L37.4429 13.7156H37.1676C37.1676 13.8514 37.0299 13.8514 37.0299 13.8514C36.8923 13.8514 36.8923 13.7156 36.8923 13.7156V13.5798C36.7546 13.5798 36.7546 13.4441 36.7546 13.4441C36.7546 13.4441 36.7546 13.3083 36.7546 13.1725H36.8923C37.1676 13.3083 37.4429 13.3083 37.7182 13.4441L38.1312 12.7651C38.1312 12.4935 37.9935 12.3577 37.9935 12.0862C37.7182 11.8146 37.5806 11.6788 37.4429 11.4072C37.4429 11.2714 37.4429 10.9998 37.4429 10.864C37.1676 10.9998 36.7546 11.4072 36.6169 11.4072C36.4793 11.4072 36.4793 11.4072 36.3416 11.4072C36.0663 11.4072 35.9287 11.4072 35.6533 11.2714C35.5157 11.2714 35.2404 11.4072 35.2404 11.4072L34.8274 12.2219C34.6897 12.4935 34.6897 12.7651 34.6897 13.0367C34.5521 13.3083 34.5521 13.4441 34.4144 13.5798ZM22.1629 14.2588C22.3006 14.2588 22.3006 14.2588 22.4382 14.2588C22.7136 14.2588 22.9889 14.2588 23.2642 14.123C23.5395 14.123 23.9525 13.9872 24.0901 13.7156C24.2278 13.5798 24.5031 13.3083 24.7784 13.3083C24.7784 13.3083 24.9161 13.3083 25.0537 13.1725C25.1914 13.0367 25.1914 12.9009 25.1914 12.7651V12.6293H25.329L26.155 13.0367C26.4303 13.1725 26.7056 13.3083 26.9809 13.4441C27.1186 13.4441 27.2562 13.5798 27.2562 13.5798C27.6692 13.4441 27.5316 13.4441 27.5316 13.3083C27.5316 13.1725 27.6692 12.9009 27.6692 12.6293C27.6692 12.3577 27.5316 12.0862 27.2562 11.9504L27.1186 11.8146C27.1186 11.8146 26.7056 10.9998 26.155 10.9998H26.0173C25.8797 10.9998 25.742 10.864 25.4667 10.864C25.0537 10.7283 24.6408 10.5925 24.2278 10.5925H23.9525C23.6772 10.5925 23.2642 10.4567 22.9889 10.4567C22.4382 10.4567 21.8876 10.5925 21.8876 10.9998C21.8876 10.9998 21.8876 11.1356 21.75 11.1356C21.4746 11.1356 21.337 11.2714 21.0617 11.2714C20.6487 11.4072 20.3734 11.543 20.511 11.6788C20.511 11.8146 20.511 11.8146 20.3734 11.8146H20.0981C19.9604 11.8146 19.8227 12.0862 19.8227 12.2219C19.8227 12.2219 19.8227 12.2219 19.8227 12.3577C19.9604 12.4935 20.0981 12.4935 20.2357 12.6293C20.511 12.9009 20.7863 13.1725 21.0617 13.5798V13.7156C21.337 13.8514 21.4746 13.9872 21.6123 14.2588H21.75H22.0253C22.0253 14.123 22.1629 14.123 22.1629 14.2588ZM28.9081 30.961V30.8252C28.7705 30.8252 28.7705 30.6894 28.7705 30.6894V30.5536H28.9081C28.9081 30.6894 29.4588 30.8252 29.4588 30.8252C29.5964 30.8252 29.5964 30.961 29.5964 30.961V31.0968H29.4588H29.3211L28.9081 30.961C28.9081 30.961 28.7705 30.961 28.9081 30.961ZM37.9935 26.4799H37.4429C37.3052 26.4799 37.3052 26.4799 37.3052 26.3441C37.3052 26.2083 37.3052 26.2083 37.4429 26.2083L38.6818 25.9367C38.8195 25.9367 38.8195 25.9367 38.8195 26.0725C38.8195 26.2083 38.8195 26.2083 38.6818 26.2083L38.2688 26.3441C38.2688 26.3441 38.2688 26.4799 38.2688 26.6157L37.9935 26.4799C38.1312 26.6157 38.1312 26.6157 37.9935 26.4799ZM28.7705 19.4188C28.7705 19.4188 28.7705 19.283 28.7705 19.1472C28.7705 19.1472 29.1834 18.6041 29.5964 18.6041C29.7341 18.6041 29.7341 18.6041 29.7341 18.7399V18.8757C29.7341 18.8757 29.7341 18.8757 29.5964 18.8757H29.4588V19.0114C29.4588 19.0114 29.4588 19.0114 29.4588 19.1472V19.283H29.3211V19.0114L29.0458 19.283H28.9081L28.7705 19.4188ZM35.791 14.6662C35.6533 14.6662 35.378 14.5304 35.2404 14.3946V14.2588H35.378C35.5157 14.3946 35.6533 14.3946 35.791 14.3946C35.9287 14.3946 35.9287 14.5304 35.9287 14.5304C35.9287 14.6662 35.9287 14.6662 35.791 14.6662ZM25.8797 14.6662L25.6044 14.5304V14.6662H25.4667C25.4667 14.6662 25.4667 14.5304 25.4667 14.3946V14.2588L25.1914 14.123V13.9872H25.329L26.0173 14.3946C26.0173 14.3946 26.0173 14.5304 26.0173 14.6662C26.0173 14.6662 26.0173 14.6662 25.8797 14.6662ZM35.9287 14.2588C35.6533 14.2588 35.5157 14.123 35.5157 13.9872V13.8514H35.6533H35.791C35.9287 13.8514 35.9287 13.9872 35.9287 13.9872C35.9287 14.123 35.9287 14.2588 35.9287 14.2588ZM35.378 13.1725C35.378 13.1725 35.2404 13.1725 35.378 13.1725C35.2404 13.0367 35.2404 13.0367 35.2404 13.0367V12.9009C35.1027 12.9009 34.9651 12.7651 34.9651 12.7651V12.6293H35.1027C35.378 12.7651 35.6533 12.9009 35.9287 12.9009C36.0663 12.9009 36.0663 12.9009 36.0663 13.0367C36.0663 13.1725 36.0663 13.1725 35.9287 13.1725C35.791 13.1725 35.6533 13.1725 35.6533 13.1725V13.3083C35.5157 13.1725 35.5157 13.1725 35.378 13.1725Z" fill="white"/>
<path d="M42.3981 40.1941C41.5722 39.9225 41.1592 39.5151 41.1592 39.1077C41.1592 38.8362 41.4345 38.4288 41.7098 38.293C41.7098 38.293 41.7098 38.293 41.8475 38.293C41.8475 38.293 41.8475 38.293 41.9851 38.293V38.4288C41.9851 38.4288 41.5722 38.7004 41.5722 39.1077C41.5722 39.3793 41.7098 39.6509 42.5358 39.9225L42.6734 40.0583C42.5358 40.0583 42.5358 40.1941 42.3981 40.1941Z" fill="white"/>
<path d="M52.7235 39.2444C52.5858 39.1086 52.5858 39.1086 52.5858 39.1086C52.5858 38.9729 52.5858 38.8371 52.5858 38.7013C52.5858 37.2076 52.1729 33.8128 52.1729 31.5044C52.1729 30.9612 52.1728 30.4181 52.3105 29.8749C52.4482 29.196 52.4482 28.6528 52.4482 27.9739C52.4482 27.2949 52.4482 26.616 52.3105 26.0728V25.937C52.3105 25.937 52.3105 25.937 52.4482 25.937C52.5858 25.937 52.5858 25.937 52.5858 26.0728C52.7235 26.7518 52.7235 27.4307 52.7235 28.1097C52.7235 28.7886 52.7235 29.3318 52.5858 30.0107C52.4482 30.5539 52.4482 31.097 52.4482 31.5044C52.4482 33.8128 52.8611 37.2076 52.8611 38.7013C52.8611 38.8371 52.8611 39.1086 52.8611 39.2444C52.8611 39.2444 52.8611 39.2444 52.7235 39.2444Z" fill="white"/>
<path d="M48.1797 21.0473V20.9115L49.281 19.8252C49.281 19.8252 49.4186 19.8252 49.5563 19.8252C49.5563 19.8252 49.5563 19.961 49.5563 20.0968L48.455 21.1831C48.3173 21.0473 48.3173 21.0473 48.1797 21.0473C48.3173 21.0473 48.1797 21.0473 48.1797 21.0473Z" fill="white"/>
<path d="M49.8324 40.8734C49.8324 40.8734 48.1805 39.1081 46.5286 37.3429V37.2071C46.5286 37.2071 46.5287 37.2071 46.6663 37.2071H46.804C48.3182 38.9724 50.1077 40.6018 50.1077 40.6018V40.7376C49.9701 40.8734 49.9701 40.8734 49.8324 40.8734C49.9701 40.8734 49.8324 40.8734 49.8324 40.8734ZM22.9892 39.7871C22.9892 39.7871 22.8516 39.7871 22.9892 39.7871C22.9892 39.6513 22.9892 39.6513 22.9892 39.6513C22.9892 39.6513 24.5035 38.2934 24.6411 37.7502C24.9164 37.2071 25.0541 36.6639 25.0541 36.6639C25.3294 35.985 25.4671 35.1702 25.6047 34.3555C25.6047 34.3555 25.6047 34.3555 25.6047 34.2197H25.7424C25.88 34.2197 25.88 34.3555 25.88 34.3555C25.7424 35.1702 25.6047 35.8492 25.3294 36.6639C25.1918 37.0713 25.0541 37.4787 24.7788 37.7502C24.3658 38.565 23.6775 39.2439 22.9892 39.7871C23.1269 39.7871 23.1269 39.7871 22.9892 39.7871ZM25.88 32.0471C25.6047 30.9608 23.1269 30.0102 23.1269 30.0102C23.1269 30.0102 22.9892 30.0102 22.9892 29.8744C22.9892 29.7387 22.9892 29.7387 22.9892 29.7387C22.9892 29.7387 22.9892 29.7387 23.1269 29.6029H23.2646C23.2646 29.6029 25.7424 30.5534 26.1554 31.7755C26.1554 32.0471 26.0177 32.1829 25.88 32.0471C25.88 32.1829 25.88 32.1829 25.88 32.0471ZM19.4101 32.0471C19.4101 32.0471 19.4101 31.9113 19.4101 31.7755C19.9608 31.2323 20.7867 30.9608 21.475 30.9608H22.5763H22.7139C22.7139 30.9608 22.7139 30.9608 22.7139 31.0966C22.7139 31.2323 22.7139 31.2323 22.5763 31.2323H21.475C20.7867 31.2323 20.0984 31.3681 19.5478 31.9113C19.5478 32.0471 19.5478 32.0471 19.4101 32.0471ZM43.3625 30.825C43.2249 30.2818 43.2249 29.6029 43.2249 29.0597C43.2249 28.7881 43.2249 28.6523 43.2249 28.6523V28.5165C43.2249 28.5165 43.2249 28.5165 43.3625 28.5165H43.5002C43.5002 28.5165 43.5002 28.5166 43.5002 28.6523V29.0597C43.5002 29.6029 43.5002 30.2818 43.6378 30.825V30.9608C43.5002 30.9608 43.5002 30.9608 43.3625 30.825C43.3625 30.9608 43.3625 30.9608 43.3625 30.825C43.3625 30.9608 43.2249 30.825 43.3625 30.825ZM16.9323 29.7387C16.9323 29.7387 16.5193 28.3808 16.1064 26.8871C15.9687 26.2081 15.8311 25.5292 15.8311 24.8502C15.8311 24.7144 15.8311 24.4429 15.8311 24.3071C15.8311 24.1713 15.9687 24.1713 15.9687 24.1713C16.1064 24.1713 16.1064 24.3071 16.1064 24.3071C16.1064 24.4429 16.1064 24.7144 16.1064 24.8502C16.1064 25.5292 16.244 26.2081 16.3817 26.8871C16.657 28.3808 17.07 29.7387 17.07 29.7387C17.07 29.8744 17.07 29.8744 16.9323 29.8744C17.07 29.7387 16.9323 29.7387 16.9323 29.7387ZM32.0746 28.9239C32.0746 28.9239 31.937 28.9239 32.0746 28.9239C31.937 28.7881 31.937 28.7881 31.937 28.7881C31.937 28.7881 32.9006 25.665 33.7265 25.2576H33.8642C33.8642 25.2576 33.8642 25.2576 34.0018 25.3934V25.5292C34.0018 25.5292 34.0018 25.5292 33.8642 25.665C33.4512 26.2081 33.0382 26.7513 32.9006 27.4302C32.6253 28.245 32.3499 29.0597 32.3499 29.0597C32.2123 28.9239 32.2123 28.9239 32.0746 28.9239ZM40.747 26.3439C40.6094 26.3439 40.6094 26.2081 40.6094 26.2081C40.747 25.665 40.8847 25.2576 41.0224 24.7144V24.5786H41.16H41.2977V24.7144C41.16 25.2576 41.0224 25.8008 40.8847 26.2081C40.8847 26.3439 40.8847 26.3439 40.747 26.3439ZM41.2977 25.8008C41.2977 25.665 41.2977 25.665 41.4353 25.665L44.0508 25.5292C44.3261 25.5292 44.6014 25.3934 44.8768 25.2576H45.0144V25.3934C44.7391 25.5292 44.3261 25.665 44.0508 25.665L41.4353 25.8008C41.4353 25.9365 41.4353 25.9365 41.2977 25.8008C41.2977 25.9365 41.2977 25.8008 41.2977 25.8008ZM29.3215 24.1713C29.0462 24.1713 28.7708 24.1713 28.4955 24.0355H28.3579V23.8997V23.7639H28.4955C28.7708 23.7639 29.0462 23.8997 29.3215 23.7639C30.1474 23.8997 30.9734 23.3565 31.2487 22.6776V22.5418H31.3863C31.524 22.5418 31.524 22.6776 31.524 22.6776C31.111 23.7639 30.2851 24.3071 29.3215 24.1713ZM42.9496 22.5418C42.9496 21.1839 41.986 21.0481 41.4353 21.0481H41.16C41.0224 21.0481 41.0224 21.0481 41.0224 20.9123C41.0224 20.7765 41.0224 20.7765 41.16 20.7765C41.2977 20.7765 41.4353 20.7765 41.573 20.7765C42.1236 20.7765 42.5366 20.9123 42.8119 21.3197C43.0872 21.7271 43.3625 22.1344 43.2249 22.6776V22.8134C43.2249 22.8134 43.2249 22.8134 43.0872 22.8134C43.0872 22.6776 42.9496 22.6776 42.9496 22.5418ZM30.698 19.826V19.6902C30.8357 19.6902 30.9734 19.5544 31.111 19.4186C30.8357 19.2829 30.5604 19.0113 30.2851 18.8755C30.1474 18.8755 30.0098 18.7397 30.0098 18.6039C30.0098 18.4681 30.1474 18.3323 30.2851 18.1965C30.2851 18.1965 30.2851 18.1965 30.4227 18.1965H30.5604V18.3323L30.4227 18.4681C30.8357 18.6039 31.111 18.8755 31.3863 19.0113V19.1471C31.2487 19.5544 31.111 19.6902 30.698 19.826Z" fill="white"/>
<path d="M25.8789 32.0461V31.9104L26.1542 31.6389H26.2919V31.7746L26.1542 32.0461H25.8789C26.0166 32.0461 25.8789 32.0461 25.8789 32.0461Z" fill="white"/>
<path d="M155.139 45.4898C155.828 46.4404 157.067 46.8477 158.168 46.8477C158.994 46.9835 159.82 46.7119 160.508 46.1688C161.196 45.6256 161.472 44.8109 161.609 43.9962C161.472 42.9099 160.783 41.9593 159.82 41.552C160.783 41.1446 161.334 40.1941 161.334 39.2436C161.334 38.4288 160.921 37.7499 160.37 37.2067C159.82 36.6636 158.994 36.392 158.168 36.5278C157.067 36.6636 156.103 37.0709 155.415 37.8857C155.277 38.0215 155.277 38.1572 155.415 38.293L155.965 38.8362L156.103 38.972C156.241 38.972 156.241 38.972 156.241 38.8362C156.654 38.293 157.342 38.0215 158.03 38.0215C158.856 38.0215 159.682 38.7004 159.682 39.5151C159.682 40.3299 158.994 41.1446 157.617 41.1446H156.929C156.654 41.1446 156.654 41.2804 156.654 41.4162V42.0951C156.654 42.2309 156.654 42.2309 156.791 42.3667C156.791 42.3667 156.929 42.5025 157.067 42.5025H157.892C159.544 42.5025 160.233 43.3172 160.233 44.2677C160.233 44.6751 159.957 45.2183 159.682 45.4898C159.269 45.7614 158.856 45.8972 158.443 45.8972C157.617 45.8972 156.929 45.4898 156.378 44.9467L156.241 44.8109C156.103 44.8109 156.103 44.8109 156.103 44.9467L155.552 45.4898C155.139 45.2183 155.139 45.2183 155.139 45.4898C155.139 45.3541 155.139 45.4898 155.139 45.4898ZM150.734 45.4898C149.082 45.4898 148.532 43.8604 148.669 42.6383C149.082 41.9593 149.908 41.552 150.734 41.552C151.836 41.552 152.799 42.5025 152.799 43.5888C152.799 44.6751 151.836 45.4898 150.734 45.4898ZM147.155 42.7741C147.155 45.0825 148.256 46.8477 150.734 46.8477C152.661 46.8477 154.038 45.3541 154.038 43.453C154.038 42.6383 153.763 41.8235 153.212 41.1446C152.662 40.4657 151.836 40.1941 151.01 40.1941C150.321 40.1941 149.633 40.4657 148.945 40.7372C149.633 39.2436 150.872 38.0215 152.524 37.4783C152.799 37.3425 152.799 37.2067 152.799 37.0709L152.524 36.5278C152.524 36.392 152.386 36.392 152.386 36.392C152.249 36.392 152.249 36.392 152.111 36.392C150.734 36.7994 147.155 38.5646 147.155 42.7741ZM140.272 44.132C140.41 43.1814 141.236 42.3667 142.2 42.3667C143.163 42.3667 143.989 43.1814 144.127 44.132C144.127 44.5393 143.851 45.0825 143.576 45.3541C143.163 45.6256 142.75 45.7614 142.2 45.7614C141.787 45.7614 141.236 45.6256 140.961 45.3541C140.548 44.9467 140.41 44.5393 140.272 44.132ZM142.2 40.7372C141.098 40.6014 140.548 39.9225 140.548 39.1078C140.548 38.7004 140.685 38.293 140.961 38.0215C141.236 37.7499 141.649 37.6141 142.062 37.6141C142.475 37.6141 142.888 37.7499 143.301 38.0215C143.576 38.293 143.851 38.7004 143.851 39.1078C143.851 39.9225 143.301 40.6014 142.2 40.7372ZM138.62 43.8604C138.62 44.6751 139.033 45.4898 139.722 46.033C140.41 46.5762 141.236 46.8477 142.062 46.7119C144.264 46.7119 145.503 45.4898 145.503 43.8604C145.366 42.7741 144.677 41.8235 143.714 41.4162V41.2804C144.54 40.873 145.228 39.9225 145.228 38.972C144.953 37.4783 143.576 36.2562 142.062 36.2562C140.41 36.2562 139.171 37.4783 138.896 38.972C138.896 39.9225 139.584 40.873 140.41 41.2804C139.446 41.8235 138.758 42.7741 138.62 43.8604ZM131.462 46.5761H136.693C136.831 46.5761 136.831 46.5762 136.831 46.4404L136.969 46.3046V45.6256C136.969 45.4898 136.969 45.4898 136.831 45.4898L136.693 45.3541H135.041V36.7994C135.041 36.6636 134.904 36.5278 134.766 36.5278H134.078L131.875 38.5646C131.875 38.7004 131.875 38.8362 131.875 38.8362L132.013 39.3793C132.013 39.5151 132.151 39.5151 132.288 39.5151L133.665 38.8362V45.4898H131.462C131.325 45.4898 131.325 45.4898 131.325 45.6256L131.187 45.7614V46.4404C131.187 46.5762 131.187 46.5761 131.325 46.5761H131.462ZM117.834 41.4162C117.697 40.0583 118.522 38.7004 119.761 37.8857C121 37.2067 122.515 37.2067 123.753 37.8857C124.992 38.5646 125.681 39.9225 125.681 41.4162C125.543 43.453 123.891 45.0825 121.826 45.0825C119.761 45.0825 117.972 43.453 117.834 41.4162ZM116.32 41.4162C116.32 44.4035 118.798 46.7119 121.689 46.7119C124.717 46.7119 127.057 44.2677 127.057 41.4162C127.057 38.4288 124.579 36.1204 121.689 36.1204C120.312 36.1204 118.935 36.6636 117.834 37.6141C116.871 38.7004 116.32 40.0583 116.32 41.4162ZM105.583 46.3046C105.583 46.4404 105.72 46.5761 105.858 46.5761H106.822C106.959 46.5761 107.097 46.4404 107.097 46.3046V39.1078L113.567 46.7119H113.98C114.117 46.7119 114.255 46.5762 114.255 46.4404V36.5278C114.255 36.392 114.117 36.2562 113.98 36.2562H113.016C112.879 36.2562 112.741 36.392 112.741 36.5278V43.453L106.271 35.9846H105.858C105.72 35.9846 105.583 36.1204 105.583 36.2562V46.3046ZM97.3233 43.0456L99.1128 38.972L100.902 43.0456H97.3233ZM94.5701 46.5761H95.5337C95.6714 46.5761 95.809 46.4404 95.809 46.3046C96.0843 45.6256 96.3597 44.9467 96.7726 44.2677H101.728L102.692 46.3046C102.692 46.4404 102.83 46.5761 102.967 46.5761H103.931C104.068 46.5761 104.068 46.5762 104.206 46.4404C104.206 46.3046 104.206 46.3046 104.206 46.1688L99.6634 36.2562C99.6634 36.1204 99.5258 36.1204 99.3881 36.1204H99.1128C98.9752 36.1204 98.8375 36.2562 98.8375 36.2562L94.1571 46.1688C94.1571 46.3046 94.1571 46.3046 94.1571 46.4404C94.2948 46.5762 94.2948 46.5761 94.5701 46.5761ZM87.4119 46.3046C87.4119 46.4404 87.5496 46.5761 87.6873 46.5761H93.0559C93.1935 46.5761 93.3312 46.4404 93.3312 46.3046V45.4898C93.3312 45.3541 93.1935 45.2183 93.0559 45.2183H89.0638V36.5278C89.0638 36.392 88.9262 36.2562 88.7885 36.2562H87.8249C87.6873 36.2562 87.5496 36.392 87.5496 36.5278V46.3046H87.4119ZM82.8692 46.3046C82.8692 46.4404 83.0069 46.5761 83.1446 46.5761H84.1082C84.2458 46.5761 84.3835 46.4404 84.3835 46.3046V36.5278C84.3835 36.392 84.2458 36.2562 84.1082 36.2562H83.1446C83.0069 36.2562 82.8692 36.392 82.8692 36.5278V46.3046ZM69.1035 46.3046C69.1035 46.4404 69.1035 46.4404 69.1035 46.5761C69.1035 46.5761 69.2412 46.7119 69.3788 46.7119H70.3424C70.4801 46.7119 70.6177 46.5762 70.6177 46.4404L71.719 39.7867L74.4721 46.5761C74.4721 46.7119 74.6098 46.7119 74.7475 46.7119H75.0228C75.1604 46.7119 75.2981 46.7119 75.2981 46.5761L78.0512 39.7867L79.1525 46.4404C79.1525 46.5762 79.2902 46.5762 79.4278 46.7119H80.3914C80.5291 46.7119 80.5291 46.7119 80.6667 46.5761C80.6667 46.4404 80.8044 46.4404 80.6667 46.3046L78.8772 36.392C78.8772 36.2562 78.7395 36.1204 78.6019 36.1204H78.4642C78.3266 36.1204 78.1889 36.1204 78.1889 36.2562L75.0228 43.8604L71.8567 36.2562C71.8567 36.1204 71.719 36.1204 71.5813 36.1204H71.306C71.1684 36.1204 71.0307 36.2562 71.0307 36.392L69.1035 46.3046Z" fill="white"/>
<path d="M195.198 21.8621C195.198 19.961 196.437 18.06 198.226 17.381C200.016 16.5663 202.218 16.9736 203.595 18.4673C204.971 19.8252 205.384 21.9979 204.696 23.7632C203.87 25.5285 202.08 26.7506 200.153 26.7506C197.538 26.7506 195.335 24.5779 195.198 21.8621ZM192.582 21.8621C192.582 26.0716 196.024 29.4664 200.291 29.4664C204.558 29.4664 208 26.0716 208 21.8621C208 17.6526 204.558 14.2578 200.291 14.2578C198.226 14.2578 196.299 15.0726 194.785 16.4305C193.27 17.9242 192.444 19.8252 192.582 21.8621ZM177.577 21.8621C177.577 23.899 178.403 25.8 179.78 27.2937C181.294 28.6516 183.221 29.4664 185.286 29.4664C187.213 29.4664 189.141 28.7874 190.517 27.4295C190.655 27.2937 190.655 27.0221 190.517 26.8864L189.141 25.5285C189.003 25.3927 188.728 25.3927 188.59 25.5285C187.626 26.3432 186.525 26.7506 185.286 26.7506C184.047 26.7506 182.808 26.2074 181.845 25.2569C180.881 24.3063 180.468 23.0842 180.468 21.8621C180.468 20.64 180.881 19.2821 181.845 18.4673C182.808 17.5168 184.047 16.9736 185.286 16.9736C186.525 16.9736 187.626 17.381 188.59 18.1957C188.59 18.3315 188.728 18.3315 188.865 18.3315C189.003 18.3315 189.003 18.3315 189.141 18.1957L190.38 16.8378C190.517 16.702 190.517 16.702 190.517 16.5663C190.517 16.4305 190.517 16.2947 190.38 16.2947C189.003 14.9368 187.076 14.2578 185.149 14.3936C183.084 14.3936 181.157 15.2083 179.642 16.5663C178.128 17.9242 177.577 19.8252 177.577 21.8621ZM171.934 28.7874C171.934 29.059 172.071 29.1948 172.346 29.1948H174.274C174.549 29.1948 174.687 29.059 174.687 28.7874V14.9368C174.687 14.6652 174.549 14.5294 174.274 14.5294H172.346C172.071 14.5294 171.934 14.6652 171.934 14.9368V28.7874ZM155.69 28.7874C155.69 29.059 155.828 29.1948 156.103 29.1948H158.03C158.168 29.1948 158.305 29.1948 158.305 29.059C158.305 28.9232 158.443 28.9232 158.443 28.7874V19.8252L167.391 29.4664H167.941C168.079 29.4664 168.217 29.4664 168.217 29.3306C168.354 29.1948 168.354 29.1948 168.354 29.059V14.9368C168.354 14.6652 168.217 14.5294 167.941 14.5294H166.014C165.877 14.5294 165.739 14.5294 165.739 14.6652C165.739 14.801 165.601 14.801 165.601 14.9368V23.6274L156.654 14.2578H156.103C155.828 14.2578 155.69 14.3936 155.69 14.6652V28.7874ZM139.859 21.8621C139.859 23.899 140.685 25.8 142.062 27.2937C143.576 28.6516 145.503 29.4664 147.568 29.4664C149.495 29.4664 151.423 28.7874 152.799 27.4295C152.937 27.2937 152.937 27.0221 152.799 26.8864L151.423 25.5285C151.285 25.3927 151.01 25.3927 150.872 25.5285C149.908 26.3432 148.807 26.7506 147.568 26.7506C146.329 26.7506 145.09 26.2074 144.127 25.2569C143.163 24.3063 142.75 23.0842 142.75 21.8621C142.75 20.64 143.163 19.2821 144.127 18.4673C145.09 17.5168 146.192 16.9736 147.568 16.9736C148.807 16.9736 149.908 17.381 150.872 18.1957C150.872 18.3315 151.01 18.3315 151.147 18.3315C151.285 18.3315 151.285 18.3315 151.423 18.1957L152.799 16.8378C152.937 16.702 152.937 16.702 152.937 16.5663C152.937 16.4305 152.937 16.2947 152.799 16.2947C151.423 14.9368 149.495 14.2578 147.568 14.3936C145.503 14.3936 143.576 15.2083 142.062 16.5663C140.548 17.9242 139.859 19.8252 139.859 21.8621ZM128.158 28.7874C128.158 29.059 128.296 29.1948 128.571 29.1948H137.244C137.382 29.1948 137.519 29.1948 137.519 29.059C137.519 28.9232 137.657 28.9232 137.657 28.7874V27.1579C137.657 27.0222 137.657 26.8864 137.519 26.8864C137.382 26.7506 137.382 26.7506 137.244 26.7506H130.912V23.0842H136.28C136.556 23.0842 136.693 22.9484 136.693 22.6768V20.9116C136.693 20.64 136.556 20.5042 136.28 20.5042H131.049V17.1094H137.382C137.519 17.1094 137.657 17.1094 137.657 16.9736C137.795 16.8378 137.794 16.8378 137.794 16.702V14.9368C137.794 14.801 137.795 14.6652 137.657 14.6652C137.519 14.6652 137.519 14.5294 137.382 14.5294H128.709C128.434 14.5294 128.296 14.6652 128.296 14.9368V28.7874H128.158ZM119.348 28.7874C119.348 29.059 119.486 29.1948 119.761 29.1948H121.689C121.964 29.1948 122.102 29.059 122.102 28.7874V16.9736H125.405C125.543 16.9736 125.681 16.9736 125.681 16.8378C125.818 16.702 125.818 16.702 125.818 16.5663V14.9368C125.818 14.801 125.818 14.6652 125.681 14.6652C125.543 14.6652 125.543 14.5294 125.405 14.5294H116.045C115.907 14.5294 115.769 14.5294 115.769 14.6652C115.769 14.801 115.632 14.801 115.632 14.9368V16.702C115.632 16.8378 115.632 16.9736 115.769 16.9736C115.907 17.1094 115.907 17.1094 116.045 17.1094H119.348V28.7874ZM110.125 28.7874C110.125 29.059 110.263 29.1948 110.538 29.1948H112.603C112.879 29.1948 113.016 29.059 113.016 28.7874V14.9368C113.016 14.6652 112.879 14.5294 112.603 14.5294H110.538C110.263 14.5294 110.125 14.6652 110.125 14.9368V28.7874ZM98.6998 28.7874C98.6998 28.9232 98.6998 29.059 98.8375 29.059C98.9751 29.059 98.9751 29.1948 99.1128 29.1948H106.959C107.097 29.1948 107.235 29.1948 107.235 29.059C107.372 28.9232 107.372 28.9232 107.372 28.7874V27.1579C107.372 27.0222 107.372 26.8864 107.235 26.8864C107.097 26.7506 107.097 26.7506 106.959 26.7506H101.453V14.9368C101.453 14.6652 101.315 14.5294 101.04 14.5294H99.1128C98.9751 14.5294 98.8375 14.5294 98.8375 14.6652C98.8375 14.801 98.6998 14.801 98.6998 14.9368V28.7874ZM83.8328 21.8621C83.8328 19.961 85.0718 18.06 86.8613 17.381C88.6508 16.5663 90.8534 16.9736 92.2299 18.4673C93.6065 19.8252 94.0195 21.9979 93.3312 23.7632C92.5053 25.5285 90.7157 26.7506 88.7885 26.7506C86.0354 26.7506 83.8328 24.5779 83.8328 21.8621ZM81.0797 21.8621C81.0797 26.0716 84.5211 29.4664 88.7885 29.4664C93.0559 29.4664 96.4973 26.0716 96.4973 21.8621C96.4973 17.6526 93.0559 14.2578 88.7885 14.2578C86.7236 14.2578 84.7964 15.0726 83.2822 16.4305C81.9056 17.9242 81.0797 19.8252 81.0797 21.8621ZM71.9943 21.3189V17.1094H74.4721C75.0228 17.1094 75.5734 17.2452 75.9864 17.6526C76.3994 18.06 76.6747 18.6031 76.6747 19.1463C76.6747 19.6894 76.3994 20.2326 75.9864 20.64C75.5734 21.0474 75.0228 21.3189 74.4721 21.3189H71.9943ZM69.2412 28.7874C69.2412 28.9232 69.2412 29.059 69.3788 29.059C69.5165 29.1948 69.5165 29.1948 69.6541 29.1948H71.5813C71.8567 29.1948 71.9943 29.059 71.9943 28.7874V23.899H74.6098C76.3994 24.0348 78.0512 23.0842 79.0148 21.5905C79.9784 20.0968 79.9784 18.1957 79.0148 16.702C78.0512 15.2083 76.3994 14.3936 74.6098 14.3936H69.5165C69.3788 14.3936 69.2412 14.3936 69.2412 14.5294C69.1035 14.6652 69.1035 14.6652 69.1035 14.801L69.2412 28.7874Z" fill="white"/>
</svg>
