<svg width="293" height="64" viewBox="0 0 293 64" fill="none" xmlns="http://www.w3.org/2000/svg">
<rect width="293" height="60" rx="9" fill="#5D2ECF"/>
<path d="M34.6618 31.989C34.167 31.989 33.848 32.1388 33.7048 32.4382C33.5746 32.7377 33.5095 33.4343 33.5095 34.5281C33.5095 36.1817 33.6137 37.4708 33.822 38.3953C33.8871 38.6557 33.9848 38.8575 34.115 39.0007C34.2452 39.144 34.4926 39.3197 34.8571 39.5281C35.6384 39.9578 36.029 40.5242 36.029 41.2273C36.029 42.0867 35.4821 42.6986 34.3884 43.0632C33.3077 43.4148 31.4717 43.5906 28.8806 43.5906C24.0629 43.5906 21.654 42.6791 21.654 40.8562C21.654 40.5437 21.7256 40.2963 21.8689 40.114C22.0121 39.9187 22.3376 39.6518 22.8454 39.3132C23.4183 38.9356 23.8025 38.4929 23.9978 37.9851C24.2061 37.4643 24.3493 36.5723 24.4275 35.3093C24.4926 34.3848 24.5251 31.071 24.5251 25.3679C24.5251 23.558 24.434 22.3276 24.2517 21.6765C24.0694 21.0255 23.6788 20.5502 23.0798 20.2507C22.5069 19.9773 22.1228 19.7299 21.9275 19.5085C21.7321 19.2742 21.6345 18.9747 21.6345 18.6101C21.6345 18.1283 21.8168 17.7117 22.1814 17.3601C22.559 16.9955 23.0798 16.7286 23.7439 16.5593C24.3038 16.4161 25.072 16.3445 26.0486 16.3445C26.4782 16.3445 27.5525 16.4096 29.2712 16.5398C29.5967 16.5658 30.1111 16.5789 30.8142 16.5789C31.9861 16.5789 33.5486 16.5007 35.5017 16.3445C36.7387 16.2533 37.6045 16.2078 38.0993 16.2078C40.8858 16.2078 43.1905 16.8783 45.0134 18.2195C46.654 19.4304 47.4743 21.1101 47.4743 23.2585C47.4743 24.4565 47.1879 25.5502 46.615 26.5398C46.042 27.5164 45.2543 28.252 44.2517 28.7468C43.835 28.9552 43.6267 29.2026 43.6267 29.489C43.6267 29.8666 43.9457 30.1726 44.5837 30.407C45.9509 30.9018 46.9535 31.6505 47.5915 32.6531C48.2295 33.6557 48.6853 35.1921 48.9587 37.2625C49.0759 38.1218 49.2452 38.6817 49.4665 38.9421C49.6879 39.1895 50.2022 39.4304 51.0095 39.6648C51.2569 39.7429 51.4652 39.9122 51.6345 40.1726C51.8038 40.42 51.8884 40.7 51.8884 41.0125C51.8884 41.4161 51.7321 41.8263 51.4196 42.2429C51.1071 42.6466 50.7035 42.9656 50.2087 43.2C49.115 43.7078 47.6176 43.9617 45.7165 43.9617C43.1775 43.9617 41.3611 43.2911 40.2673 41.95C39.7725 41.351 39.3493 40.5958 38.9978 39.6843C38.6592 38.7729 38.2556 37.3536 37.7868 35.4265C37.4874 34.1895 37.1032 33.3171 36.6345 32.8093C36.1788 32.3015 35.5212 32.0281 34.6618 31.989ZM33.529 22.0281L33.3142 26.5789C33.3142 26.6179 33.3142 26.6765 33.3142 26.7546C33.3142 27.2234 33.3793 27.5359 33.5095 27.6921C33.6527 27.8484 33.9327 27.9265 34.3493 27.9265C35.4952 27.9265 36.3285 27.6335 36.8493 27.0476C37.3702 26.4486 37.6306 25.4981 37.6306 24.196C37.6306 21.683 36.7387 20.4265 34.9548 20.4265C34.447 20.4265 34.0889 20.5437 33.8806 20.7781C33.6723 21.0125 33.5551 21.4291 33.529 22.0281ZM56.7861 16.5398H66.8251C68.8564 16.5398 70.3342 16.5007 71.2587 16.4226C72.1962 16.3315 73.1077 16.1557 73.9931 15.8953C74.2665 15.8171 74.4814 15.7781 74.6376 15.7781C75.3147 15.7781 75.9137 16.1427 76.4345 16.8718C77.2939 18.0567 77.7236 19.489 77.7236 21.1687C77.7236 22.0151 77.5413 22.6856 77.1767 23.1804C76.8251 23.6622 76.3368 23.9031 75.7118 23.9031C75.2821 23.9031 74.9436 23.8184 74.6962 23.6492C74.4618 23.4669 74.1428 23.0697 73.7392 22.4578C73.1663 21.5854 72.4371 21.0059 71.5517 20.7195C70.6793 20.42 69.2405 20.2703 67.2353 20.2703C65.7379 20.2703 64.8264 20.5372 64.5009 21.071C64.3316 21.3575 64.2275 21.7416 64.1884 22.2234C64.1624 22.7052 64.1493 23.9356 64.1493 25.9148C64.1493 26.696 64.2795 27.1843 64.54 27.3796C64.8004 27.5619 65.484 27.6531 66.5907 27.6531C67.1376 27.6531 67.5348 27.5424 67.7821 27.321C68.0295 27.0867 68.1858 26.6765 68.2509 26.0906C68.342 25.3354 68.4332 24.821 68.5243 24.5476C68.6285 24.2611 68.8108 24.0138 69.0712 23.8054C69.3446 23.571 69.6637 23.4539 70.0282 23.4539C70.5621 23.4539 71.0178 23.7078 71.3954 24.2156C71.6689 24.5932 71.8967 25.2638 72.079 26.2273C72.2743 27.1778 72.372 28.1739 72.372 29.2156C72.372 31.2729 72.053 32.9591 71.415 34.2742C71.0634 34.9903 70.5295 35.3484 69.8134 35.3484C69.3707 35.3484 69.0647 35.2377 68.8954 35.0164C68.7262 34.782 68.5959 34.3067 68.5048 33.5906C68.3095 32.1192 67.4501 31.3835 65.9267 31.3835C65.3407 31.3835 64.9371 31.5723 64.7157 31.95C64.5074 32.3145 64.4032 32.9981 64.4032 34.0007C64.4032 34.6127 64.4423 35.407 64.5204 36.3835C64.6116 37.3471 64.7027 37.9851 64.7939 38.2976C64.898 38.6882 65.217 38.9617 65.7509 39.1179C66.2978 39.2611 67.2027 39.3328 68.4657 39.3328C70.4189 39.3328 71.8902 39.0854 72.8798 38.5906C73.8694 38.0828 74.6767 37.1713 75.3017 35.8562C75.6663 35.101 75.9918 34.5932 76.2782 34.3328C76.5777 34.0723 76.9618 33.9421 77.4306 33.9421C77.9775 33.9421 78.4267 34.183 78.7782 34.6648C79.1428 35.1335 79.3251 35.726 79.3251 36.4421C79.3251 37.2234 79.1233 38.2 78.7196 39.3718C78.316 40.5437 77.8212 41.5854 77.2353 42.4968C76.9358 42.9395 76.6884 43.2325 76.4931 43.3757C76.2978 43.532 76.0504 43.6101 75.7509 43.6101C75.5035 43.6101 75.1454 43.571 74.6767 43.4929C73.8433 43.3367 72.7301 43.239 71.3368 43.2H54.7743C54.1103 43.2 53.5959 43.0567 53.2314 42.7703C52.8668 42.4708 52.6845 42.0541 52.6845 41.5203C52.6845 41.1427 52.7626 40.8692 52.9189 40.7C53.0751 40.5307 53.4332 40.3158 53.9931 40.0554C54.3837 39.8861 54.6702 39.6778 54.8525 39.4304C55.0478 39.183 55.1975 38.8184 55.3017 38.3367C55.7314 36.3705 55.9462 33.7208 55.9462 30.3875C55.9462 25.3614 55.6337 22.1908 55.0087 20.8757C54.8785 20.6153 54.7353 20.433 54.579 20.3289C54.4228 20.2247 54.0973 20.101 53.6025 19.9578C52.8603 19.7364 52.4892 19.2416 52.4892 18.4734C52.4892 18.0567 52.6129 17.6856 52.8603 17.3601C53.1077 17.0346 53.4332 16.8197 53.8368 16.7156C54.3446 16.5984 55.3277 16.5398 56.7861 16.5398ZM105.434 29.7039L109.125 37.614C109.477 38.3432 109.77 38.825 110.004 39.0593C110.238 39.2807 110.596 39.4304 111.078 39.5085C112.016 39.6518 112.484 40.127 112.484 40.9343C112.484 41.8848 111.912 42.5684 110.766 42.9851C109.62 43.4018 107.745 43.6101 105.141 43.6101C102.198 43.6101 100.017 43.4864 98.5978 43.239C97.9467 43.1218 97.4259 42.8875 97.0353 42.5359C96.6577 42.1713 96.4689 41.7351 96.4689 41.2273C96.4689 40.8367 96.5665 40.5372 96.7618 40.3289C96.9702 40.1075 97.3478 39.9057 97.8946 39.7234C98.5066 39.5151 98.8126 39.1635 98.8126 38.6687C98.8126 37.7963 98.2853 37.282 97.2306 37.1257C96.0978 36.9695 94.5027 36.8914 92.4454 36.8914C90.7137 36.8914 89.6785 36.9955 89.34 37.2039C89.1316 37.3341 88.9493 37.5684 88.7931 37.907C88.6368 38.2455 88.5587 38.571 88.5587 38.8835C88.5587 39.17 88.6108 39.3588 88.715 39.45C88.8321 39.5281 89.1967 39.6648 89.8087 39.8601C90.603 40.0945 91.0001 40.5632 91.0001 41.2664C91.0001 42.8158 89.1446 43.5906 85.4337 43.5906C83.3243 43.5906 81.7749 43.4473 80.7853 43.1609C79.8738 42.8875 79.4181 42.2885 79.4181 41.364C79.4181 40.9604 79.5157 40.6479 79.7111 40.4265C79.9194 40.2052 80.284 40.0033 80.8048 39.821C81.6512 39.5216 82.2892 39.1049 82.7189 38.571C83.1616 38.0242 83.7866 36.8653 84.5939 35.0945L87.3478 29.0593C88.3634 26.8458 89.0405 25.1921 89.379 24.0984C89.7306 22.9916 89.9129 21.9109 89.9259 20.8562C89.9389 19.7364 90.004 18.9617 90.1212 18.532C90.2514 18.0893 90.5314 17.6596 90.9611 17.2429C91.8595 16.3315 93.0053 15.8757 94.3986 15.8757C95.7137 15.8757 96.9702 16.3901 98.1681 17.4187C99.8347 18.825 102.257 22.92 105.434 29.7039ZM91.84 32.1648H95.6681C96.3712 32.1648 96.7228 32.0085 96.7228 31.696C96.7228 31.2664 96.2345 30.2117 95.2579 28.532C94.8152 27.7638 94.4767 27.2494 94.2423 26.989C94.0079 26.7286 93.7605 26.5984 93.5001 26.5984C93.0314 26.5984 92.6407 27.0346 92.3282 27.907C92.2762 28.0242 92.0874 28.4864 91.7618 29.2937C91.215 30.6218 90.9415 31.4161 90.9415 31.6765C90.9415 32.002 91.241 32.1648 91.84 32.1648ZM126.327 15.9929C128.229 15.9929 130.064 16.4096 131.835 17.2429C132.669 17.6335 133.248 17.8289 133.574 17.8289C133.808 17.8289 134.186 17.7703 134.706 17.6531C134.876 17.614 135.064 17.5945 135.273 17.5945C135.95 17.5945 136.542 17.907 137.05 18.532C138.3 20.0424 138.925 21.9174 138.925 24.157C138.925 25.7325 138.385 26.8848 137.304 27.614C136.718 28.0046 136.061 28.2 135.331 28.2C134.667 28.2 134.127 28.0567 133.71 27.7703C133.294 27.4838 132.89 26.976 132.499 26.2468C131.939 25.2182 131.484 24.4825 131.132 24.0398C130.781 23.5841 130.351 23.1739 129.843 22.8093C128.58 21.9239 127.258 21.4812 125.878 21.4812C124.537 21.4812 123.469 21.9695 122.675 22.946C121.894 23.9096 121.503 25.2052 121.503 26.8328C121.503 29.0723 122.07 31.1231 123.202 32.9851C124.739 35.4721 126.939 36.7156 129.804 36.7156C130.859 36.7156 131.9 36.5398 132.929 36.1882C133.971 35.8367 134.778 35.3809 135.351 34.821C135.846 34.3523 136.249 34.1179 136.562 34.1179C137.018 34.1179 137.408 34.3328 137.734 34.7625C138.059 35.1791 138.222 35.6869 138.222 36.2859C138.222 37.0411 137.994 37.8875 137.538 38.825C137.083 39.7625 136.536 40.4981 135.898 41.032C135.624 41.2533 135.058 41.4486 134.199 41.6179C133.704 41.7091 133.046 41.95 132.226 42.3406C130.299 43.2651 128.294 43.7273 126.21 43.7273C124.036 43.7273 121.868 43.239 119.706 42.2625C117.193 41.1296 115.208 39.3914 113.749 37.0476C112.317 34.769 111.601 32.3861 111.601 29.8992C111.601 27.0085 112.499 24.3718 114.296 21.989C115.859 19.9187 117.896 18.3367 120.409 17.2429C122.324 16.4096 124.296 15.9929 126.327 15.9929ZM148.374 16.5398H158.667C159.773 16.5007 160.782 16.351 161.694 16.0906C162.084 15.9864 162.43 15.9343 162.729 15.9343C163.784 15.9343 164.806 16.7156 165.795 18.2781C166.798 19.8406 167.299 21.4486 167.299 23.1023C167.299 24.2351 166.954 25.0619 166.264 25.5828C165.743 25.9734 165.118 26.1687 164.389 26.1687C163.699 26.1687 163.1 25.9799 162.592 25.6023C162.084 25.2117 161.583 24.5736 161.088 23.6882C160.659 22.8809 160.32 22.3536 160.073 22.1062C159.825 21.8588 159.526 21.7351 159.174 21.7351C158.693 21.7351 158.348 21.9369 158.139 22.3406C157.931 22.7442 157.827 23.4083 157.827 24.3328V35.2703C157.827 36.3901 157.944 37.2039 158.178 37.7117C158.413 38.2195 158.855 38.6101 159.506 38.8835C160.209 39.183 160.685 39.4695 160.932 39.7429C161.193 40.0033 161.323 40.3679 161.323 40.8367C161.323 41.7742 160.685 42.4708 159.409 42.9265C158.146 43.3822 156.199 43.6101 153.569 43.6101C150.34 43.6101 147.944 43.3432 146.381 42.8093C145.066 42.3666 144.409 41.6505 144.409 40.6609C144.409 40.127 144.643 39.7104 145.112 39.4109C145.229 39.3458 145.691 39.1895 146.499 38.9421C146.993 38.7989 147.332 38.5255 147.514 38.1218C147.709 37.7182 147.866 36.9434 147.983 35.7976C148.087 34.782 148.185 33.1414 148.276 30.8757C148.367 28.5971 148.413 26.6244 148.413 24.9578C148.413 23.7859 148.321 22.9526 148.139 22.4578C147.957 21.963 147.657 21.7156 147.241 21.7156C146.733 21.7156 146.238 22.0802 145.756 22.8093C144.884 24.1375 144.168 25.0164 143.608 25.446C142.944 25.9539 142.299 26.2078 141.674 26.2078C140.971 26.2078 140.392 25.9473 139.936 25.4265C139.48 24.8927 139.252 24.2156 139.252 23.3953C139.252 22.588 139.435 21.7026 139.799 20.739C140.164 19.7625 140.652 18.864 141.264 18.0437C142.254 16.7156 143.23 16.0515 144.194 16.0515C144.454 16.0515 144.754 16.0906 145.092 16.1687C145.795 16.3119 146.368 16.4096 146.811 16.4617C147.267 16.5138 147.788 16.5398 148.374 16.5398ZM176.24 16.1296C177.724 16.1296 179.124 16.2598 180.439 16.5203C182.21 16.8718 183.095 17.6205 183.095 18.7664C183.095 19.144 183.004 19.4304 182.822 19.6257C182.653 19.808 182.21 20.0815 181.494 20.446C180.895 20.7455 180.498 21.4031 180.302 22.4187C180.12 23.4343 180.029 25.4135 180.029 28.3562C180.029 33.3302 180.153 36.4096 180.4 37.5945C180.491 37.9721 180.628 38.2651 180.81 38.4734C181.006 38.6687 181.338 38.8835 181.806 39.1179C182.666 39.5085 183.095 40.075 183.095 40.8171C183.095 41.8588 182.301 42.575 180.713 42.9656C178.994 43.3822 176.891 43.5906 174.404 43.5906C170.159 43.5906 168.037 42.7833 168.037 41.1687C168.037 40.5828 168.454 40.0359 169.287 39.5281C169.925 39.1375 170.302 38.6036 170.42 37.9265C170.667 36.4421 170.791 33.2911 170.791 28.4734C170.791 25.1401 170.621 23.0046 170.283 22.0671C170.101 21.5333 169.664 21.0515 168.974 20.6218C168.44 20.2703 168.082 19.9773 167.9 19.7429C167.718 19.5085 167.627 19.2091 167.627 18.8445C167.627 18.2846 167.894 17.8419 168.427 17.5164C168.974 17.1778 169.931 16.8783 171.299 16.6179C172.926 16.2924 174.573 16.1296 176.24 16.1296ZM199.243 15.9929C202.589 15.9929 205.513 16.95 208.013 18.864C209.705 20.1791 211.079 21.8848 212.134 23.9812C213.162 26.0645 213.677 28.1479 213.677 30.2312C213.677 33.3041 212.661 36.0515 210.63 38.4734C208.911 40.5307 206.665 42.0085 203.892 42.907C202.186 43.4539 200.474 43.7273 198.755 43.7273C196.502 43.7273 194.347 43.2585 192.29 42.321C189.803 41.1882 187.856 39.476 186.45 37.1843C185.083 34.9708 184.399 32.5294 184.399 29.8601C184.399 26.7611 185.278 24.0268 187.036 21.657C188.599 19.5476 190.701 17.9981 193.345 17.0085C195.115 16.3315 197.082 15.9929 199.243 15.9929ZM197.388 21.5984C196.294 21.5984 195.428 22.0867 194.79 23.0632C194.295 23.7924 194.048 24.6583 194.048 25.6609C194.048 27.1322 194.347 28.838 194.946 30.7781C195.545 32.7052 196.3 34.4174 197.212 35.9148C197.615 36.5528 198.11 37.0606 198.696 37.4382C199.295 37.8158 199.901 38.0046 200.513 38.0046C201.502 38.0046 202.296 37.6335 202.895 36.8914C203.507 36.1492 203.813 35.1726 203.813 33.9617C203.813 32.3861 203.559 30.6869 203.052 28.864C202.544 27.0411 201.886 25.4851 201.079 24.196C200.584 23.4018 200.011 22.7768 199.36 22.321C198.709 21.8653 198.052 21.6244 197.388 21.5984ZM225.918 17.4773L235.645 25.9929C236.556 26.7872 237.214 27.1843 237.617 27.1843C238.294 27.1843 238.633 26.4617 238.633 25.0164C238.633 23.3757 238.535 22.2559 238.34 21.657C238.145 21.058 237.734 20.6088 237.109 20.3093C236.602 20.0619 236.244 19.8015 236.035 19.5281C235.827 19.2416 235.723 18.877 235.723 18.4343C235.723 17.3406 236.471 16.6375 237.969 16.325C238.581 16.1947 239.649 16.1296 241.172 16.1296C243.138 16.1296 244.499 16.2468 245.254 16.4812C246.452 16.8458 247.051 17.5359 247.051 18.5515C247.051 19.3979 246.563 20.0359 245.586 20.4656C245.195 20.6348 244.929 20.7846 244.785 20.9148C244.642 21.045 244.518 21.2403 244.414 21.5007C244.063 22.3601 243.88 23.9877 243.867 26.3835V32.7507C243.867 33.7273 243.874 35.0619 243.887 36.7546C243.9 39.0463 243.763 40.7 243.477 41.7156C243.125 42.9786 242.487 43.6101 241.563 43.6101C241.159 43.6101 240.807 43.5255 240.508 43.3562C240.221 43.1869 239.74 42.7963 239.063 42.1843L227.481 31.8132C226.673 31.0841 226.003 30.7195 225.469 30.7195C224.675 30.7195 224.277 31.8197 224.277 34.0203C224.277 35.8302 224.375 37.0671 224.57 37.7312C224.779 38.3953 225.195 38.8835 225.82 39.196C226.693 39.6257 227.129 40.1856 227.129 40.8757C227.129 42.6856 225.182 43.5906 221.289 43.5906C219.531 43.5906 218.164 43.3627 217.188 42.907C216.224 42.4382 215.742 41.7807 215.742 40.9343C215.742 40.4916 215.833 40.1596 216.016 39.9382C216.198 39.7169 216.608 39.4174 217.246 39.0398C217.858 38.6752 218.229 38.0307 218.359 37.1062C218.581 35.4265 218.692 33.0111 218.692 29.8601C218.692 26.5007 218.496 24.0528 218.106 22.5164C217.962 21.9565 217.78 21.5398 217.559 21.2664C217.337 20.9929 216.973 20.7325 216.465 20.4851C215.879 20.1986 215.469 19.9187 215.234 19.6453C215.013 19.3718 214.902 19.0398 214.902 18.6492C214.902 17.3992 215.977 16.6114 218.125 16.2859C218.854 16.1817 220.13 16.1296 221.953 16.1296C222.995 16.1296 223.75 16.2143 224.219 16.3835C224.701 16.5398 225.267 16.9044 225.918 17.4773ZM259.976 15.9929C261.317 15.9929 263.075 16.325 265.249 16.989C265.51 17.0671 265.718 17.1062 265.874 17.1062C266.005 17.1062 266.395 16.989 267.046 16.7546C267.255 16.6765 267.476 16.6375 267.71 16.6375C268.583 16.6375 269.501 17.3276 270.464 18.7078C271.441 20.088 271.929 21.4031 271.929 22.6531C271.929 23.3822 271.708 24.0007 271.265 24.5085C270.835 25.0033 270.308 25.2507 269.683 25.2507C269.162 25.2507 268.739 25.1466 268.413 24.9382C268.088 24.7299 267.372 24.1114 266.265 23.0828C264.702 21.6244 263.166 20.8953 261.656 20.8953C260.926 20.8953 260.34 21.071 259.898 21.4226C259.468 21.7742 259.253 22.2364 259.253 22.8093C259.253 23.9421 260.249 24.795 262.242 25.3679C264.937 26.1622 266.662 26.7416 267.417 27.1062C270.738 28.7208 272.398 31.0971 272.398 34.2351C272.398 37.0085 271.265 39.2742 268.999 41.032C266.682 42.8289 263.654 43.7273 259.917 43.7273C258.251 43.7273 256.493 43.532 254.644 43.1414C252.795 42.7377 251.46 42.269 250.64 41.7351C250.015 41.3184 249.449 40.4135 248.941 39.0203C248.446 37.614 248.199 36.2468 248.199 34.9187C248.199 34.2807 248.329 33.7989 248.589 33.4734C248.915 33.0567 249.325 32.8484 249.82 32.8484C250.314 32.8484 250.79 33.1023 251.245 33.6101C251.519 33.8966 252.163 34.8145 253.179 36.364C253.661 37.0932 254.423 37.6986 255.464 38.1804C256.519 38.6622 257.606 38.9031 258.726 38.9031C259.689 38.9031 260.471 38.7273 261.07 38.3757C261.669 38.0111 261.968 37.5489 261.968 36.989C261.968 36.4682 261.734 36.019 261.265 35.6414C260.796 35.2638 260.034 34.9122 258.98 34.5867C257.118 34.0007 255.699 33.4669 254.722 32.9851C253.745 32.4903 252.834 31.8718 251.988 31.1296C249.93 29.3067 248.902 27.2364 248.902 24.9187C248.902 23.7729 249.169 22.6596 249.702 21.5789C250.236 20.4851 250.992 19.5411 251.968 18.7468C254.156 16.9109 256.825 15.9929 259.976 15.9929Z" fill="white"/>
</svg>
