<svg xmlns="http://www.w3.org/2000/svg" viewBox="0 0 176.55 33.532"><defs><style>.cls-1{fill:#268dfe;}.cls-2{fill:#fff;}</style></defs><g id="Layer_2" data-name="Layer 2"><g id="Layer_1-2" data-name="Layer 1"><rect class="cls-1" width="176.55" height="33.532" rx="8.049"/><path class="cls-2" d="M19.483,7.005a9.784,9.784,0,1,0,.046,0Zm4.037,5.876A.637.637,0,0,1,23.9,13a.411.411,0,0,1,.139.264,1.715,1.715,0,0,1,.016.384c-.146,1.544-.782,5.289-1.106,7.018-.137.732-.406.977-.667,1-.566.053-1-.374-1.546-.733-.859-.564-1.344-.915-2.178-1.465-.964-.634-.339-.984.21-1.553.144-.15,2.641-2.422,2.69-2.628a.2.2,0,0,0-.046-.172.223.223,0,0,0-.2-.02q-.13.03-4.117,2.721a1.839,1.839,0,0,1-1.059.391,6.926,6.926,0,0,1-1.517-.358c-.612-.2-1.1-.3-1.055-.642q.033-.264.726-.539,4.267-1.86,5.693-2.452C22.589,13.084,23.153,12.887,23.52,12.881Z"/><path class="cls-2" d="M39.689,20.941V12.41H42.1a3.878,3.878,0,0,1,1.969.492,3.328,3.328,0,0,1,1.321,1.4,4.556,4.556,0,0,1,.472,2.086v.545a4.565,4.565,0,0,1-.466,2.115,3.277,3.277,0,0,1-1.33,1.4,4.128,4.128,0,0,1-2.013.5Zm1.125-7.611v6.691H42a2.575,2.575,0,0,0,2.025-.81,3.343,3.343,0,0,0,.724-2.3v-.5a3.4,3.4,0,0,0-.683-2.261,2.426,2.426,0,0,0-1.937-.818Z"/><path class="cls-2" d="M47.1,17.712a3.743,3.743,0,0,1,.366-1.675,2.728,2.728,0,0,1,1.02-1.149,2.777,2.777,0,0,1,1.491-.4,2.678,2.678,0,0,1,2.095.9,3.451,3.451,0,0,1,.8,2.385v.076a3.781,3.781,0,0,1-.354,1.661A2.687,2.687,0,0,1,51.5,20.648a2.808,2.808,0,0,1-1.514.41,2.668,2.668,0,0,1-2.089-.9,3.434,3.434,0,0,1-.8-2.373Zm1.09.129a2.716,2.716,0,0,0,.489,1.694,1.659,1.659,0,0,0,2.622-.009,2.968,2.968,0,0,0,.486-1.814,2.708,2.708,0,0,0-.495-1.69,1.573,1.573,0,0,0-1.315-.648,1.556,1.556,0,0,0-1.3.639A2.945,2.945,0,0,0,48.191,17.841Z"/><path class="cls-2" d="M59.845,19.447,61.064,14.6h1.084L60.3,20.941h-.879l-1.541-4.8-1.5,4.805H55.5l-1.84-6.34h1.079l1.248,4.746L57.466,14.6h.873Z"/><path class="cls-2" d="M64.275,14.6l.035.8a2.31,2.31,0,0,1,1.9-.914q2.01,0,2.028,2.267v4.19H67.152V16.746a1.462,1.462,0,0,0-.314-1.014,1.255,1.255,0,0,0-.958-.328,1.565,1.565,0,0,0-.925.281,1.921,1.921,0,0,0-.622.738v4.518H63.249V14.6Z"/><path class="cls-2" d="M71.048,20.941H69.964v-9h1.084Z"/><path class="cls-2" d="M72.5,17.712a3.743,3.743,0,0,1,.366-1.675,2.732,2.732,0,0,1,1.019-1.149,2.782,2.782,0,0,1,1.491-.4,2.675,2.675,0,0,1,2.095.9,3.452,3.452,0,0,1,.8,2.385v.076a3.781,3.781,0,0,1-.354,1.661A2.7,2.7,0,0,1,76.9,20.648a2.812,2.812,0,0,1-1.515.41,2.671,2.671,0,0,1-2.089-.9,3.433,3.433,0,0,1-.8-2.373Zm1.089.129a2.71,2.71,0,0,0,.49,1.694,1.659,1.659,0,0,0,2.622-.009,2.968,2.968,0,0,0,.486-1.814,2.708,2.708,0,0,0-.5-1.69,1.574,1.574,0,0,0-1.316-.648,1.555,1.555,0,0,0-1.294.639A2.938,2.938,0,0,0,73.585,17.841Z"/><path class="cls-2" d="M83.54,20.941a2.3,2.3,0,0,1-.152-.668,2.42,2.42,0,0,1-1.805.785,2.241,2.241,0,0,1-1.538-.53,1.718,1.718,0,0,1-.6-1.345,1.792,1.792,0,0,1,.753-1.538,3.551,3.551,0,0,1,2.118-.548h1.055v-.5a1.218,1.218,0,0,0-.34-.9,1.366,1.366,0,0,0-1-.337,1.584,1.584,0,0,0-.973.293.862.862,0,0,0-.393.709H79.574a1.493,1.493,0,0,1,.337-.917,2.293,2.293,0,0,1,.914-.7,3.068,3.068,0,0,1,1.268-.258,2.5,2.5,0,0,1,1.717.548,1.977,1.977,0,0,1,.645,1.508v2.918a3.58,3.58,0,0,0,.222,1.389v.094Zm-1.8-.826a1.9,1.9,0,0,0,.966-.264,1.6,1.6,0,0,0,.663-.686v-1.3h-.85q-1.992,0-1.992,1.166a.986.986,0,0,0,.34.8A1.306,1.306,0,0,0,81.742,20.115Z"/><path class="cls-2" d="M85.89,17.718a3.717,3.717,0,0,1,.691-2.346,2.353,2.353,0,0,1,3.575-.126v-3.3H91.24v9h-1l-.053-.68a2.209,2.209,0,0,1-1.811.8,2.167,2.167,0,0,1-1.8-.9A3.757,3.757,0,0,1,85.89,17.8Zm1.084.123a2.812,2.812,0,0,0,.445,1.688,1.44,1.44,0,0,0,1.231.609,1.582,1.582,0,0,0,1.506-.926V16.3a1.6,1.6,0,0,0-1.494-.9,1.447,1.447,0,0,0-1.243.615A3.1,3.1,0,0,0,86.974,17.841Z"/><path class="cls-2" d="M96.425,20.941v-5.5h-1V14.6h1v-.65a2.163,2.163,0,0,1,.545-1.577,2.058,2.058,0,0,1,1.541-.556,2.9,2.9,0,0,1,.744.1l-.058.874a3.132,3.132,0,0,0-.586-.052,1.058,1.058,0,0,0-.815.308,1.255,1.255,0,0,0-.287.885v.67h1.354v.838H97.509v5.5Z"/><path class="cls-2" d="M99.771,17.712a3.743,3.743,0,0,1,.366-1.675,2.728,2.728,0,0,1,1.02-1.149,2.777,2.777,0,0,1,1.491-.4,2.678,2.678,0,0,1,2.095.9,3.451,3.451,0,0,1,.8,2.385v.076a3.781,3.781,0,0,1-.354,1.661,2.687,2.687,0,0,1-1.014,1.146,2.808,2.808,0,0,1-1.514.41,2.668,2.668,0,0,1-2.089-.9,3.434,3.434,0,0,1-.8-2.373Zm1.09.129a2.716,2.716,0,0,0,.489,1.694,1.659,1.659,0,0,0,2.622-.009,2.968,2.968,0,0,0,.486-1.814,2.708,2.708,0,0,0-.5-1.69,1.573,1.573,0,0,0-1.315-.648,1.556,1.556,0,0,0-1.3.639A2.945,2.945,0,0,0,100.861,17.841Z"/><path class="cls-2" d="M109.966,15.574a3.178,3.178,0,0,0-.533-.041,1.427,1.427,0,0,0-1.447.908v4.5H106.9V14.6h1.054l.018.732a1.688,1.688,0,0,1,1.512-.849,1.1,1.1,0,0,1,.48.082Z"/><path class="cls-2" d="M119.763,13.33h-2.742v7.611H115.9V13.33h-2.737v-.92h6.6Z"/><path class="cls-2" d="M122.91,21.058a2.768,2.768,0,0,1-2.1-.847A3.141,3.141,0,0,1,120,17.947v-.2a3.8,3.8,0,0,1,.361-1.685,2.811,2.811,0,0,1,1.007-1.16,2.531,2.531,0,0,1,1.4-.419,2.374,2.374,0,0,1,1.922.814,3.528,3.528,0,0,1,.685,2.332v.451h-4.3a2.26,2.26,0,0,0,.548,1.515,1.722,1.722,0,0,0,1.333.577,1.892,1.892,0,0,0,.973-.234,2.441,2.441,0,0,0,.7-.621l.662.515A2.661,2.661,0,0,1,122.91,21.058Zm-.135-5.684a1.448,1.448,0,0,0-1.1.478,2.325,2.325,0,0,0-.551,1.339H124.3v-.082a2.058,2.058,0,0,0-.445-1.28A1.362,1.362,0,0,0,122.775,15.374Z"/><path class="cls-2" d="M127.814,20.941H126.73v-9h1.084Z"/><path class="cls-2" d="M132.179,21.058a2.771,2.771,0,0,1-2.1-.847,3.141,3.141,0,0,1-.808-2.264v-.2a3.809,3.809,0,0,1,.36-1.685,2.806,2.806,0,0,1,1.008-1.16,2.528,2.528,0,0,1,1.4-.419,2.373,2.373,0,0,1,1.922.814,3.528,3.528,0,0,1,.686,2.332v.451h-4.295a2.25,2.25,0,0,0,.548,1.515,1.72,1.72,0,0,0,1.333.577,1.886,1.886,0,0,0,.972-.234,2.445,2.445,0,0,0,.7-.621l.662.515A2.662,2.662,0,0,1,132.179,21.058Zm-.135-5.684a1.447,1.447,0,0,0-1.1.478,2.318,2.318,0,0,0-.551,1.339h3.176v-.082a2.058,2.058,0,0,0-.446-1.28A1.36,1.36,0,0,0,132.044,15.374Z"/><path class="cls-2" d="M135.648,17.718a3.725,3.725,0,0,1,.685-2.358,2.364,2.364,0,0,1,3.627-.056l.053-.7H141v6.188a2.58,2.58,0,0,1-.729,1.939,2.691,2.691,0,0,1-1.96.709,3.269,3.269,0,0,1-1.342-.293,2.313,2.313,0,0,1-1-.8l.563-.65a2.119,2.119,0,0,0,1.705.861,1.66,1.66,0,0,0,1.233-.445,1.7,1.7,0,0,0,.442-1.254v-.545a2.226,2.226,0,0,1-1.775.75,2.168,2.168,0,0,1-1.8-.9A3.921,3.921,0,0,1,135.648,17.718Zm1.09.123a2.843,2.843,0,0,0,.439,1.685,1.428,1.428,0,0,0,1.231.612,1.586,1.586,0,0,0,1.505-.932V16.312a1.605,1.605,0,0,0-1.494-.908,1.441,1.441,0,0,0-1.236.615A3.1,3.1,0,0,0,136.738,17.841Z"/><path class="cls-2" d="M145.7,15.574a3.19,3.19,0,0,0-.534-.041,1.427,1.427,0,0,0-1.447.908v4.5h-1.084V14.6h1.055l.017.732a1.69,1.69,0,0,1,1.512-.849,1.107,1.107,0,0,1,.481.082Z"/><path class="cls-2" d="M150.378,20.941a2.3,2.3,0,0,1-.152-.668,2.42,2.42,0,0,1-1.805.785,2.241,2.241,0,0,1-1.538-.53,1.718,1.718,0,0,1-.6-1.345,1.792,1.792,0,0,1,.753-1.538,3.551,3.551,0,0,1,2.118-.548h1.054v-.5a1.217,1.217,0,0,0-.339-.9,1.366,1.366,0,0,0-1-.337,1.584,1.584,0,0,0-.973.293.862.862,0,0,0-.393.709h-1.089a1.5,1.5,0,0,1,.336-.917,2.3,2.3,0,0,1,.915-.7,3.068,3.068,0,0,1,1.268-.258,2.5,2.5,0,0,1,1.717.548,1.973,1.973,0,0,1,.644,1.508v2.918a3.578,3.578,0,0,0,.223,1.389v.094Zm-1.8-.826a1.9,1.9,0,0,0,.966-.264,1.587,1.587,0,0,0,.662-.686v-1.3h-.849q-1.992,0-1.992,1.166a.989.989,0,0,0,.339.8A1.311,1.311,0,0,0,148.58,20.115Z"/><path class="cls-2" d="M154.011,14.6l.029.7a2.341,2.341,0,0,1,1.881-.82,1.813,1.813,0,0,1,1.811,1.019,2.412,2.412,0,0,1,.823-.738,2.436,2.436,0,0,1,1.2-.281q2.087,0,2.121,2.209v4.248H160.79V16.757a1.453,1.453,0,0,0-.31-1.016,1.367,1.367,0,0,0-1.043-.337,1.44,1.44,0,0,0-1,.36,1.461,1.461,0,0,0-.463.97v4.207h-1.09V16.787a1.209,1.209,0,0,0-1.353-1.383,1.449,1.449,0,0,0-1.459.908v4.629h-1.084V14.6Z"/></g></g></svg>