<svg xmlns="http://www.w3.org/2000/svg" viewBox="0 0 176.55 33.532"><defs><style>.cls-1{fill:#25d366;}.cls-2{fill:#fff;}</style></defs><g id="Layer_2" data-name="Layer 2"><g id="Layer_1-2" data-name="Layer 1"><rect class="cls-1" width="176.55" height="33.532" rx="8.049"/><path class="cls-2" d="M39.689,20.94V12.409H42.1a3.878,3.878,0,0,1,1.969.492,3.324,3.324,0,0,1,1.321,1.4,4.55,4.55,0,0,1,.472,2.086v.544a4.572,4.572,0,0,1-.466,2.116,3.28,3.28,0,0,1-1.33,1.394,4.128,4.128,0,0,1-2.013.5Zm1.125-7.611V20.02H42a2.574,2.574,0,0,0,2.025-.809,3.346,3.346,0,0,0,.724-2.3v-.5a3.4,3.4,0,0,0-.683-2.261,2.429,2.429,0,0,0-1.937-.818Z"/><path class="cls-2" d="M47.1,17.712a3.747,3.747,0,0,1,.366-1.676,2.725,2.725,0,0,1,1.02-1.148,2.769,2.769,0,0,1,1.491-.4,2.675,2.675,0,0,1,2.095.9,3.447,3.447,0,0,1,.8,2.384v.077a3.781,3.781,0,0,1-.354,1.661A2.684,2.684,0,0,1,51.5,20.647a2.8,2.8,0,0,1-1.514.41,2.665,2.665,0,0,1-2.089-.9,3.434,3.434,0,0,1-.8-2.373Zm1.09.129a2.713,2.713,0,0,0,.489,1.693,1.657,1.657,0,0,0,2.622-.009,2.965,2.965,0,0,0,.486-1.813,2.709,2.709,0,0,0-.495-1.691,1.574,1.574,0,0,0-1.315-.647,1.556,1.556,0,0,0-1.3.639A2.943,2.943,0,0,0,48.191,17.841Z"/><path class="cls-2" d="M59.845,19.446,61.064,14.6h1.084L60.3,20.94h-.879l-1.541-4.8-1.5,4.8H55.5l-1.84-6.34h1.079l1.248,4.747L57.466,14.6h.873Z"/><path class="cls-2" d="M64.275,14.6l.035.8a2.31,2.31,0,0,1,1.9-.914q2.01,0,2.028,2.268V20.94H67.152V16.745a1.462,1.462,0,0,0-.314-1.014,1.258,1.258,0,0,0-.958-.328,1.565,1.565,0,0,0-.925.281,1.917,1.917,0,0,0-.622.739V20.94H63.249V14.6Z"/><path class="cls-2" d="M71.048,20.94H69.964v-9h1.084Z"/><path class="cls-2" d="M72.5,17.712a3.747,3.747,0,0,1,.366-1.676,2.73,2.73,0,0,1,1.019-1.148,2.773,2.773,0,0,1,1.491-.4,2.672,2.672,0,0,1,2.095.9,3.447,3.447,0,0,1,.8,2.384v.077a3.781,3.781,0,0,1-.354,1.661A2.7,2.7,0,0,1,76.9,20.647a2.8,2.8,0,0,1-1.515.41,2.667,2.667,0,0,1-2.089-.9,3.433,3.433,0,0,1-.8-2.373Zm1.089.129a2.707,2.707,0,0,0,.49,1.693,1.657,1.657,0,0,0,2.622-.009,2.965,2.965,0,0,0,.486-1.813,2.709,2.709,0,0,0-.5-1.691,1.576,1.576,0,0,0-1.316-.647,1.555,1.555,0,0,0-1.294.639A2.936,2.936,0,0,0,73.585,17.841Z"/><path class="cls-2" d="M83.54,20.94a2.288,2.288,0,0,1-.152-.668,2.416,2.416,0,0,1-1.805.785,2.236,2.236,0,0,1-1.538-.53,1.716,1.716,0,0,1-.6-1.345,1.793,1.793,0,0,1,.753-1.538,3.552,3.552,0,0,1,2.118-.547h1.055v-.5a1.221,1.221,0,0,0-.34-.9,1.37,1.37,0,0,0-1-.337,1.584,1.584,0,0,0-.973.293.864.864,0,0,0-.393.709H79.574a1.5,1.5,0,0,1,.337-.917,2.293,2.293,0,0,1,.914-.7,3.068,3.068,0,0,1,1.268-.258,2.507,2.507,0,0,1,1.717.548,1.978,1.978,0,0,1,.645,1.509v2.918a3.58,3.58,0,0,0,.222,1.389v.093Zm-1.8-.826a1.9,1.9,0,0,0,.966-.264,1.593,1.593,0,0,0,.663-.685v-1.3h-.85q-1.992,0-1.992,1.166a.985.985,0,0,0,.34.8A1.306,1.306,0,0,0,81.742,20.114Z"/><path class="cls-2" d="M85.89,17.718a3.72,3.72,0,0,1,.691-2.347,2.353,2.353,0,0,1,3.575-.126v-3.3H91.24v9h-1l-.053-.679a2.208,2.208,0,0,1-1.811.8,2.165,2.165,0,0,1-1.8-.9A3.754,3.754,0,0,1,85.89,17.8Zm1.084.123a2.811,2.811,0,0,0,.445,1.687,1.441,1.441,0,0,0,1.231.61,1.583,1.583,0,0,0,1.506-.926V16.3a1.6,1.6,0,0,0-1.494-.9,1.447,1.447,0,0,0-1.243.615A3.1,3.1,0,0,0,86.974,17.841Z"/><path class="cls-2" d="M96.425,20.94v-5.5h-1V14.6h1v-.65a2.159,2.159,0,0,1,.545-1.576,2.059,2.059,0,0,1,1.541-.557,2.86,2.86,0,0,1,.744.1l-.058.874a3.13,3.13,0,0,0-.586-.053,1.058,1.058,0,0,0-.815.309,1.255,1.255,0,0,0-.287.885V14.6h1.354v.838H97.509v5.5Z"/><path class="cls-2" d="M99.771,17.712a3.747,3.747,0,0,1,.366-1.676,2.725,2.725,0,0,1,1.02-1.148,2.769,2.769,0,0,1,1.491-.4,2.675,2.675,0,0,1,2.095.9,3.447,3.447,0,0,1,.8,2.384v.077a3.781,3.781,0,0,1-.354,1.661,2.684,2.684,0,0,1-1.014,1.145,2.8,2.8,0,0,1-1.514.41,2.665,2.665,0,0,1-2.089-.9,3.434,3.434,0,0,1-.8-2.373Zm1.09.129a2.713,2.713,0,0,0,.489,1.693,1.657,1.657,0,0,0,2.622-.009,2.965,2.965,0,0,0,.486-1.813,2.709,2.709,0,0,0-.5-1.691,1.574,1.574,0,0,0-1.315-.647,1.556,1.556,0,0,0-1.3.639A2.943,2.943,0,0,0,100.861,17.841Z"/><path class="cls-2" d="M109.966,15.573a3.287,3.287,0,0,0-.533-.041,1.429,1.429,0,0,0-1.447.908v4.5H106.9V14.6h1.054l.018.733a1.687,1.687,0,0,1,1.512-.85,1.114,1.114,0,0,1,.48.082Z"/><path class="cls-2" d="M115.943,18.251l.164,1.125.24-1.014,1.688-5.953h.949l1.646,5.953.235,1.031.181-1.148,1.325-5.836h1.13l-2.068,8.531h-1.025l-1.758-6.217-.135-.65-.135.65-1.822,6.217h-1.025l-2.063-8.531H114.6Z"/><path class="cls-2" d="M125.663,15.368a2.306,2.306,0,0,1,1.875-.885q2.01,0,2.028,2.268V20.94h-1.084V16.745a1.462,1.462,0,0,0-.314-1.014,1.258,1.258,0,0,0-.958-.328,1.565,1.565,0,0,0-.925.281,1.917,1.917,0,0,0-.622.739V20.94H124.58v-9h1.083Z"/><path class="cls-2" d="M135.1,20.94a2.256,2.256,0,0,1-.152-.668,2.418,2.418,0,0,1-1.805.785,2.235,2.235,0,0,1-1.538-.53,1.714,1.714,0,0,1-.6-1.345,1.793,1.793,0,0,1,.753-1.538,3.552,3.552,0,0,1,2.118-.547h1.055v-.5a1.217,1.217,0,0,0-.34-.9,1.367,1.367,0,0,0-1-.337,1.581,1.581,0,0,0-.972.293.864.864,0,0,0-.393.709h-1.09a1.5,1.5,0,0,1,.337-.917,2.3,2.3,0,0,1,.914-.7,3.076,3.076,0,0,1,1.269-.258,2.506,2.506,0,0,1,1.716.548,1.974,1.974,0,0,1,.645,1.509v2.918a3.559,3.559,0,0,0,.223,1.389v.093Zm-1.8-.826a1.9,1.9,0,0,0,.967-.264,1.59,1.59,0,0,0,.662-.685v-1.3h-.85q-1.992,0-1.992,1.166a.988.988,0,0,0,.34.8A1.31,1.31,0,0,0,133.3,20.114Z"/><path class="cls-2" d="M139.187,13.065V14.6h1.184v.838h-1.184v3.937a.883.883,0,0,0,.158.572.667.667,0,0,0,.539.191,2.631,2.631,0,0,0,.516-.071v.874a3.189,3.189,0,0,1-.832.116,1.349,1.349,0,0,1-1.1-.439,1.888,1.888,0,0,1-.369-1.248V15.438h-1.154V14.6H138.1V13.065Z"/><path class="cls-2" d="M145.328,19.259a.8.8,0,0,0-.332-.683,3.176,3.176,0,0,0-1.154-.419,5.438,5.438,0,0,1-1.306-.422,1.847,1.847,0,0,1-.715-.586,1.4,1.4,0,0,1-.232-.808,1.647,1.647,0,0,1,.659-1.319,2.578,2.578,0,0,1,1.685-.539,2.649,2.649,0,0,1,1.749.557,1.769,1.769,0,0,1,.671,1.424h-1.09a.979.979,0,0,0-.378-.768,1.414,1.414,0,0,0-.952-.322,1.482,1.482,0,0,0-.926.258.813.813,0,0,0-.334.674.658.658,0,0,0,.311.591,3.811,3.811,0,0,0,1.122.381,5.836,5.836,0,0,1,1.315.434,1.92,1.92,0,0,1,.747.606,1.5,1.5,0,0,1,.244.864,1.624,1.624,0,0,1-.68,1.363,2.85,2.85,0,0,1-1.764.512,3.182,3.182,0,0,1-1.347-.269,2.19,2.19,0,0,1-.917-.753,1.813,1.813,0,0,1-.332-1.046h1.084a1.123,1.123,0,0,0,.437.864,1.692,1.692,0,0,0,1.075.32,1.747,1.747,0,0,0,.987-.249A.764.764,0,0,0,145.328,19.259Z"/><path class="cls-2" d="M152.705,18.708H149.13l-.8,2.232h-1.161l3.258-8.531h.985l3.263,8.531h-1.154Zm-3.235-.92h2.9l-1.454-3.99Z"/><path class="cls-2" d="M161.007,17.841a3.792,3.792,0,0,1-.662,2.332,2.12,2.12,0,0,1-1.793.884,2.325,2.325,0,0,1-1.816-.732v3.053h-1.084V14.6h.99l.053.7a2.232,2.232,0,0,1,1.84-.821,2.16,2.16,0,0,1,1.807.862,3.832,3.832,0,0,1,.665,2.4Zm-1.084-.123a2.8,2.8,0,0,0-.457-1.694,1.471,1.471,0,0,0-1.254-.621,1.593,1.593,0,0,0-1.476.873v3.03a1.6,1.6,0,0,0,1.488.867,1.464,1.464,0,0,0,1.239-.618A3.058,3.058,0,0,0,159.923,17.718Z"/><path class="cls-2" d="M167.74,17.841a3.8,3.8,0,0,1-.662,2.332,2.123,2.123,0,0,1-1.793.884,2.327,2.327,0,0,1-1.817-.732v3.053h-1.084V14.6h.99l.053.7a2.234,2.234,0,0,1,1.84-.821,2.162,2.162,0,0,1,1.808.862,3.839,3.839,0,0,1,.665,2.4Zm-1.084-.123a2.808,2.808,0,0,0-.457-1.694,1.473,1.473,0,0,0-1.254-.621,1.593,1.593,0,0,0-1.477.873v3.03a1.6,1.6,0,0,0,1.488.867,1.467,1.467,0,0,0,1.24-.618A3.065,3.065,0,0,0,166.656,17.718Z"/><path class="cls-2" d="M10.008,26.681l1.379-5.037a9.724,9.724,0,1,1,3.775,3.685ZM15.4,23.57a8.06,8.06,0,1,0-2.242-2.18l-.816,2.981ZM24.707,19.1c-.06-.1-.222-.162-.466-.284s-1.437-.709-1.66-.79-.384-.122-.547.122-.627.79-.769.952-.283.182-.526.06a6.591,6.591,0,0,1-1.953-1.205,7.3,7.3,0,0,1-1.351-1.683c-.142-.243-.015-.374.106-.495s.243-.284.364-.426a1.591,1.591,0,0,0,.246-.405.45.45,0,0,0-.021-.426c-.061-.121-.547-1.316-.749-1.8s-.4-.409-.546-.417l-.466-.008a.894.894,0,0,0-.648.3,2.729,2.729,0,0,0-.85,2.027,4.727,4.727,0,0,0,.992,2.512,10.827,10.827,0,0,0,4.149,3.667,14.084,14.084,0,0,0,1.384.512,3.322,3.322,0,0,0,1.53.1,2.5,2.5,0,0,0,1.64-1.154A2.033,2.033,0,0,0,24.707,19.1Z"/></g></g></svg>